<svg xmlns="http://www.w3.org/2000/svg" xmlns:xlink="http://www.w3.org/1999/xlink" width="208.6" height="208.6" viewBox="0 0 208.6 208.6">
  <defs>
    <clipPath id="clip-path">
      <path id="Path_9" data-name="Path 9" d="M363.3,105.7a57.7,57.7,0,0,0-57.5,57.5v93.6a57.7,57.7,0,0,0,57.5,57.5h93.6a57.7,57.7,0,0,0,57.5-57.5V163.2a57.7,57.7,0,0,0-57.5-57.5Z"/>
    </clipPath>
  </defs>
  <g id="callout2" transform="translate(-305.8 -105.7)">
    <g id="Group_6" data-name="Group 6">
      <path id="Path_7" data-name="Path 7" d="M363.3,105.7h93.6a57.7,57.7,0,0,1,57.5,57.5v93.6a57.7,57.7,0,0,1-57.5,57.5H363.3a57.7,57.7,0,0,1-57.5-57.5V163.2a57.637,57.637,0,0,1,57.5-57.5" fill="#de6046" fill-rule="evenodd"/>
    </g>
    <g id="Group_9" data-name="Group 9">
      <g id="Group_7" data-name="Group 7" clip-path="url(#clip-path)">
        <path id="Path_8" data-name="Path 8" d="M441.1,413.7a144.21,144.21,0,0,0,45.5-19.1c3.6-2.2,7-4.7,10.8-6.5a71.594,71.594,0,0,0,15.3-10.2c6.3-5.4,12.8-10.6,19.2-15.9,6.9-5.7,14.1-11.1,20.7-17.1,7.8-6.9,14.8-14.5,22.5-21.4,8-7.2,15.6-14.5,20.6-24,2.6-5.1,5.5-9.9,5.4-16.1a131.189,131.189,0,0,1,1.7-19.8,87.223,87.223,0,0,0,.3-25.5c-1.9-14.5-3.5-29-3.4-43.7a72.4,72.4,0,0,0-1.1-13.9,285.229,285.229,0,0,1-3.2-35.7,139.2,139.2,0,0,0-1.7-20.4,266.067,266.067,0,0,0-6.6-28.8c-3.1-10.8-6.9-21.4-10.9-32.1-1.7-4.3-4.7-8.2-7.2-12.3-1.9-3.3-4.3-6.3-6.2-9.6-3.3-5.7-7.1-11.3-13.1-14.8-8-4.8-16.1-9.2-24.5-13.2-7.8-3.7-16-6.8-23.9-10.1-3.2-1.4-6.4-2.9-9.5-4.5-5-2.7-9.9-5.9-15.1-8.5-11.2-5.6-22.4-4.9-32.8,1.2-5,2.9-9.3,6.8-14.1,10.3a41.477,41.477,0,0,0-9.3,9.4c-6.4,9-13.3,17.5-22.8,23.9-8.3,5.6-16.8,10.8-27.1,13.2-14.1,3.2-28.2,5.9-42.9,6.4a154.573,154.573,0,0,1-28-2,13.957,13.957,0,0,1-5.6-2c-7.6-4.9-16.4-7.1-25-9.9a46.318,46.318,0,0,0-16.9-2.2c-2,0-4-.1-5.9,0-6.6.5-13.2.2-19.4,1.7-10.8,2.4-22,3.9-32.4,7.4-6.9,2.3-13.3,4.8-18.3,9.8a18.191,18.191,0,0,1-3.8,2.9c-6.6,4.9-11.8,10.8-14.9,18.1-1.4,3.2-2.9,6.6-4.2,9.8a53.844,53.844,0,0,0-1.2,36.5c2.9,9,6.4,17.8,9.6,26.7a12.046,12.046,0,0,1,.8,2.7c.9,7.2,4,13.8,7.8,20.1,6.1,9.8,10.4,20.4,14,31,1.6,5.2,4.3,9.7,7.5,14.3a92.21,92.21,0,0,1,6.3,11.5c3.3,6.8,5.9,13.8,9.6,20.2a339.359,339.359,0,0,0,38,53.2c3.9,4.5,8.8,8.3,13.4,12.2,3.2,2.7,6.8,5.1,10.3,7.6,8.2,6,16.6,11.9,24.9,17.8,3.7,2.6,7.6,5,11.5,7.6,5.3,3.8,10.6,7.8,16.2,11.3,11.4,7.3,23.1,14.2,34.5,21.4,9.7,6.1,19.3,12.7,29.2,18.7,11.4,6.7,23.9,10.7,37.3,12.9,6.2-.1,12.4.8,18.1-.5m6.1-4.7c-9.7,3.7-10.3,3.5-15.8-4.9-15.8-23.7-24.2-49.3-24.3-77.1,0-3.9.3-7.7,2.7-11.1,1.1-1.6,2-1.7,3.3,0,1.6,2.1,2.7,3.9,1.4,6.7-2.5,5.8-2.6,12.1-2.2,18.3.4,10.4,1.5,20.7,5.1,30.8,5,14.1,13.7,25.7,27.3,33.9a21.943,21.943,0,0,1,3.5,2.4c-.6.5-.7.9-1,1m-15.4,1.3c-.2-.5-.5-.8-.7-1.3-1-1.7-2.1-3.4-3.1-5.1a9.426,9.426,0,0,0-1-1c0-.1-.1-.1-.1-.2-.5-.4-1-.6-1.3-1.1-15-20-23.9-41.9-23.2-66.3a188.612,188.612,0,0,1,1.8-19.9c.3-2.5,1.5-4.9,2.7-8.2,1.8,2.4,3.9,3.7,1.8,6.1-3.9,4.7-4.5,10.2-4.3,15.9,1,24.7,7.5,48.1,20.9,69.9a23.2,23.2,0,0,1,1.6,3.6c0,.1.2.1.2.1a10.623,10.623,0,0,1,.9,1.1c1,1.8,2.1,3.4,3.1,5.2a14.79,14.79,0,0,1,.8,1.3h.2Zm21.2-4.4c.2.1.2.6.4,1.6-1.7-.7-2.9-1.2-4.2-1.8-15.5-8.4-25.4-20.9-30.3-36.7-4.2-13.2-5-26.6-3.5-40.1a18.069,18.069,0,0,1,2-6.5c1.7,3.9,2.7,7.6,2.1,11.7-2.6,17.4.9,34,10.1,49.5A55.261,55.261,0,0,0,450.2,404c.9.7,1.9,1.2,2.8,1.9M421.7,339c2.1,6.5,5.5,12.5,6.1,19.6,1.2,15.6,9.2,28.3,21.4,39,2.6,2.4,5.3,4.7,8.6,7.5-22.8-7.8-40.8-41-36.1-66.1m43.8,62.3c-4.4,3.1-4.6,3.1-8.1.3-9.4-7.7-18.2-15.9-22.9-26.9-1.7-3.9-2.4-8.2-3.5-12.3,0-.1-.1-.1-.2-.2V362a.6.6,0,0,0-.1-.4c0,.1.1.2.2.3a.1.1,0,0,1-.1.1c0,.1.1.1.1.2.1.1.1.1.1.2a17.123,17.123,0,0,1,2,2.7,84.535,84.535,0,0,0,30.5,34.8,17.3,17.3,0,0,1,2,1.4m6.9-2.2c-2.2,1.4-4.1,1.2-6.3-.3-9.4-6.1-17.5-13.2-23.6-22.3-9.6-14.5-16.7-30-20.3-46.6a11.268,11.268,0,0,1-.3-1.8c-.1-.2.1-.6.2-1.3,2.6.8,3,2.5,3.5,4.4,5.5,21.3,16.7,39.7,33.7,55,4.2,3.6,9,6.6,13.5,9.9,1.8,1.4,1.4,2-.4,3m11.4-8.1c.3.1.4.5.7.7-.3.4-.5.9-.8,1.1-5.4,4.4-5.4,4.3-11.4.4-21.4-13.5-34-32.7-42.4-54.6-.7-1.9-1.2-3.9-1.9-6.6,4.3,2.1,7.1,4.1,9.2,7.6,5.1,8.6,10.3,17.1,15.8,25.6,6.6,10,15.7,17.6,26.6,23.4,1.3.7,2.8,1.6,4.2,2.4m6.6-2.5c-2.2,1.5-4.1,1.3-6.4,0-11.7-6.1-22-13.7-29-24.2-4.5-6.9-8.8-13.8-13.1-20.7a22.25,22.25,0,0,1-1.5-3.3c4.4,2.5,7.9,4.3,10,8,1.3,2.2,2.9,4.2,4.2,6.4a75.744,75.744,0,0,0,29.9,26.1c3.2,1.6,6.5,3.2,10.3,5.1-1.8,1.1-3.2,1.7-4.4,2.6m15.1-8.4c-5.7,4.6-7.5,4.9-14.1,1.6-5.3-2.8-10.6-5.5-15.6-8.7a60.239,60.239,0,0,1-20.6-22.3.215.215,0,0,1-.2-.2l-.3-.3.3.3s.1,0,.2.2c2.6,1.5,5.2,2.9,7.7,4.6,9.9,6.6,19.9,12.7,31.5,16.6,4.7,1.5,9.4,2.9,14.7,4.6-1.4,1.5-2.5,2.6-3.6,3.6m6.9-10.9c1.1.8,3,2.3,2.9,2.5-1,1.6-2.3,3-4.7,2.7a17.661,17.661,0,0,1-2-.4c-11.9-3.1-23.4-7.3-33.5-14-13.7-8.8-27.5-17.7-41-26.9-11.5-7.9-20.5-17.8-25.8-30.2a239.653,239.653,0,0,1-9.6-26.1c-2.5-7.7-1.6-15.4.7-22.9a70.655,70.655,0,0,1,11.7-22.2c4.9-6.3,11.3-10.1,19.5-11.9,10.5-2.2,21.2-2.1,32.1-1.1-4.6.5-9.3.7-13.8,1.4-35,5-53.2,40.1-35.9,69.2,10,17,24.1,30.9,39.6,43.8,17.2,14.2,36.7,25.1,57,34.8,1,.5,2,.8,2.8,1.3m66.2-52.8c-5.5,5.2-5.6,5.2-13,2.2-21.9-8.5-43.9-17-65.8-25.6a70.127,70.127,0,0,1-12.9-6.3,39.478,39.478,0,0,1-8.9-8.4c-3.7-4.7-1.6-8.2,4.6-8s12.3,1.2,18.4,2a30.525,30.525,0,0,1,5.4,1.5c-5.8-.3-10.6-.6-15.5-.7-2.8,0-6.3-.2-7.3,2.8-1.1,3.2,1.1,5.7,3.7,7.7,3.4,2.7,7.5,4,11.9,4.9,12.6,2.5,25.4,4.9,38,7.4,14.1,2.8,27.6,6.9,40.2,13.7,6.7,3.6,5,2.9,1.2,6.8m10.7-18.6c1.6.2,2.9,1,2,2.9-.7,1.5-1.4,2.6-3.7,1.7-5.4-2.4-11-4.5-16.5-6.7v-.5c6,.8,12.1,1.6,18.2,2.6m-27.7-4.4c-3.4-.8-6.9-1.6-10.3-2.2-9.4-1.5-18.8-2.8-28.4-4.3a21.1,21.1,0,0,1-4.8-1.2c-1.5-.6-1.5-2.2,0-2.9a6.438,6.438,0,0,1,2.8-.7,30.086,30.086,0,0,1,6,.1c10.7,1.4,21.5,3,33.1,4.7-2.9,3-.7,4.6,1.6,6.5m35.5-2.7c-2.9,5.8-2.9,5.6-9.6,4.3-4.9-.9-9.9-1.3-14.9-1.9-3.4-.4-6.9-.7-10.2-3,1.9-1.5,3.7-.9,5.4-.8,5,.4,10,1.1,15,1.1,3.8.1,7.6-.6,11.4-.9,1.1-.1,2.2-.1,3.3-.2a6.268,6.268,0,0,0-.4,1.4m.9-6.8c0,2.1-1.3,2.9-3.3,3.3-7.2,1.3-14.4,1.7-21.3.3,7.8-2.1,16-4.3,24.7-6.7a16.081,16.081,0,0,0-.1,3.1m1.3-10.9c0,2.7-1.3,4.4-3.9,5.7a59.456,59.456,0,0,1-31.4,5.8c-6.7-.6-13.3-1.6-20-2.4-6.5-.8-12.9-1.6-19.4-2.2a23.058,23.058,0,0,0-6.9.6c-1.9.3-3.5,1.6-3.1,3.6a6.237,6.237,0,0,0,2.7,3.5,18.453,18.453,0,0,0,5.8,1.6c11.2,1.8,22.5,3.5,33.7,5.5a109.874,109.874,0,0,1,28.2,8.7c1.2.5,3.1,2.1,3,2.4a17.9,17.9,0,0,1-3.4,4.4c-.3.2-1.6-.2-2.2-.6-19.8-11.3-42-15.8-64.3-19.7-6.5-1.2-12.9-2.4-19.3-3.7-3.8-.8-7.5-2.1-10-5.1a6.139,6.139,0,0,1-1.5-4.1c.1-.6,2.4-1.4,3.8-1.4,4-.1,8-.1,12,.2,8.8.7,17.6,1.5,26.5,2.2,22.5,1.6,43.8-2.6,64-11.4,1.8-.7,3.5-1.5,6-2.6-.2,3.4-.4,6.2-.3,9m-2.5-10.3a139.717,139.717,0,0,1-63,13.7,149.316,149.316,0,0,1-14.9-1.1c28.8-.8,55.3-9,81.5-19.3,1.1,3.5-.6,5.3-3.6,6.7m4.4-13.6c.4,2.2-.3,3.5-2.4,4.4a113.3,113.3,0,0,1-10.6,5,288.471,288.471,0,0,1-52.3,13.3c-10.7,1.6-21.3.5-31.9-1.2-6.6-1.1-13.3-1.8-20-2.4-3.9-.4-8.1-.3-10,3.5-1.7,3.6.8,6.5,3,9.4,4.7,6.1,11.3,9.8,18.6,12.6,16.4,6.5,32.9,12.8,49.4,19.2,8.3,3.2,16.7,6.5,25.6,9.9-3,4.3-6.7,7.5-10.2,10.9-.6.5-2.3.4-3.3.1-4.4-1.5-8.9-2.9-13.1-4.8-14.1-6.4-28.1-13-42.2-19.4a86.767,86.767,0,0,1-31.2-24.2c-2.1-2.8-4.5-5.5-6.6-8.3-3.7-5-2.7-8,3.1-10.7a51.948,51.948,0,0,1,22.8-4.5c12,.2,24.1.5,36.1.8a104.845,104.845,0,0,0,37.7-5.9c11.8-4.2,23.6-8.2,34.6-13.9.5-.2,1-.3,2.1-.6.3,2.5.4,4.7.8,6.8m-1.4-13.8c.7,2.8-.3,4.7-3.2,5.9-6.8,2.8-13.4,6.1-20.3,8.7-7,2.6-14.3,4.9-21.5,7.2-11,3.4-22.6,3.6-34.1,3.3-10.4-.2-20.8-.8-31-.6a104.369,104.369,0,0,0-16.8,2.2c-3.2.6-6.2,2.2-9.1,3.7-6.2,3.5-6.7,6.7-2.2,12.2,3.1,3.8,6.4,7.6,9.6,11.5,1.3,1.4,2.6,2.8,4,4.2,7.6,8.1,16.9,13.8,27.2,18.6,11.3,5.3,22.5,10.6,33.9,15.7,6.7,3,13.5,5.6,20.7,8.6-1,1.1-2,2.1-2.8,3.1-1.2,1.4-2.7,1.5-4.4.9-29.4-10.9-58.1-22.9-81.8-43.4a120.27,120.27,0,0,1-13.1-13.6,25.529,25.529,0,0,1-5.9-13.3c-.9-6.7,1.9-12.2,8.7-14.5a68.544,68.544,0,0,1,15.5-3c20.3-1.2,40.7-1.6,61-3.1a163.008,163.008,0,0,0,62.8-17,17.08,17.08,0,0,1,2.1-.7,25.307,25.307,0,0,0,.7,3.4m-2.2-5.5c-2.1,1.2-4.3,2.3-6.5,3.3-18.6,8.7-38.6,13.3-59.4,14.7-16.3,1.1-32.7,1.6-49,2.3-4.8.2-9.7.5-14.5.9a48.6,48.6,0,0,0-8.3,1.6c-11.1,3.2-15.8,11.8-12.1,22.2,3.2,8.9,9.3,15.9,16.6,22.1a188.821,188.821,0,0,0,27.9,19.6c16.8,9.9,34.8,17.4,53,24.5,1.6.6,3,1.2,5.5,2.2-2.8,2.1-4.7,3.7-6.7,5.4-1.4,1.2-2.7.8-4.1.1-4.6-2.1-9.3-3.9-13.7-6.3-22.2-11.7-43.7-24.3-63.5-39.4a142.418,142.418,0,0,1-15.2-13.7,31.087,31.087,0,0,1-7.3-13.3c-3.1-11.2,1.4-21.2,12-26.8,5.8-3.1,12.3-4.7,18.9-5.7a374.6,374.6,0,0,1,53.9-3.7c24.7,0,47.9-5.5,70.3-14.2.9-.4,2.3-.8,3-.3.9.6.5,3.6-.8,4.5m-4-6.2c-21.9,8.4-44.6,14-68.8,14.1a384.192,384.192,0,0,0-50.4,2.9c-7.1.9-14.1,2.2-20.6,5.2-7.7,3.6-13.7,8.5-16.1,16.6a25.4,25.4,0,0,0,.8,16.1A39.149,39.149,0,0,0,449.8,295c7.2,6.1,14.6,12.2,22.4,17.7a466.055,466.055,0,0,0,55,32.7c2.2,1.1,4.5,2.1,6.7,3.3,2,1,3.9,2.2,5.8,3.3-2.4,1.8-4.6,3.8-7.2,5.4-.9.4-2.8-.5-4.2-1.1a269.618,269.618,0,0,1-50.2-29.2c-13.4-9.8-25.7-20.7-35.7-33.8-5.8-7.7-9.7-16.1-10.3-25.6-.8-12.4,6.3-23.2,18.8-27.6,7.2-2.6,14.8-3.6,22.5-4.1,17.4-1,35-1.7,52.5-2.8,19.3-1.2,38.1-4.1,56-10.9,3.9-1.4,7.6-3.2,11.3-4.8,1.3-.6,2.6-1.2,4-1.8,1.3,5.7,1.3,6.1-3.6,7.9m2.8-10.5c-.6.9-2.1,1.4-3.2,2-12.3,6.4-25.6,10.2-39.4,12.8-18.5,3.3-37.4,3.9-56.3,4.9-11.5.6-23,1.4-34.4,2.4a53.683,53.683,0,0,0-12.6,2.9c-13.4,4.5-20.5,14.3-20.5,27.6,0,10.3,3.6,19.6,9.7,28.1,7.3,9.9,16.4,18.4,26,26.4a267.847,267.847,0,0,0,59.4,37.3,3.925,3.925,0,0,1,1.3.6c.9.8,2.4,1.7,2.3,2.3-.1,1.9-3.2,3.1-5,2.4a13.918,13.918,0,0,1-1.3-.6c-23.5-12.4-46.3-25.9-65.8-43.6A156.62,156.62,0,0,1,423,274.7c-2.7-5.1-4.5-10.5-3.6-16.8.5-4.5,3.2-8.6,7.3-11.6a75.838,75.838,0,0,1,12.9-7.7c14.5-6.7,30.2-9.4,46.3-10.3,12.4-.7,24.7-1,37.1-2.1a243.938,243.938,0,0,0,67.8-16,16.234,16.234,0,0,1,2.8-1.1,16.051,16.051,0,0,1,3.1,0c.1,1.4.3,2.9-.3,4m-.4-7.7c-.7.9-2.2,1.2-3.5,1.7a249.306,249.306,0,0,1-83.1,18c-13.8.7-27.7,1.7-41.5,3.1-11.8,1.2-22.9,5.1-33.4,10.3a56.1,56.1,0,0,0-9.7,6.4c-7.1,5.7-9.5,13.1-7,21.7,2.8,9.3,7.7,17.7,13.2,25.7,15.4,22.6,36.3,39.9,60.2,54.5,9.1,5.6,18.7,10.7,28,16,1.3.7,2.5,1.5,3.8,2.3-3.6,4.2-4.2,4.5-7.8,2.8-25.8-11.8-50-25.6-70.5-44.6a205.076,205.076,0,0,1-25.1-27.6c-6.4-8.5-10.6-17.7-10.9-28.2-.7-21.6,15.4-40.7,38.2-45,9.5-1.9,19.2-1.7,28.9-1.2a214.874,214.874,0,0,0,53.8-3.9c16.5-3.1,32.8-6.9,49.1-10.6,5.2-1.2,10.1-3.3,15.1-4.8a5.708,5.708,0,0,1,2.6,0c0,1.3.3,2.7-.4,3.4m.6-8.9c.7,1.4-.3,2.3-1.7,2.8a93.233,93.233,0,0,1-8.8,3.3c-12,3.1-23.9,6.1-36.1,8.8-18.4,4.1-37.1,7.4-56.3,7.9-6.8.2-13.5-.2-20.4-.3a.1.1,0,0,0-.1.1h-.3c-1.6,0-3.3-.1-5-.1,0-.2.1-.4,0-.6,1.6.2,3.2.5,4.9.7a.367.367,0,0,1,.3-.1h.1a6.4,6.4,0,0,1,1.7-.5c11,.1,21.6-1.9,32-4.5,15.2-3.7,30.7-6,46.2-8,13.9-1.8,27.5-4.2,40.5-9.6,1-.3,2.8-.2,3,.1m-16.8-74.8c-34.8,21.6-73.3,34-115.3,37.7a341.007,341.007,0,0,1-63.1-.4c-12.2-1.2-24.4-2.4-36.5-3.6a23.627,23.627,0,0,1-4.5-.8,2.215,2.215,0,0,1-1.3-1.9c.3-3.2.9-6.4,1.3-9.6.3-2.3,1.9-1.6,3.3-1.3,10,1.7,20.1,3.8,30.2,4.9,42.3,4.7,83.9,2.5,124.6-8a187.766,187.766,0,0,0,62.6-29.5c1.4-1,2.8-2,4.8-3.3,2.1,11.4,4.6,9.2-6.1,15.8m5.6-20.9c.6,2.2-1,3.1-2.4,4.2a202.875,202.875,0,0,1-34.4,20.2c-23.6,10.9-49,16.2-75.1,19.2a346.265,346.265,0,0,1-108.4-4.6c-1.6-.3-3.9-.7-4.5-1.6-1.1-1.8-1.2-4.1-1.5-6.3,0-.3,1.2-1,1.8-1,2,.3,3.9.8,5.8,1.2,25.1,4.6,50.3,6.2,75.6,5.9,15.7-.2,31.4-.8,46.9-3.1,20.7-3.1,40.5-8.7,58.4-18.9a106.7,106.7,0,0,0,31-25.6c.7-.9,1.4-1.6,3.1-3.4,1.4,5.4,2.5,9.7,3.7,13.8m-5.8-17c.1,1.3-.9,2.9-1.8,4A99.481,99.481,0,0,1,543.7,116c-18.4,9.6-38.4,14.4-59.2,17.2a336.623,336.623,0,0,1-55,2.3c-12.8-.4-25.7-1-38.5-2.3-10-.9-19.9-3-29.8-4.5a8.373,8.373,0,0,1-2.8-.9c-.4-.2-.6-1.1-.6-1.6a1.868,1.868,0,0,1,1.1-.6c2.7.1,5.4.1,8.1.3,32.1,1.6,64.2,3.2,96.3.8,16-1.3,31.8-3.5,47-8.1a132.048,132.048,0,0,0,57-34.1c2.6-2.6,5.2-5.1,7.8-7.6a15.815,15.815,0,0,1,2.2-1.6c.7,3.1,1.8,5.8,2.3,8.5m-5.3-9.6c-24.1,26.2-53.7,43.8-91.6,48.3a472.272,472.272,0,0,1-70.4,3.1c-17.6-.5-35.2-1.5-52.7-2.2-2.6-.1-4.4-.7-5.4-3.2-.8-2-2.2-3.8-4-6.7,2.7.4,4.4.7,5.9.9,15,1.8,30,3.9,44.9,5.4,21.4,2,42.4.4,63.3-3.5,21.8-4,42.7-10.5,63.3-18,7.8-2.7,14.6-7.2,20.9-12.3,6.1-4.9,11.9-10.2,17.9-15.3.9-.8,1.6-1.6,2.5-2.3,1.7-.8,3.4-2.3,5.1-2.2,1.4.1,1.7,6.4.3,8m-2.2-12.4A1.287,1.287,0,0,1,572,63a4.617,4.617,0,0,1-.7.7c-6.4,5.5-12.9,11-19.2,16.6a92.419,92.419,0,0,1-33.2,18.8c-26.5,8.7-53.5,16-81.8,18.3a236.747,236.747,0,0,1-47.6-.9c-12.5-1.5-25-3.3-37.4-4.9a46.443,46.443,0,0,1-5.1-1.1c.1-.4.1-1,.2-1.4l11-.3c15.2,0,30.4.8,45.6-.3,14.6-1,29.3-1.2,43.9-2.3a146.6,146.6,0,0,0,40.5-9.4c10.8-4,21.7-7.7,33.1-10,8.8-1.7,16.5-5.8,23.9-10.1,6.3-3.7,12.3-7.7,18.6-11.5,2.3-1.3,4.5-2.5,6.9-3.6.4-.3,1.2,0,1.4.2m-198,44a31.287,31.287,0,0,0,8-2,3.162,3.162,0,0,0,1.7-2.5c-.1-.7-1.4-1.7-2.4-2-1.8-.5-3.6-.5-6.1-.9,5.1-1.6,9.4-3,14.6-4.6-1.4,2.9-3.7,5.3-1.6,7.7,1.7,2,4.2,3.3,7,5.4-6.8,0-13.1.1-19.6.1-9.5,0-19.1-.1-28.5-.2-2.7.1-4.9-.3-6.1-2.8,4.9-.6,9.7-1.2,14.4-2s9.4-1.9,14.4-2.9c-2.7,4.9-1.2,7.1,4.2,6.7m6.5-4c-3,2-6,1.9-8.8,1.9-.3,0-1-.6-1-.9.2-.5.5-1.2,1.1-1.3,2.6-.6,5.3-1.1,8.7.3M533.7,21.1c1.2.6,1.2,1.4.3,2.2-1.7,1.4-3.2,3-5.1,4.4-4.6,3.6-9.4,7.2-14.1,10.8a42.71,42.71,0,0,1-4.4,3c-.6.3-1.9.6-2.2.3-.7-.6-.7-1.6-1-2.2,1.3-2.8,2.2-5.5,3.6-7.9,2.8-4.8,6-9.6,9-14.3a2.785,2.785,0,0,1,3.7-1.3c3.4,1.6,6.8,3.3,10.2,5m-17.1-7.5c2.1.8,1.6,1.8.7,3.2-2.9,4.7-5.9,9.3-8.5,14.1a45.142,45.142,0,0,0-3.8,9.4c-.3,1.1.1,3.1,1,3.7.9.7,2.9.5,4,0a38.694,38.694,0,0,0,7-4.3c6.2-4.7,12.1-9.5,18.2-14.2.6-.5,1.3-1.5,1.9-1.5a10.8,10.8,0,0,1,3.5,1c.2.1-.1,1.6-.7,2.1a8.486,8.486,0,0,1-2.5,2.1q-18.15,12.45-36.5,24.7a21.073,21.073,0,0,1-5.3,2.4c-3,.8-4.6-.8-4.1-4.1a25.7,25.7,0,0,1,1.9-3.6c8-9.8,12.1-21.5,18.1-32.2a6.807,6.807,0,0,0,1-2.1c.9-2.1,2.6-1.3,4.1-.7m-12-5.1c8.2,3.6,7,2.6,3.9,9.3-3.2,6.8-6.6,13.4-10.1,20-1.4,2.7-3.6,5.1-5.3,7.7-1.4,2.3-3,4.4-3.9,6.9-1.1,3.3,1,6,5.4,6.5a12.483,12.483,0,0,0,3.6-.8,22.889,22.889,0,0,0,5.6-2.9Q522.85,42,541.9,28.7c2.6-1.8,7.9-.3,8.5,2.7.1.5-.8,1.2-1.4,1.5-2.5,1.5-5.2,2.7-7.7,4.2a47.106,47.106,0,0,0-6.4,4.2c-10.3,8.5-22.2,14.5-34.2,20.3-5.5,2.7-11.6,4.3-17.6,6.3a16.78,16.78,0,0,1-3.9.7c-2.4,0-3.3-1.2-2.5-3.3a25.428,25.428,0,0,1,2.9-5.4c8.4-9.9,12-21.8,16.4-33.4,1.8-5.1,2.5-10.5,3.7-15.7.7-3.9.8-4,4.9-2.3m-11.2-5a16.938,16.938,0,0,0,2.7,1.3,2.2,2.2,0,0,1,1.6,2.9c-.5,2.1-.9,4.2-1.3,6.4-3.4,14.5-8.1,28.5-16.9,41.1a48.3,48.3,0,0,0-5.3,9.4c-2.1,4.3-.1,6.6,4.9,6.2a22.761,22.761,0,0,0,6.4-1.3c7.2-2.7,14.5-5.3,21.4-8.6,10.9-5.4,21.5-11.4,30.9-19,3.8-3,8.7-5,13.2-7.3,2.4-1.1,3.1-.4,5.3,2.7,1.4,2.1.2,2.7-1.2,3.7a261.026,261.026,0,0,1-59.3,31.5c-3.7,1.3-7.6,2.2-11.4,3.2-6.9,1.7-13.8,3.3-20.7,5-1.5.3-2.8,1-4.4,1.1-1.1-.1-2.4-.6-3.5-.8.4-.9.8-1.9,1.3-2.8a3.566,3.566,0,0,1,1.1-1c15.3-12.7,23.2-29.2,26.9-47.7,1.7-8,2.9-16.1,4.5-24.1.7-3.1.8-3.1,3.8-1.9m-5.6-1.2C487,7,486,11.7,485,16.4a3.553,3.553,0,0,0,1,.2c-2.9,10.1-5.2,20.4-8.5,30.4C473.7,58.2,466,67.4,457,75.4a17.211,17.211,0,0,0-3.4,3.8c-1.4,2.6-.4,4.2,2.7,4.6a13.683,13.683,0,0,0,4.5-.3c13.4-3.9,27.8-5.1,40.7-10.7,15.8-6.7,31.6-13.5,45.3-23.8,3.2-2.4,6.9-4.3,10.2-6.4,1.4-.9,2.4-.8,3.2.7,4.2,7.5,5.4,5.6-2.1,10.1-3.6,2.2-7,4.6-10.5,6.8-16.8,10.5-34.2,19.3-54.8,22.3a64.046,64.046,0,0,0-17,5.1,71.987,71.987,0,0,1-12.2,3.8c-9.2,2-18.5,3.7-27.8,5.2a79.746,79.746,0,0,1-12,.7,7.639,7.639,0,0,1-3.3-.8c-2.7-1.2-3.1-2.8-1-4.8a24.752,24.752,0,0,1,5.1-3.7c4.9-2.7,10-5.4,15-8.1,3-1.6,6.1-3.3,9-4.9,15.1-8.9,24.1-21.8,27.6-37.9,1.5-7.6,1.9-15.4,2.8-23,.6-4.6,1-9.2,1.7-13.8.2-1.3,0-3.4,2.5-3.2,2.2.2,5,3.3,4.6,5.2m-8.8-5c-3.1,8.3-1.8,17.1-3,25.7a150.192,150.192,0,0,1-4.9,22.1c-3.3,10.3-10,18.7-19.6,24.8-8,5-16.5,9.6-24.7,14.4a77.4,77.4,0,0,0-8.3,5.2c-4.8,3.9-3.8,8,2.4,9.4a31.262,31.262,0,0,0,11.4.4c11.2-1.7,22.3-3.9,33.3-6.2a45.619,45.619,0,0,0,10.3-3.2c6.3-3.1,13-4.4,19.9-5.7a122.024,122.024,0,0,0,19.1-5.1c11.3-4.4,22.4-9.3,32.4-16.1,4.9-3.3,10-6.5,15.1-9.6,3.1-1.9,3.2-1.8,5.4,1.2.6.8,1.1,1.5,1.8,2.3.9,1.3.8,2.1-.8,3-11,6.4-21.9,13.1-33.2,19.2a72.155,72.155,0,0,1-16.7,6,219.705,219.705,0,0,0-30.2,9.2c-17.9,7.3-36.9,10.1-56.5,10.4-9.6.1-19.1,0-28.6-.1a38.237,38.237,0,0,1-6.9-1c-2.7-.4-5.7-.8-6.6-3.7-.7-2.7,1.6-4.3,3.5-5.6,4.8-3.1,9.6-6.1,14.5-8.7,7.8-4.1,15.9-7.5,23.6-11.9a165.387,165.387,0,0,0,17.9-11.5c14.8-11,22-25.7,23.7-43.2.3-7.6.5-15.2.8-22.8.1-1-.6-2.8,1.5-2.7,2.2.1,4,2.1,3.4,3.8m-7.3-3.9c0,12.8-.4,25.7-3.6,38.2-3.5,13.7-12.4,24.1-24.5,32A252.5,252.5,0,0,1,418.7,78c-9.7,4.9-19.7,9.4-29.9,13.6-6.2,2.5-12.9,3.8-19.5,5.5a161.359,161.359,0,0,1-17.1,3.3,72.471,72.471,0,0,1-12.4.8c-2.2,0-4.3-1.1-6.5-1.7.1-.4.1-.9.2-1.2,1.2-.3,2.5-.5,3.7-.7a125.761,125.761,0,0,0,27.3-5.4q25.35-7.95,50.9-16.1c.2-.1.3-.1.4-.2C445.4,67,459.7,46.3,466,19.6a68.407,68.407,0,0,0,1.2-25.9c-.1-1.1-.8-2.6,1.1-3a2.759,2.759,0,0,1,2.357.523A2.759,2.759,0,0,1,471.7-6.6m-6.7.4c2.9,23.5-4.1,44.4-19.7,62.6-7.2,8.5-17,13.5-27.9,16.9-19.3,6.1-38.8,12.2-58,18.1a102.683,102.683,0,0,1-27.6,4.4c-2.8.1-5.7,0-8.4-2.2,11.3-2.5,22.1-4.6,32.9-7.4,14.5-3.5,29-7.1,42.7-12.6,17.5-7,33.2-16.1,45.5-29.7C457.3,29.7,464,13.2,463-5.9a25.006,25.006,0,0,1,.6-3.8c.3,1.2,1.2,2.2,1.4,3.5M217,44.9c8.7-1.4,17.3-3,26.1-3.7a52.14,52.14,0,0,1,18.8,1.5c7.6,2.2,15.5,3,22.6,6.5a22.126,22.126,0,0,1,6,3.7c-.9,0-2.1.2-3.1.1-6.1-.9-12.3-1.7-18.4-2.7-25.1-3.9-36.1-6.1-64-2.9,4-.8,7.9-1.8,12-2.5M161.3,77c1.6-2.1,2.8-4.1,4.4-6,8-9.8,18.8-15.6,31.6-18.6,16.8-3.9,33.8-5.3,51.2-2.9,8.1,1.2,16.2,2.3,24.4,3.6A258.178,258.178,0,0,0,314.8,57c10.3-.1,20.6-1.4,30.9-2.2,2.7-.2,5.3-.6,7.9-.7a78.111,78.111,0,0,0,34.1-9.2,109.982,109.982,0,0,0,24.7-18.3c4.7-4.8,8.4-10.3,12.5-15.5,4-4.7,7.9-9.3,13.6-12.4a3.494,3.494,0,0,0,1.3.5c-1.1,3.2-2,6.5-3.4,9.6-9.6,21.2-26.7,35-49.8,42.7-11.3,3.7-23.1,5.7-34.9,7.5-20.3,3.1-40.5,5.9-61.2,5.2-13.1-.3-26.1-1-39.2-1.4-16.9-.6-33.7-.6-50.5,2.2a141.773,141.773,0,0,0-34.5,10.4c-1.3.6-2.7,1.3-4,1.8,0,.1-.2,0-1-.2m-1.8,5.3c.7-1.3,2.7-2.1,4.2-3C179.6,71.2,196.8,67,215,65.5a309.972,309.972,0,0,1,45.2-.1c41.1,2.9,81.5-.1,121-10,26.6-6.8,46.2-21.7,57.3-45.4,1.6-3.5,2.3-7.3,3.7-10.9a15.175,15.175,0,0,1,2.5-4.3c.5-.6,1.8-.5,2.6-.8.2.8.6,1.5.7,2.2-.8,17.1-7.3,31.5-22,42.2-10.1,7.4-21.6,12.4-33.5,16.9-13.2,4.9-26.5,9.7-40,14.1-15.5,5.1-31.6,5.7-48,4.1-17-1.6-34-3.3-51.2-2.1-34.7,2.4-66.9,11.8-96.3,28.5-.9.5-1.7.8-3.4,1.7a41.723,41.723,0,0,1,5.9-19.3m-6.8,30.1a21.359,21.359,0,0,0-.1-3.6c-.1-2.8,1.1-4.5,3.7-6A217.012,217.012,0,0,1,220.9,78a223.8,223.8,0,0,1,71.7-3.5c9.1,1,18.3,1.5,27.6,1.7a101.934,101.934,0,0,0,32-4.5,442.8,442.8,0,0,0,56.4-20.9,125.113,125.113,0,0,0,19.7-11.5C439.9,31,447,19.8,449.1,6c.5-3.3.9-6.8,1.2-10.1a8.628,8.628,0,0,1,.4-2.8c.3-.7,1.2-1.1,1.9-1.6.3.6,1,1.2,1,1.8a41.416,41.416,0,0,1,.1,6.1c-.1,1.9-.5,3.7-.7,5.5a55.324,55.324,0,0,1-18.6,34.8C417.8,55,397.6,65.1,375.7,72.4c-20,6.6-40.8,8.6-62.1,7.9-19-.5-38.1-1.6-57.2-1.6q-56.25.3-99,33.5c-.6.5-1.3,1-1.9,1.5-1.9,1.2-2.4,1-2.8-1.3m4.9,2.5c28.1-22.4,61-33.7,98.3-34,16.4-.2,32.8.8,49.2,1.3,17.6.7,35.2.6,52.4-2.9,30-6.3,56.7-18.5,78.7-38.3,14.1-12.6,20.3-28.4,20.1-46.6,0-.4-.1-1-.1-1.4-.2-1.5.1-2.8,2.2-2.9,2,0,1.9,1.5,2.1,2.6A56.163,56.163,0,0,1,458,16.1c-5.5,17.2-16.8,30.5-32.1,41-12.7,8.8-27.1,14.8-42.2,19.5a534.574,534.574,0,0,1-61.8,14.8,24.25,24.25,0,0,1-8.9-.3c-6.4-1.3-12.9-2.4-19.3-3.1-12.1-1.3-24.3-2.5-36.5-3.5a67.626,67.626,0,0,0-26.5,3.2c-8.3,2.7-16.7,5.5-25.1,7.8-17.3,4.8-31.6,14-44.6,25.2-1.6,1.3-3.1,2.7-4.9,4.4-3.1-6.2-3-6.6,1.5-10.2m4.5,28.4c.5-.4.8-1,1.3-1.3,19-12.6,39.2-23,62.4-27.7,22.1-4.4,43.9-3.5,65.1,5a26.741,26.741,0,0,1,4.5,2.2c.7.4,1.3,1.2,1.2,1.8a2.453,2.453,0,0,1-1.7,1.2,31.829,31.829,0,0,1-6.9,0c-8-1.1-16-2.4-23.8-3.5a109.147,109.147,0,0,0-50.8,5c-13.2,4.6-26.5,9.1-39.7,13.7-3.1,1.1-6,2.6-9,3.9a14.344,14.344,0,0,1-2.2.4,1.611,1.611,0,0,1-.4-.7m2.7,3.2h.3a11.414,11.414,0,0,0,1.1-1.1c.8-.1,1.5-.2,2.2-.3a5.241,5.241,0,0,0,1.1-1c1-.4,2.1-.9,3.1-1.4a20.025,20.025,0,0,1,2.4-.4,10.949,10.949,0,0,1,1.1-1c.8-.1,1.5-.2,2.3-.3a27.547,27.547,0,0,1,2.9-1.7,20.029,20.029,0,0,1,2.4-.4c1.7-.7,3.4-1.5,5.1-2.3,1.5-.3,3-.7,4.4-1,.8-.3,1.5-.5,2.2-.7.1,0,.2-.1.3-.1.6-.3,1.1-.8,1.7-1.1,9.3-2.9,18.6-5.8,27.9-8.5,13.2-3.7,26.7-3.3,40.3-1.7,6.8.8,13.5,2.3,20.3,3.1a39.717,39.717,0,0,0,10.9-.1c4.2-.8,4.6-3.1,1.2-5.7a23.605,23.605,0,0,0-5.2-2.8c-20.1-8.3-40.9-9.9-62.1-6.4-23,3.7-43.3,12.8-62.2,24.7-2.1,1.3-4.2,2.6-6.2,3.8a3.329,3.329,0,0,1-1.4.1c.1-.5-.1-1.2.2-1.5,9.9-7.6,18.7-16.7,30.9-21.4,13.6-5.4,27.2-10.9,42.3-11.8,22.9-1.4,45.6.7,67.5,7.9a73.831,73.831,0,0,1,26,14.1,29.616,29.616,0,0,1,6.6,7.6c4.1,7.1.4,13-8,14.1-5.6.7-10.6-1.1-15.7-2.7-3.9-1.3-7.8-3.1-11.6-4.8-31.1-13.2-63-15.7-95.7-8.3a72.684,72.684,0,0,1-7.9,1.4c-.1,0-.2.2-.3.2l-2.1.6c-1.4.3-2.9.8-4.4,1.1-1.6.7-3.3,1.5-5.1,2.3a15.72,15.72,0,0,0-2.3.4,24.775,24.775,0,0,0-2.9,1.7,20.022,20.022,0,0,1-2.4.4,9.961,9.961,0,0,0-1.1,1c-.7.1-1.5.3-2.3.4-1.1.5-2.1.9-3,1.4a10.951,10.951,0,0,0-1.1,1,20.689,20.689,0,0,1-2.2.4,9.957,9.957,0,0,1-1.1,1h-.3c-.1.1-.2.1-.4.2.1-.3.2-.4.3-.4m.5,5c-.7-1.4-.3-2.3,1.2-2.9a21.013,21.013,0,0,0,2.6-1.3c3.5-1.4,7-3.1,10.4-4.4,19.2-7.3,39.2-11.7,60.2-11.8a139.688,139.688,0,0,1,59.4,12.6,113.641,113.641,0,0,0,16.9,6.1,39.958,39.958,0,0,0,12.5,1c7.2-.6,10.7-5.1,10-11.8-.7-4.9-3.6-8.7-7.2-12.2a64.5,64.5,0,0,0-20.2-12.3A164.633,164.633,0,0,0,227,103.9c-13.5,1.7-25.7,7.2-38.1,12-1.2.4-2.5.8-3.8,1.2-.1.2-.3.1-.3.2-.3.3-.8.5-1,.8-.5.3-.7.6-1.1.8-.4.3-.7.5-1.1.8-.3.3-.8.6-1.1.9l-1.2.9H179q-9.3,7.35-18.9,14.7a2.092,2.092,0,0,0-.6-.4c.1-.4.1-1.1.5-1.4,5.7-4.1,11.3-8.3,17.1-12.4.4-.4,1.2-.4,1.9-.5a.349.349,0,0,0,.2-.1c.5-.3.9-.6,1.3-.8a8.119,8.119,0,0,0,1-.9,11.457,11.457,0,0,0,2.2-1.6,2.589,2.589,0,0,0,1.1-.7.758.758,0,0,0,.4-.2c7.3-5.6,15.8-9.4,24.4-13.2,10.8-4.7,22.3-5.6,34.1-6,6-.2,12.1-.4,18-.9,15.5-1.6,30.3,1.1,44.8,6.5,9.9,3.7,19.5,7.8,27.9,14.1,7.9,6.1,14,13.3,14.9,23.1,1.1,11.3-6.6,19.1-18.7,19.2-9.5,0-18.6-2.6-27.6-5.5s-17.9-6.3-26.9-9.5c-24.7-8.8-49.7-9.4-75.1-3.9A155.092,155.092,0,0,0,168.3,152c-1.2.5-2.2,1.2-3-.5m1.6,5.8c-1.3-1.9.7-2.5,2.2-3.2,23.7-10.9,48.7-16.3,75.6-13.7,15,1.4,29.1,6.1,43.2,11.2,8.3,3,16.7,5.8,25.3,8.1a74.474,74.474,0,0,0,16.4,2.2c15.3.4,24.7-10.4,21.6-24.4-1.9-8.2-7-14.4-13.6-19.9-9.3-7.7-20.2-12.4-31.6-16.5-3.9-1.4-8-2.6-12-3.8-9.6-3-19.4-3.2-29.3-2.5-10.6.7-21.4,1-32,1.7a76.685,76.685,0,0,0-27.6,7.2,225.8,225.8,0,0,0-41.2,24.9,26.1,26.1,0,0,1-2.7,1.9c-1,.6-2.3,1.5-3.3,1.3-1.2-.2-1.2-3.4-.3-4.6a4.347,4.347,0,0,1,.6-.7c11.8-10.9,24.5-20.7,40.5-26.1,11.9-4,23.8-7.6,35.8-11.5a53.629,53.629,0,0,1,20.7-2.1c14.7,1.2,29.4,2.5,44.1,4,11.9,1.3,23.4,4.3,33.6,10.8,14.3,9.1,23.3,21.3,24.9,37.4a39.776,39.776,0,0,1-1.1,13.3c-1.5,6.8-6.5,10.8-13.4,13-6.7,2-13.6,1.4-20.5.7-4.8-.5-9.6-1.3-12.9-1.8-17.3-3.6-33.1-6.8-48.8-9.9-17.8-3.5-35.7-6.3-53.9-5.7-12.9.4-25.2,2.8-36.5,8.5-1.1.3-2.6,2-3.8.2m6.9,2.8c-1.3,1.8-2.5,3.7-3.9,5.6-.6-3.1,1-4.7,3.9-5.6m.8,2.6c3.7-4.5,11.2-8.2,18.4-8.7-9.1,5.9-14.7,13.5-16.6,23.5-5.9-6-6.2-9.4-1.8-14.8m13.9,45.2c-3.2-7.9-6.2-15.8-9.3-23.7a9.287,9.287,0,0,1-.6-3.7c.4-14.4,14-27.6,29.6-28.6a1.412,1.412,0,0,1,.9.1s0-.1.1,0l.1-.1-.2.2h0c-18,7.3-21.9,23.9-19.3,36.5a53.262,53.262,0,0,0,4.4,13.3c2.6,5,1.1,9.1-1.2,14.6-1.7-3.5-3.4-6-4.5-8.6m44.4-55.6c-2.8.8-5.7,1.6-8.5,2.5-11.9,4.3-21,11.3-24.7,22.8-1.8,5.6-1.9,11.6-2.7,17.3-.2,1.5-.1,3-.2,4.4h-1.1c-5.1-11.5-6.7-23,.5-34.2,8.3-13,22-14,36.7-12.8M197,212.4c1.7-5,1.8-10.6,2.3-16,.6-4.4.7-8.9,1.3-13.4,1.6-10,7.7-17.5,16.7-22.8,9.9-5.9,20.9-7.5,32.6-5.6a26.271,26.271,0,0,1-3,.8c-18.7,3.2-29.7,14.1-34.6,30.5-2.5,8.5-3.9,17.2-5.9,25.7-1.3,5.2-3.1,10.3-4.9,16.3-5-5.3-6.5-9.7-4.5-15.5m5.5,20.6a5.252,5.252,0,0,1,0-3.5c5.6-10.6,7.2-22.3,9.7-33.8a105.632,105.632,0,0,1,3.7-13c6.3-16.5,20.7-25.9,39.8-25.9,3.9,0,7.8.3,11.8.5a2.769,2.769,0,0,0,.1.9,21.384,21.384,0,0,1-2.7.6c-15.5,2.2-26.8,9.9-34.8,22-7.6,11.4-10.5,24.1-13.2,37a63.58,63.58,0,0,1-4.4,13.6c-1.3,3.1-3.8,5.6-6.4,9.2a70.379,70.379,0,0,1-3.6-7.6m6,13.8c-1.9-3-1.9-4,.6-6.6a37.9,37.9,0,0,0,9.3-18.1c1.7-7.1,3.1-14.2,5-21.2a65.318,65.318,0,0,1,11.1-22.6c9.6-12.3,22.9-18.1,39.4-18.1,5.4.1,11,0,16.8,2.3-5.9,1.1-11.2,1.6-16.3,2.9-20.4,5.2-33.9,16.7-38.4,36.4-2.7,11.7-6.6,23-13.5,33.1a149.181,149.181,0,0,1-10.1,12.5c-1.7,2.1-2.3,1.9-3.9-.6m104-80.4a3.082,3.082,0,0,1,2.1,1.2c-1.5.4-3.1.9-4.8,1.3a139.282,139.282,0,0,0-33.5,12.6c-17.9,9.6-31.3,23.3-41.8,39.6-1.1,1.5-2.2,3-3.4,4.6,0,.1-.1.3-.1.4l-.3.6c.1-.2.1-.5.2-.7,0-.1.1-.2.2-.3,2.9-9.1,5.7-18.4,8.6-27.5,5.7-17.4,19.1-27.2,37.5-31.4a85.621,85.621,0,0,1,35.3-.4m-97.8,82.4c3.2-3.3,6.2-6.8,9.2-10.1,0-.2.1-.2.1-.3.6-.8.9-1.7,1.5-2.6.1-.1.2-.1.3-.2.1,0,.1-.2.2-.2-.1,0-.1.1-.2.2v.1l-.2.4c-.5.8-.9,1.7-1.4,2.5a.769.769,0,0,0-.3.2c-2.3,6.2-5.5,12-8.8,18-3.8-4.5-3.7-4.4-.4-8m2.2,11a9.17,9.17,0,0,1,.8-2.5c5.4-10.4,10.5-20.9,16.4-31.1,19-33.3,49.7-51.6,89.6-57.6,3.9-.6,8-.1,11.9-.2,8.7-.4,16.1-2.9,20.7-10.1,1.2-2,2.8-1.7,4.6-1.5l26.4,3c25.4,2.8,50.8,4.1,76.2,1.9,41.1-3.6,79-15.4,113.7-35.8,3.4-2,6.4-4.3,9.7-6.4a7.116,7.116,0,0,1,2.1-.4c-.1.6,0,1.5-.5,1.9q-3.3,3.45-6.9,6.6a263.153,263.153,0,0,1-47.3,32.6c-16.8,9.2-35.3,13.4-54.7,14.2-26.6,1.1-53.1,1.8-79.7,2.6-9.4.2-18.8-1.2-28-3-14.3-3.1-28.3-2.1-42.2.8-4.9,1-9.7,2.1-14.6,3.1-20.1,4.2-37.1,13.4-50.9,27.3-10.3,10.4-19.9,21.3-29.4,32.3-5.8,6.7-10.6,14.1-15.9,21.1a4.894,4.894,0,0,1-1.2,1.3,1.185,1.185,0,0,1-.8-.1m34.7,43.1c2.5-5.7,5-11.3,7.5-17a6.5,6.5,0,0,1,2-2.6,3.274,3.274,0,0,1,2.6-.5c.5.1,1,1.3.9,1.9a50.007,50.007,0,0,1-1.5,6.7,71.481,71.481,0,0,1-8.7,17.5c-3-1.5-3.9-3.5-2.8-6m8.2,11.1c-3.1-1.9-3.5-2.9-2-6.1,2.9-6.4,5.8-12.8,8.7-19.1v-.4s0-.2.1-.2c.1-2.1.6-4.2.3-6.3-.4-3.1-3.3-4.2-5.7-2.1a18.119,18.119,0,0,0-4.4,5.5c-2.4,4.9-4.5,10.2-6.8,15.2a10.215,10.215,0,0,1-1.8,1.8,18.285,18.285,0,0,1-1.4-2.8c-.2-.5.3-1.1.6-1.7,5.2-11.5,10.7-22.8,19.3-32.5,2.6-2.9,5.6-5.4,8.3-8.2.3.2.6.2.9.5a8.6,8.6,0,0,1-.1,1.6c-2.5,8.7-5.1,17.5-7.7,26.2a16.941,16.941,0,0,1-1.3,2.7v.2c0,.2-.1.2-.1.3-1.5,8-2.8,16.2-4.3,24.3-.4,1.5-1.2,1.9-2.6,1.1m6,4c-1.7-1.2-1.5-2.7-1.1-4.3,2.2-10.7,4.2-21.6,6.7-32.2,1.7-7.1,4.3-13.9,6.3-20.9.5-2,2.2-4.5-.2-6-2.7-1.7-4.6.9-6.2,2.4-10.5,9.6-17.8,21.4-23.6,33.8q-1.5,3.3-3.3,6.6c-4.4-3.9-4.5-3.9-1.9-7.5,7.7-10.9,15.3-21.9,23.5-32.4A116.575,116.575,0,0,1,295.4,231a24.071,24.071,0,0,1,4.7-1.8c-.1,1.7.1,3.5-.5,5a33.363,33.363,0,0,1-3.8,6.9c-3,4.4-6.2,8.6-9.5,13a64.274,64.274,0,0,0-13,38.2c-.2,9.1.3,18.3.5,27.4,0,1-.1,2-.1,4.1-3.1-2.3-5.5-4.1-7.9-5.8m10.4,3a196.069,196.069,0,0,1-.1-33.4,65.507,65.507,0,0,1,12.4-32.2c2.9-4,6-7.8,8.7-11.8a77.036,77.036,0,0,0,5.4-10.2,8.972,8.972,0,0,0,.4-4.6c-.3-2.4-2-3.3-4.3-2.3a37.911,37.911,0,0,0-3.4,2c-13.8,8.7-24.9,19.7-34.6,32-5.8,7.3-10.9,15-16.2,22.6-1.2,1.7-2.2,3.5-3.5,5-.7,1-.9,3.1-3,2.2-1.9-.8-2.8-4.1-1.6-5.6,14.5-18.6,27.1-38.7,45.5-54.4a119.274,119.274,0,0,1,48.7-25.8,21.043,21.043,0,0,1,2.4-.6c2.9-.3,4.6,1.5,3.5,4a11.333,11.333,0,0,1-2.8,3.7,81.186,81.186,0,0,1-6.7,4.8c-12.9,8.8-24.1,19-29.8,33.1a133.1,133.1,0,0,0-6,19.5c-3.3,15.5-6.4,31-7.1,46.7-.2,5-.1,9.9-.3,15.4-5.1-2.4-7.3-5.2-7.6-10.1m11.4,13.2a6.031,6.031,0,0,1-1.2-4.4c.2-8,.1-16.1,1.2-24,1.8-13.5,4.2-26.9,6.9-40.2,4.1-19.5,15.2-34.9,32.4-46.4,2.5-1.8,5.1-3.5,7.5-5.3a21.64,21.64,0,0,0,4-4,5.4,5.4,0,0,0-.2-6.6c-1.6-1.9-3.7-2.1-5.9-1.4-6.5,2-13,3.7-19.2,6.4-21.2,8.7-37.7,22.7-51.4,39.6-8.3,10.3-16.1,21-24.1,31.6-.6.7-.9,1.6-1.7,2.2-.8.7-1.8,2-2.8,2-1.3,0-3-3.7-2.5-5a7.459,7.459,0,0,1,.7-1.2c8.7-12.3,17.1-24.8,26.2-36.8a111.093,111.093,0,0,1,33.1-28.9c19.1-10.9,40-16.1,62.6-16.3a13.4,13.4,0,0,1,2,.1c3.2.5,4.4,3.4,2.3,5.5a59.706,59.706,0,0,1-6.8,5.4c-5.6,4.5-11.5,8.8-16.9,13.4-14.9,12.9-24.5,28.8-30.4,46.8-6.5,19-8.6,38.7-7.7,58.6.2,4.6.2,9.2.4,15.1a101.018,101.018,0,0,1-8.5-6.2m12.7,8.2a6.179,6.179,0,0,1-1.5-4.2c-.5-7.7-.9-15.4-1-23.2a152.689,152.689,0,0,1,3.9-35c4.7-21.6,14.5-40.9,31.3-56.6,5-4.6,10.7-8.6,16-12.9,3.3-2.6,6.8-4.9,9.7-7.9,4-4.1,2.1-8.3-3.9-9.4a34.016,34.016,0,0,0-4.5-.3c-39,1.7-70.7,16.2-93.8,45-8.1,10.1-15.1,20.9-22.6,31.4-1.8,2.6-3.6,5.1-5.6,7.8a27.578,27.578,0,0,1-1.9-2.1c-1.9-2-2.1-3.9-.2-6.1,8.8-10.6,17.1-21.5,26.1-31.8a161.47,161.47,0,0,1,38.3-31.8c4.4-2.7,9.1-5,13.8-7.3a90.151,90.151,0,0,1,36.2-9.6c11.7-.6,23.4-1.8,35.1.4,2.1.3,4.1,1,7.3,1.8-3.3,2.4-5.7,4.2-8.2,5.9-6.7,4-13.3,8.1-18.9,13.3a117.421,117.421,0,0,0-21,26.2c-6,10.1-11.6,20.3-17.2,30.6-7.7,14.3-10.6,29.8-11.1,45.6-.3,10.1.7,20.1,1.2,30.1,0,1.4.2,2.7.4,4.8a49.886,49.886,0,0,1-7.9-4.7m9.9,2.4c-2.3-17.7-2.4-35.3,1.1-52.7a81.754,81.754,0,0,1,5.2-16.8,278.148,278.148,0,0,1,24.8-44.6c8.6-12.8,19.5-23.6,33.5-31.4a63.646,63.646,0,0,0,6.9-4.6c1.5-1.1,3.1-2.1,2.6-4.1-.6-2-2.6-2.4-4.3-2.7-4.8-.9-9.6-2-14.4-1.9-11,.1-22.1.6-33,1.5a78.23,78.23,0,0,0-25.6,7.2,161.831,161.831,0,0,0-54,39.2c-9.5,10.4-18.1,21.5-27.1,32.3a13.021,13.021,0,0,0-1.5,1.8c-1.1,1.5-2,1-3-.3-2.3-3-2.4-4.1-.1-7.6,9.3-14,20.4-26.8,31.7-39.4A233.275,233.275,0,0,1,269.3,204a96.824,96.824,0,0,1,43.1-22.9c11.8-2.9,23.5-5.7,35.8-6.4,5.8-.4,11.8-.6,17.4.7,18.5,3.7,36.9,4.3,55.6,3.5,19-.9,38-1.5,57-2,26.8-.7,50.5-9.1,72-23,13.7-8.8,26.6-18.2,38.3-29.3a10.677,10.677,0,0,0,1.4-2c2.2,5.3,2.1,9.8,1.7,14.2-.1,1.4-1.3,2.9-2.3,4.1-9.2,11.4-21.2,19.7-35,25.8-17.7,7.8-36.5,11.6-56,12.3-13.1.5-26.1.5-39.1.3-17.8-.2-35,1.8-51.2,8.6-20.7,8.7-37.2,22.1-50.9,38.8-14.7,18.2-23.9,38.8-29.4,61-5,20.1-7,40.5-7.1,61.2,0,2.1-.2,4.3-.4,7-5.2-2.9-9.2-5.1-10-11.1m16.7,15.6c-3.1-1.3-4.5-3.3-4.3-6.5.3-18.6,1.4-37.2,5-55.4,6-31.1,18.6-59.4,42.3-82.5,18.4-17.9,40.2-30.4,67.5-33.4,10.2-1,20.6-.9,31-.9,18.3,0,36.5.1,54.4-3.3,15.5-3,30.1-7.7,43.5-15.4a96.289,96.289,0,0,0,22.4-18c.8-.8,1.8-1.7,2.9-2.8.5,1,.7,1.2.8,1.5.8,8.5.8,8.5-6.7,13.6-21.4,14.7-45.7,23-72.1,26.1-15.5,1.9-31.2,2.9-46.8,4.6a320.589,320.589,0,0,0-58.6,11c-10.8,3.1-21.2,7.4-30.1,13.9-12.7,9.2-21.3,21.3-28,34.6-10.4,20.5-15.7,42.4-18.2,65.1a319.18,319.18,0,0,0-1.5,45.9c0,3.1-.6,3.2-3.5,1.9m11,6.9c-3.9-2-5.5-4.8-5.6-9.1-.4-26.6.7-53,8-78.7,4.5-15.9,10.7-31.1,20.2-44.9,10.4-15.3,24.8-25.8,43.2-31.7,21.4-6.9,43.7-10.8,66.3-13,13.8-1.3,27.6-2.3,41.4-3.8,21.6-2.4,42-8.1,60.9-18,5.5-2.8,10.6-6.3,15.8-9.4,1.4-.9,2.7-1.7,4.5-2.8,1.5,3.8.8,7.3.7,10.7,0,.9-1.9,1.9-3.1,2.7C578.3,177,565,182.1,551,185.7c-24.8,6.4-50.3,9.2-76.1,9.9-16.5.5-33.2.6-49.4,3.4a105.164,105.164,0,0,0-25.6,7.8c-17.5,8-28.8,21.2-36.3,37.6-5.2,11.4-8.5,23.3-11,35.4a702.544,702.544,0,0,0-11.5,79c-.2,3.1-.3,6.2-.5,9.9-1.7-.9-2.2-1.2-2.7-1.4m5.6,3c-.8-.7-.7-2.7-.6-3.9a538.5,538.5,0,0,1,8-64.5c2.4-12.8,4.8-25.6,8.2-38.1a123.224,123.224,0,0,1,9.2-23.8c9-18.3,24.6-30,45.3-36.1,13-3.8,26.5-4.9,40-5.6,17.7-.9,35.4-1.3,53-2.8a262.424,262.424,0,0,0,47.6-8.6,134.888,134.888,0,0,0,36-15.2c1.1-.7,2.2-1.2,4-2.1.6,3.4,1,6.2,1.4,9.1.2,1.8-1.1,2.4-2.5,3.1-6.2,2.6-12.1,5.7-18.6,7.9-19.2,6.5-38.7,12-59.1,14.8-13.4,1.8-27,1-40.6.4-8.8-.3-17.7-.9-26.5-.3-39.4,3.3-66.3,22.2-80.9,55.9-4.5,10.3-6.8,21.3-8.6,32.3a466.379,466.379,0,0,0-6.5,80.9c0,.7-.1,1.5-.1,2.5-4.1-1.1-6.3-3.6-8.7-5.9m12.1,8c-.9-.6-.9-2.2-.9-3.4,0-8.5-.4-17.1.3-25.5,1.2-15.8,2.6-31.4,4.7-47,1.7-13,4.2-26,8.7-38.4,13.1-35.4,46.7-57.5,87.8-57.4,10,.1,20.1.7,30.1,1.2a174.817,174.817,0,0,0,56.3-6.4c17.6-4.8,35.1-9.6,51.3-17.5.5-.3,1-.2,1.9-.4.3,2.5.9,5,.7,7.3a4.462,4.462,0,0,1-2.5,2.9,133.971,133.971,0,0,1-13.4,4.8c-13.3,4-27.1,5-40.7,7.2-10.4,1.7-20.8,3.2-30.8,5.9-16.2,4.4-32.8,5.1-49.6,4.5a173.961,173.961,0,0,0-26,1A34.036,34.036,0,0,0,409.7,230a7.463,7.463,0,0,1-4.7,3.1c-9.9,1.9-16.9,7.5-22.5,15-5.9,8-9.5,17.2-12.4,26.6-5.2,17-7.1,34.5-8,52.2a282.152,282.152,0,0,0,2.2,54.3,30.206,30.206,0,0,1,.1,3.3,101.734,101.734,0,0,1-8.8-6.2m11.3,3.4a337.221,337.221,0,0,1-1.9-63.5,191.452,191.452,0,0,1,7.5-42.4,95.741,95.741,0,0,1,10.4-23.9c3.3-5.1,7.2-9.6,12.7-12.7,2.7-1.6,5.8-2.6,8.8-3.9a4.672,4.672,0,0,0,.5,1c-2,4.2-4.2,8.4-6.1,12.5a3.307,3.307,0,0,1-1,1.5c-11,7.8-16,18.9-19.3,30.8-8.6,31.4-9.6,63.1-4.4,95.3.4,2.6.9,5.2,1.4,7.8.5,2.4,1,4.9,1.4,7.4-6.6-1.6-9.2-4.3-10-9.9m11.9,8.3c-5.7-26.3-7.3-52.6-4-79.1,1.7-13.7,4.2-27.2,9.5-40.1a41.2,41.2,0,0,1,11.6-16c-1,5.4.1,10.8-3.2,15.9-6.1,9.6-9.3,20.4-10.9,31.5-3.7,24.6-4.1,49.2-.1,73.9,1,6,2.5,12,3.8,17.9.2,1.1.6,2.3.8,4-5.1-1.1-6.6-3.9-7.5-8m9.7,6.1a217.478,217.478,0,0,1-6.9-64.6c.6-12.7,1.7-25.4,4.5-37.7a64.96,64.96,0,0,1,8.9-22c1,6.5,3.6,11.5.4,17.6-5.6,11-7.8,23.1-8.3,35.5a258.159,258.159,0,0,0,3.5,55.5c1.3,7.6,3.9,15.2,6,22.8-4.6-.7-7-2.9-8.1-7.1m13.8,9.9c-1.3-.7-2-2.3-2.7-3.8a82.468,82.468,0,0,1-7.2-24.7c-2.7-19.2-4.2-38.4-2.6-57.6a90.168,90.168,0,0,1,6.7-27.4c.6-1.4,1.3-2.8,2.4-5.1,1.1,2.6,1.6,4.1,2.3,5.5,1.3,2.6,1,4.6-.8,7.2a22.33,22.33,0,0,0-3.8,9.8c-1,7-1.4,14.2-1.7,21.3a224.438,224.438,0,0,0,.1,23.2c1.3,18.4,7.4,35.6,17.9,51.6.5.8,1,1.6,1.7,2.9a24.849,24.849,0,0,1-12.3-2.9m18.3,4.5a8.113,8.113,0,0,1-4-3.1c-11-15.7-17.5-32.7-19.1-51.2-.6-6.3-.4-12.7-.4-19,.1-7.4.4-14.8.8-22.2.3-5.2,1.3-10.4,5.6-14.9,1.7,2,2.9,3.7,1.8,5.9-5.2,10.2-5.1,21.2-5.1,32.2,0,25.1,10.2,46.9,25.5,67.3,1.3,1.8,2.6,3.5,4.6,6.3-4.2-.5-7-.6-9.7-1.3" fill="#c05240" fill-rule="evenodd"/>
      </g>
      <g id="Group_8" data-name="Group 8" clip-path="url(#clip-path)">
        <path id="Path_10" data-name="Path 10" d="M407.1,217.1a4.126,4.126,0,0,0-1.3,3.2c-.1,1.3.5,2.6.9,4.5a58.136,58.136,0,0,0,3.1,6c.8,1.6,2.5,2.8,3.9,1.9a5.25,5.25,0,0,0,2.1-3.8c-.1-4.6-2.3-8.3-5.5-11.3a3.136,3.136,0,0,0-3.2-.5m6.4,12.3c-.7.1-1.7.2-2-.3a58.72,58.72,0,0,1-3.4-5.2c.1-1.4.2-2.8.2-4.1,1,.9,2.3,1.6,3,2.9a20.745,20.745,0,0,1,2.3,5,2.307,2.307,0,0,1-.1,1.7" fill="#c05240" fill-rule="evenodd"/>
      </g>
    </g>
    <g id="Group_10" data-name="Group 10">
      <path id="Path_12" data-name="Path 12" d="M452.5,305.2H367.8a52.92,52.92,0,0,1-52.9-52.9V167.6a52.92,52.92,0,0,1,52.9-52.9h84.7a52.92,52.92,0,0,1,52.9,52.9v84.7a53.049,53.049,0,0,1-52.9,52.9ZM367.7,116.4a51.149,51.149,0,0,0-51.1,51.2v84.7a51.128,51.128,0,0,0,51.1,51.1h84.7a51.128,51.128,0,0,0,51.1-51.1V167.6a51.213,51.213,0,0,0-51.1-51.2H367.7Z" fill="#fff"/>
    </g>
    <g id="Group_20" data-name="Group 20">
      <g id="Group_16" data-name="Group 16">
        <path id="Path_19" data-name="Path 19" d="M367.2,245.2h-3.5v10.9h-3.9V245.2h-3.5v-3.6h10.8v3.6Z" fill="#111"/>
        <path id="Path_20" data-name="Path 20" d="M376.6,256.1l-3.9-6.3v6.3h-3.9V241.6h5.5c3.1,0,5.4,2.1,5.4,4.7a4.518,4.518,0,0,1-2.5,4l3.9,5.8Zm-3.9-8.2h1.6a1.5,1.5,0,1,0,0-3h-1.6Z" fill="#111"/>
        <path id="Path_21" data-name="Path 21" d="M391.8,254.4h-5.4l-.7,1.7h-4.2l6.7-14.7H390l6.7,14.7h-4.2Zm-1.2-2.8-1.5-3.4-1.5,3.4Z" fill="#111"/>
        <path id="Path_22" data-name="Path 22" d="M410.7,241.6v14.7h-1.2l-7.5-7.2v7.1h-3.9V241.6h1.2l7.4,7.2v-7.1h4Z" fill="#111"/>
        <path id="Path_23" data-name="Path 23" d="M412.5,253.6l2.3-2.3a3.424,3.424,0,0,0,2.9,1.4c.8,0,1.6-.3,1.6-.9,0-.7-1.5-1.4-2.9-2-1.8-.8-3.4-2-3.4-4.2,0-2.5,2.4-4.3,5.1-4.3,2.2,0,3.9,1,4.5,2.5l-2.2,2.1a2.531,2.531,0,0,0-2.2-1.1c-.8,0-1.4.4-1.4.9,0,.7,1,.9,2.6,1.5,2.3,1,3.8,2.3,3.8,4.5,0,2.8-2.6,4.5-5.5,4.5A5.528,5.528,0,0,1,412.5,253.6Z" fill="#111"/>
        <path id="Path_24" data-name="Path 24" d="M434.5,245.2v2.3h4.6v3.2h-4.6v5.4h-3.8V241.6h9.4v3.6h-5.6Z" fill="#111"/>
        <path id="Path_25" data-name="Path 25" d="M449.3,254.4h-5.4l-.7,1.7H439l6.7-14.7h1.8l6.7,14.7H450Zm-1.3-2.8-1.5-3.4-1.5,3.4Z" fill="#111"/>
        <path id="Path_26" data-name="Path 26" d="M463.8,245.2h-3.5v10.9h-3.9V245.2H453v-3.6h10.8Z" fill="#111"/>
      </g>
      <g id="Group_17" data-name="Group 17">
        <path id="Path_27" data-name="Path 27" d="M369,190.4c0-22.2,12.2-36.7,31.3-36.7,18.9,0,31,14.6,31,36.7,0,22.2-12.1,36.7-31,36.7C381.2,227.1,369,212.6,369,190.4Zm43.5.1c0-11.4-4.8-19-12.4-19-7.7,0-12.5,7.6-12.5,18.9s4.8,18.9,12.5,18.9C407.7,209.3,412.5,201.8,412.5,190.5Z" fill="#fff"/>
      </g>
      <g id="Group_18" data-name="Group 18">
        <path id="Path_28" data-name="Path 28" d="M453.4,217.8c0,6.5-4.9,10.7-11,10.7-6.8,0-11.9-5.1-11.9-11.2s5.1-11.2,11.8-11.2a12.171,12.171,0,0,1,7.6,2.8l-3.1,4.3a6.912,6.912,0,0,0-4.5-1.8,5.91,5.91,0,1,0,.4,11.8c2.6,0,4.4-1.2,4.5-3.3h-4.9v-4.2h11a14.77,14.77,0,0,1,.1,2.1Z" fill="#fff"/>
      </g>
      <g id="Group_19" data-name="Group 19">
        <path id="Path_29" data-name="Path 29" d="M356.3,261.3h4.5a4.164,4.164,0,1,1,0,8.3h-1.3v3.5h-3.1V261.3Zm5.9,4.2a1.347,1.347,0,0,0-1.4-1.3h-1.3v2.5h1.3a1.215,1.215,0,0,0,1.4-1.2Z" fill="#111"/>
        <path id="Path_30" data-name="Path 30" d="M369.6,264.2v1.6h3.7v2.6h-3.7v1.7h4.5V273h-7.6V261.2h7.6v2.9h-4.5Z" fill="#111"/>
        <path id="Path_31" data-name="Path 31" d="M382.1,273.1l-3.2-5.1v5.1h-3.1V261.3h4.5c2.5,0,4.4,1.7,4.4,3.8a3.512,3.512,0,0,1-2,3.2l3.2,4.7h-3.8Zm-3.2-6.6h1.3a1.2,1.2,0,1,0,0-2.4h-1.3Z" fill="#111"/>
        <path id="Path_32" data-name="Path 32" d="M390.8,271.1l1.9-1.9a2.98,2.98,0,0,0,2.4,1.2c.7,0,1.3-.2,1.3-.7,0-.6-1.2-1.1-2.4-1.7-1.5-.6-2.8-1.6-2.8-3.4,0-2,1.9-3.5,4.2-3.5a3.806,3.806,0,0,1,3.7,2l-1.8,1.7a2.422,2.422,0,0,0-1.8-.9c-.6,0-1.1.3-1.1.7,0,.5.8.7,2.1,1.3,1.8.8,3.1,1.9,3.1,3.6,0,2.2-2.1,3.6-4.5,3.6a4.177,4.177,0,0,1-4.3-2Z" fill="#111"/>
        <path id="Path_33" data-name="Path 33" d="M404,264.2v1.6h3.7v2.6H404v1.7h4.5V273h-7.6V261.2h7.6v2.9H404Z" fill="#111"/>
        <path id="Path_34" data-name="Path 34" d="M416.5,273.1l-3.2-5.1v5.1h-3.1V261.3h4.5c2.5,0,4.4,1.7,4.4,3.8a3.512,3.512,0,0,1-2,3.2l3.2,4.7h-3.8Zm-3.1-6.6h1.3a1.2,1.2,0,1,0,0-2.4h-1.3Z" fill="#111"/>
        <path id="Path_35" data-name="Path 35" d="M432.7,261.3l-5.4,11.9h-1.4l-5.4-11.9h3.4l2.7,6.4,2.7-6.4Z" fill="#111"/>
        <path id="Path_36" data-name="Path 36" d="M433.8,261.3h3.1v11.8h-3.1Z" fill="#111"/>
        <path id="Path_37" data-name="Path 37" d="M449.1,261.3v11.9h-1l-6.1-5.9v5.8h-3.1V261.2h1l6,5.8v-5.7Z" fill="#111"/>
        <path id="Path_38" data-name="Path 38" d="M463.2,267.5a5.777,5.777,0,0,1-6.1,5.9,6.39,6.39,0,0,1-6.6-6.2A6.3,6.3,0,0,1,457,261a6.8,6.8,0,0,1,4.2,1.6l-1.7,2.4a3.946,3.946,0,0,0-2.5-1,3.265,3.265,0,0,0-3.3,3.3,3.315,3.315,0,0,0,3.5,3.3c1.4,0,2.4-.7,2.5-1.8H457v-2.3h6A1.5,1.5,0,0,1,463.2,267.5Z" fill="#111"/>
      </g>
    </g>
  </g>
</svg>
