<svg xmlns="http://www.w3.org/2000/svg" xmlns:xlink="http://www.w3.org/1999/xlink" width="208.6" height="208.6" viewBox="0 0 208.6 208.6">
  <defs>
    <clipPath id="clip-path">
      <path id="Path_3" data-name="Path 3" d="M594.1,105.7a57.7,57.7,0,0,0-57.5,57.5v93.6a57.7,57.7,0,0,0,57.5,57.5h93.6a57.7,57.7,0,0,0,57.5-57.5V163.2a57.7,57.7,0,0,0-57.5-57.5Z"/>
    </clipPath>
  </defs>
  <g id="callout3" transform="translate(-536.6 -105.7)">
    <g id="Group_1" data-name="Group 1">
      <path id="Path_1" data-name="Path 1" d="M594.1,105.7h93.6a57.7,57.7,0,0,1,57.5,57.5v93.6a57.7,57.7,0,0,1-57.5,57.5H594.1a57.7,57.7,0,0,1-57.5-57.5V163.2a57.637,57.637,0,0,1,57.5-57.5" fill="#de6046" fill-rule="evenodd"/>
    </g>
    <g id="Group_4" data-name="Group 4">
      <g id="Group_2" data-name="Group 2" clip-path="url(#clip-path)">
        <path id="Path_2" data-name="Path 2" d="M671.9,413.7a144.211,144.211,0,0,0,45.5-19.1c3.6-2.2,7-4.7,10.8-6.5a71.593,71.593,0,0,0,15.3-10.2c6.3-5.4,12.8-10.6,19.2-15.9,6.9-5.7,14.1-11.1,20.7-17.1,7.8-6.9,14.8-14.5,22.5-21.4,8-7.2,15.6-14.5,20.6-24,2.6-5.1,5.5-9.9,5.4-16.1a131.181,131.181,0,0,1,1.7-19.8,87.223,87.223,0,0,0,.3-25.5c-1.9-14.5-3.5-29-3.4-43.7a72.4,72.4,0,0,0-1.1-13.9,285.2,285.2,0,0,1-3.2-35.7,139.2,139.2,0,0,0-1.7-20.4,266.053,266.053,0,0,0-6.6-28.8C814.7,85,811,74.4,807,63.7c-1.7-4.3-4.7-8.2-7.2-12.3-1.9-3.3-4.3-6.3-6.2-9.6-3.3-5.7-7.1-11.3-13.1-14.8-8-4.8-16.1-9.2-24.5-13.2-7.8-3.7-16-6.8-23.9-10.1-3.2-1.4-6.4-2.9-9.5-4.5-5-2.7-9.9-5.9-15.1-8.5-11.2-5.6-22.4-4.9-32.8,1.2-5,2.9-9.3,6.8-14.1,10.3a41.479,41.479,0,0,0-9.3,9.4c-6.4,9-13.3,17.5-22.8,23.9-8.3,5.6-16.8,10.8-27.1,13.2-14.1,3.2-28.2,5.9-42.9,6.4a154.573,154.573,0,0,1-28-2,13.957,13.957,0,0,1-5.6-2c-7.7-4.9-16.4-7.1-25-9.9A46.318,46.318,0,0,0,483,39c-2,0-4-.1-5.9,0-6.6.5-13.2.2-19.4,1.7-10.8,2.4-22,3.9-32.4,7.4-6.9,2.3-13.3,4.8-18.3,9.8a18.193,18.193,0,0,1-3.8,2.9c-6.6,4.9-11.8,10.8-14.9,18.1-1.5,3.2-2.9,6.6-4.2,9.8a53.844,53.844,0,0,0-1.2,36.5c2.9,9,6.4,17.8,9.6,26.7a12.046,12.046,0,0,1,.8,2.7c.9,7.2,4,13.8,7.8,20.1,6.1,9.8,10.4,20.4,14,31,1.6,5.2,4.4,9.7,7.5,14.3a92.209,92.209,0,0,1,6.3,11.5c3.3,6.8,5.9,13.8,9.6,20.2a346.016,346.016,0,0,0,38,53.2c3.9,4.5,8.7,8.3,13.4,12.2,3.2,2.7,6.8,5.1,10.3,7.6,8.2,6,16.6,11.9,24.9,17.8,3.8,2.6,7.6,5,11.5,7.6,5.3,3.8,10.6,7.8,16.2,11.3,11.4,7.3,23.1,14.2,34.5,21.4,9.7,6.1,19.3,12.7,29.2,18.7,11.4,6.7,23.9,10.7,37.3,12.9,6.2-.3,12.4.6,18.1-.7M678,409c-9.7,3.7-10.3,3.5-15.8-4.9C646.4,380.4,638,354.8,638,327c0-3.9.3-7.7,2.6-11.1,1.1-1.6,2-1.7,3.3,0,1.6,2.1,2.7,3.9,1.4,6.7-2.5,5.8-2.6,12.1-2.2,18.3.4,10.4,1.5,20.7,5.1,30.8,5,14.1,13.7,25.7,27.4,33.9a21.949,21.949,0,0,1,3.5,2.4c-.7.5-.8.9-1.1,1m-15.3,1.3c-.2-.5-.5-.8-.7-1.3-1-1.7-2.1-3.4-3.1-5.1a9.426,9.426,0,0,0-1-1c0-.1-.1-.1-.1-.2-.5-.4-1-.6-1.3-1.1-15.1-20-23.9-41.9-23.2-66.3a188.6,188.6,0,0,1,1.8-19.9c.3-2.5,1.5-4.9,2.7-8.2,1.8,2.4,3.9,3.7,1.8,6.1-3.9,4.7-4.5,10.2-4.3,15.9,1,24.7,7.5,48.1,20.9,69.9a23.2,23.2,0,0,1,1.6,3.6c0,.1.2.1.2.1a10.63,10.63,0,0,1,.9,1.1c1,1.8,2.1,3.4,3.1,5.2a14.81,14.81,0,0,1,.8,1.3h.2Zm21.2-4.4c.2.1.2.6.4,1.6-1.7-.7-2.9-1.2-4.2-1.8-15.5-8.4-25.4-20.9-30.3-36.7-4.2-13.2-5-26.6-3.5-40.1a18.068,18.068,0,0,1,2-6.5c1.7,3.9,2.7,7.6,2.1,11.7-2.6,17.4.9,34,10.1,49.5A55.261,55.261,0,0,0,681.1,404c.9.7,1.9,1.2,2.8,1.9M652.6,339c2.1,6.5,5.5,12.5,6.1,19.6,1.2,15.6,9.2,28.3,21.4,39,2.6,2.4,5.3,4.7,8.6,7.5-22.9-7.8-40.9-41-36.1-66.1m43.7,62.3c-4.4,3.1-4.6,3.1-8.1.3-9.4-7.7-18.2-15.9-22.9-26.9-1.7-3.9-2.4-8.2-3.5-12.3,0-.1-.1-.1-.2-.2V362a.6.6,0,0,0-.1-.4c0,.1.1.2.2.3a.1.1,0,0,1-.1.1c0,.1.1.1.1.2.1.1.1.1.1.2a17.13,17.13,0,0,1,2,2.7,84.534,84.534,0,0,0,30.5,34.8,17.3,17.3,0,0,1,2,1.4m6.9-2.2c-2.2,1.4-4.1,1.2-6.3-.3-9.4-6.1-17.6-13.2-23.6-22.3-9.6-14.5-16.7-30-20.3-46.6a11.272,11.272,0,0,1-.3-1.8c-.1-.2.1-.6.2-1.3,2.6.8,3,2.5,3.5,4.4,5.5,21.3,16.7,39.7,33.7,55,4.2,3.6,9,6.6,13.5,9.9,1.8,1.4,1.4,2-.4,3m11.4-8.1c.3.1.4.5.7.7-.3.4-.5.9-.8,1.1-5.4,4.4-5.4,4.3-11.4.4-21.4-13.5-34-32.7-42.4-54.6-.7-1.9-1.2-3.9-1.9-6.6,4.2,2.1,7.1,4.1,9.1,7.6,5.1,8.6,10.3,17.1,15.8,25.6,6.6,10,15.7,17.6,26.6,23.4,1.4.7,2.9,1.6,4.3,2.4m6.6-2.5c-2.2,1.5-4.1,1.3-6.4,0-11.7-6.1-22-13.7-29-24.2-4.5-6.9-8.8-13.8-13.1-20.7a22.242,22.242,0,0,1-1.5-3.3c4.4,2.5,7.9,4.3,10,8,1.3,2.2,2.9,4.2,4.2,6.4a75.744,75.744,0,0,0,29.9,26.1c3.2,1.6,6.5,3.2,10.3,5.1-1.8,1.1-3.2,1.7-4.4,2.6m15.1-8.4c-5.7,4.6-7.5,4.9-14.1,1.6-5.3-2.8-10.6-5.5-15.6-8.7A60.238,60.238,0,0,1,686,350.7a.215.215,0,0,1-.2-.2l-.3-.3.3.3s.1,0,.2.2c2.6,1.5,5.2,2.9,7.7,4.6,9.9,6.6,19.9,12.7,31.5,16.6,4.7,1.5,9.4,2.9,14.7,4.6a40.552,40.552,0,0,1-3.6,3.6m6.9-10.9c1.1.8,3,2.3,2.9,2.5-1,1.6-2.3,3-4.7,2.7a17.678,17.678,0,0,1-2-.4c-11.9-3.1-23.4-7.3-33.5-14-13.7-8.8-27.5-17.7-41-26.9-11.5-7.9-20.5-17.8-25.8-30.2a239.639,239.639,0,0,1-9.6-26.1c-2.5-7.7-1.6-15.4.7-22.9A68.926,68.926,0,0,1,642,231.7c4.9-6.3,11.3-10.1,19.5-11.9,10.5-2.2,21.2-2.1,32.1-1.1-4.6.5-9.3.7-13.8,1.4-35,5-53.2,40.1-35.9,69.2,10,17,24.1,30.9,39.6,43.8,17.2,14.2,36.6,25.1,57,34.8.9.5,2,.8,2.7,1.3m66.2-52.8c-5.5,5.2-5.6,5.2-13,2.2-21.9-8.5-43.9-17-65.8-25.6a70.129,70.129,0,0,1-12.9-6.3,39.481,39.481,0,0,1-8.9-8.4c-3.6-4.7-1.6-8.2,4.6-8s12.3,1.2,18.4,2a30.526,30.526,0,0,1,5.4,1.5c-5.8-.3-10.6-.6-15.5-.7-2.8,0-6.3-.2-7.3,2.8-1.1,3.2,1.1,5.7,3.7,7.7,3.4,2.7,7.5,4,11.9,4.9,12.6,2.5,25.4,4.9,38,7.4,14.1,2.8,27.6,6.9,40.2,13.7,6.7,3.6,5.1,2.9,1.2,6.8m10.7-18.6c1.6.2,2.9,1,2,2.9-.7,1.5-1.4,2.6-3.7,1.7-5.4-2.4-11-4.5-16.5-6.7v-.5c6,.8,12.1,1.6,18.2,2.6m-27.7-4.4c-3.4-.8-6.9-1.6-10.3-2.2-9.5-1.5-18.8-2.8-28.4-4.3a21.1,21.1,0,0,1-4.8-1.2c-1.5-.6-1.5-2.2,0-2.9a6.439,6.439,0,0,1,2.8-.7,30.086,30.086,0,0,1,6,.1c10.7,1.4,21.5,3,33.1,4.7-2.9,3-.7,4.6,1.6,6.5m35.5-2.7c-2.9,5.8-2.9,5.6-9.6,4.3-4.9-.9-9.9-1.3-14.9-1.9-3.4-.4-6.9-.7-10.2-3,1.9-1.5,3.7-.9,5.4-.8,5,.4,10,1.1,15,1.1,3.8.1,7.6-.6,11.4-.9,1.1-.1,2.2-.1,3.3-.2-.3.9-.3,1.2-.4,1.4m.9-6.8c0,2.1-1.3,2.9-3.3,3.3-7.2,1.3-14.4,1.7-21.3.3,7.8-2.1,16-4.3,24.7-6.7a16.077,16.077,0,0,0-.1,3.1m1.3-10.9c0,2.7-1.3,4.4-3.9,5.7a59.456,59.456,0,0,1-31.4,5.8c-6.7-.6-13.3-1.6-20-2.4-6.5-.8-12.9-1.6-19.4-2.2a23.058,23.058,0,0,0-6.9.6c-1.9.3-3.5,1.6-3.1,3.6a6.237,6.237,0,0,0,2.7,3.5,18.452,18.452,0,0,0,5.8,1.6c11.2,1.8,22.5,3.5,33.7,5.5a109.875,109.875,0,0,1,28.2,8.7c1.2.5,3.1,2.1,2.9,2.4a17.9,17.9,0,0,1-3.4,4.4c-.3.2-1.6-.2-2.2-.6-19.8-11.3-42-15.8-64.3-19.7-6.5-1.2-12.9-2.4-19.3-3.7-3.8-.8-7.5-2.1-10-5.1A6.139,6.139,0,0,1,718,277c.1-.6,2.4-1.4,3.8-1.4,4-.1,8-.1,12,.2,8.8.7,17.6,1.5,26.6,2.2,22.5,1.6,43.8-2.6,64-11.4,1.8-.7,3.5-1.5,6-2.6-.2,3.4-.4,6.2-.3,9m-2.5-10.3a139.717,139.717,0,0,1-63,13.7,149.313,149.313,0,0,1-14.9-1.1c28.8-.8,55.3-9,81.5-19.3,1.1,3.5-.6,5.3-3.6,6.7m4.4-13.6c.4,2.2-.3,3.5-2.4,4.4a113.291,113.291,0,0,1-10.6,5,290.586,290.586,0,0,1-52.3,13.3c-10.7,1.6-21.3.5-31.9-1.2-6.6-1.1-13.3-1.8-20-2.4-3.9-.4-8.1-.3-10,3.5-1.7,3.6.8,6.5,3,9.4,4.7,6.1,11.3,9.8,18.6,12.6,16.4,6.5,32.9,12.8,49.4,19.2,8.3,3.2,16.7,6.5,25.6,9.9-3,4.3-6.7,7.5-10.2,10.9-.6.5-2.3.4-3.3.1-4.4-1.5-8.8-2.9-13.1-4.8-14.1-6.4-28.1-13-42.2-19.4a86.767,86.767,0,0,1-31.2-24.2c-2.1-2.8-4.5-5.5-6.6-8.3-3.7-5-2.7-8,3.1-10.7a51.947,51.947,0,0,1,22.8-4.5c12,.2,24.1.5,36.1.8a104.845,104.845,0,0,0,37.7-5.9c11.8-4.2,23.6-8.2,34.7-13.9a15.594,15.594,0,0,1,2.1-.6c.3,2.5.3,4.7.7,6.8m-1.4-13.8c.7,2.8-.3,4.7-3.2,5.9-6.8,2.8-13.4,6.1-20.3,8.7-7,2.6-14.3,4.9-21.5,7.2-11,3.4-22.6,3.6-34.1,3.3-10.4-.2-20.8-.8-31-.6a104.369,104.369,0,0,0-16.8,2.2c-3.2.6-6.2,2.2-9.1,3.7-6.2,3.5-6.7,6.7-2.2,12.2,3.1,3.8,6.4,7.6,9.6,11.5,1.3,1.4,2.6,2.8,4,4.2,7.6,8.1,16.9,13.8,27.2,18.6,11.3,5.3,22.5,10.6,33.9,15.7,6.7,3,13.5,5.6,20.7,8.6-1,1.1-2,2.1-2.8,3.1-1.2,1.4-2.7,1.5-4.4.9-29.4-10.9-58.1-22.9-81.8-43.4a120.27,120.27,0,0,1-13.1-13.6,25.529,25.529,0,0,1-5.9-13.3c-.9-6.7,1.9-12.2,8.7-14.5a68.544,68.544,0,0,1,15.5-3c20.3-1.2,40.7-1.6,61-3.1a163.009,163.009,0,0,0,62.8-17,17.076,17.076,0,0,1,2.1-.7,25.286,25.286,0,0,0,.7,3.4m-2.1-5.5c-2.1,1.2-4.3,2.3-6.5,3.3-18.6,8.7-38.6,13.3-59.4,14.7-16.3,1.1-32.7,1.6-49,2.3-4.8.2-9.7.5-14.5.9a48.6,48.6,0,0,0-8.3,1.6c-11.1,3.2-15.8,11.8-12.1,22.2,3.2,8.9,9.3,15.9,16.6,22.1a188.827,188.827,0,0,0,27.9,19.6c16.8,9.9,34.8,17.4,53,24.5,1.6.6,3,1.2,5.5,2.2-2.8,2.1-4.7,3.7-6.7,5.4-1.4,1.2-2.7.8-4.1.1-4.6-2.1-9.3-3.9-13.7-6.3-22.2-11.7-43.7-24.3-63.5-39.4a142.413,142.413,0,0,1-15.2-13.7,31.088,31.088,0,0,1-7.3-13.3c-3.1-11.2,1.4-21.2,12-26.8,5.8-3.1,12.3-4.7,18.9-5.7a374.606,374.606,0,0,1,53.9-3.7c24.7,0,47.9-5.5,70.3-14.2.9-.4,2.3-.8,3-.3.8.6.4,3.6-.8,4.5m-4-6.2c-21.9,8.4-44.6,14-68.8,14.1a384.192,384.192,0,0,0-50.4,2.9c-7.1.9-14.1,2.2-20.6,5.2-7.7,3.6-13.7,8.5-16.1,16.6a25.4,25.4,0,0,0,.8,16.1A39.15,39.15,0,0,0,680.7,295c7.2,6.1,14.6,12.2,22.4,17.7a466.061,466.061,0,0,0,55,32.7c2.2,1.1,4.5,2.1,6.7,3.3,2,1,3.9,2.2,5.8,3.3-2.4,1.8-4.6,3.8-7.2,5.4-.9.4-2.8-.5-4.2-1.1A269.62,269.62,0,0,1,709,327.1c-13.4-9.8-25.7-20.7-35.7-33.8-5.8-7.7-9.7-16.1-10.3-25.6-.8-12.4,6.3-23.2,18.8-27.6,7.2-2.6,14.8-3.6,22.5-4.1,17.4-1,35-1.7,52.5-2.8,19.3-1.2,38.1-4.1,56-10.9,3.9-1.4,7.6-3.2,11.3-4.8,1.3-.6,2.6-1.2,4-1.8,1.2,5.7,1.2,6.1-3.6,7.9m2.7-10.5c-.6.9-2.1,1.4-3.2,2-12.3,6.4-25.6,10.2-39.4,12.8-18.5,3.3-37.4,3.9-56.3,4.9-11.5.6-23,1.4-34.4,2.4a53.682,53.682,0,0,0-12.6,2.9c-13.4,4.5-20.5,14.3-20.5,27.6,0,10.3,3.6,19.6,9.7,28.1,7.3,9.9,16.4,18.4,26,26.4a267.848,267.848,0,0,0,59.4,37.3,3.925,3.925,0,0,1,1.3.6c.9.8,2.4,1.7,2.3,2.3-.2,1.9-3.2,3.1-5,2.4a13.927,13.927,0,0,1-1.3-.6c-23.5-12.4-46.3-25.9-65.8-43.6a156.621,156.621,0,0,1-33.6-43.9c-2.7-5.1-4.5-10.5-3.6-16.8.5-4.5,3.2-8.6,7.3-11.6a75.83,75.83,0,0,1,12.9-7.7c14.5-6.7,30.2-9.4,46.3-10.3,12.4-.7,24.7-1,37.1-2.1a243.94,243.94,0,0,0,67.8-16,16.233,16.233,0,0,1,2.8-1.1,16.054,16.054,0,0,1,3.1,0c.1,1.4.3,2.9-.3,4m-.4-7.7c-.7.9-2.2,1.2-3.5,1.7a249.306,249.306,0,0,1-83.1,18c-13.8.7-27.7,1.7-41.5,3.1-11.8,1.2-22.9,5.1-33.4,10.3a52.53,52.53,0,0,0-9.7,6.4c-7.1,5.7-9.5,13.1-7,21.7,2.7,9.3,7.7,17.7,13.2,25.7,15.4,22.6,36.3,39.9,60.2,54.5,9.1,5.6,18.7,10.7,28,16,1.3.7,2.5,1.5,3.8,2.3-3.6,4.2-4.1,4.5-7.8,2.8-25.8-11.8-50-25.6-70.5-44.6a198.619,198.619,0,0,1-25.1-27.6c-6.4-8.5-10.6-17.7-10.9-28.2-.7-21.6,15.4-40.7,38.2-45,9.5-1.9,19.2-1.7,28.9-1.2a214.874,214.874,0,0,0,53.8-3.9c16.5-3.1,32.8-6.9,49.1-10.6,5.2-1.2,10.1-3.3,15.1-4.8a5.708,5.708,0,0,1,2.6,0c0,1.3.4,2.7-.4,3.4m.6-8.9c.7,1.4-.3,2.3-1.7,2.8a83.917,83.917,0,0,1-8.8,3.3c-12,3.1-23.9,6.1-36.1,8.8-18.4,4.1-37.1,7.4-56.3,7.9-6.8.2-13.5-.2-20.4-.3a.1.1,0,0,0-.1.1h-.3c-1.6,0-3.3-.1-5-.1,0-.2.1-.4,0-.6,1.6.2,3.2.5,4.9.7a.367.367,0,0,1,.3-.1h.1a6.4,6.4,0,0,1,1.7-.5c11,.1,21.6-1.9,32-4.5,15.2-3.7,30.7-6,46.2-8,13.9-1.8,27.5-4.2,40.5-9.6,1-.3,2.8-.2,3,.1m-16.7-74.8c-34.8,21.6-73.3,34-115.3,37.7a341.01,341.01,0,0,1-63.1-.4c-12.2-1.2-24.4-2.4-36.5-3.6a23.626,23.626,0,0,1-4.5-.8,2.215,2.215,0,0,1-1.3-1.9c.3-3.2.9-6.4,1.3-9.6.3-2.3,1.9-1.6,3.3-1.3,10.1,1.7,20.1,3.8,30.2,4.9,42.3,4.7,83.9,2.5,124.7-8a187.766,187.766,0,0,0,62.6-29.5c1.4-1,2.8-2,4.8-3.3,1.9,11.4,4.4,9.2-6.2,15.8m5.5-20.9c.6,2.2-1,3.1-2.4,4.2a202.875,202.875,0,0,1-34.4,20.2c-23.6,10.9-49,16.2-75.1,19.2a346.264,346.264,0,0,1-108.4-4.6c-1.6-.3-3.9-.7-4.5-1.6-1.1-1.8-1.2-4.1-1.5-6.3,0-.3,1.2-1,1.8-1,2,.3,3.9.8,5.8,1.2,25.1,4.6,50.3,6.2,75.6,5.9,15.7-.2,31.4-.8,46.9-3.1,20.7-3.1,40.5-8.7,58.4-18.9a106.7,106.7,0,0,0,31-25.6c.7-.9,1.4-1.6,3.1-3.4,1.5,5.4,2.5,9.7,3.7,13.8m-5.8-17c.1,1.3-.9,2.9-1.8,4A99.481,99.481,0,0,1,774.5,116c-18.4,9.6-38.4,14.4-59.2,17.2a336.627,336.627,0,0,1-55,2.3c-12.8-.4-25.7-1-38.5-2.3-10-.9-19.9-3-29.8-4.5a8.373,8.373,0,0,1-2.8-.9c-.4-.2-.6-1.1-.7-1.6a1.868,1.868,0,0,1,1.1-.6c2.7.1,5.4.1,8.1.3,32.1,1.6,64.2,3.2,96.3.8,16-1.3,31.8-3.5,47-8.1a132.048,132.048,0,0,0,57-34.1c2.6-2.6,5.2-5.1,7.8-7.6a15.8,15.8,0,0,1,2.2-1.6c.9,3.1,2,5.8,2.4,8.5m-5.3-9.6c-24.1,26.2-53.7,43.8-91.6,48.3a472.856,472.856,0,0,1-70.4,3.1c-17.7-.5-35.2-1.5-52.8-2.2-2.6-.1-4.4-.7-5.4-3.2-.8-2-2.2-3.8-4-6.7,2.7.4,4.3.7,5.9.9,15,1.8,30,3.9,44.9,5.4,21.4,2,42.4.4,63.3-3.5,21.8-4,42.7-10.5,63.3-18,7.8-2.7,14.6-7.2,20.9-12.3,6.1-4.9,11.9-10.2,17.9-15.3.9-.8,1.6-1.6,2.5-2.3,1.7-.8,3.4-2.3,5.1-2.2,1.5.1,1.8,6.4.4,8M803,61.8a1.287,1.287,0,0,1-.1,1.2,4.618,4.618,0,0,1-.7.7c-6.4,5.5-12.9,11-19.2,16.6a92.419,92.419,0,0,1-33.2,18.8c-26.5,8.7-53.5,16-81.8,18.3a236.744,236.744,0,0,1-47.6-.9c-12.5-1.5-25-3.3-37.4-4.9a46.435,46.435,0,0,1-5.1-1.1c.1-.4.1-1,.2-1.4l11-.3c15.2,0,30.4.8,45.6-.3,14.6-1,29.3-1.2,43.9-2.3a146.6,146.6,0,0,0,40.5-9.4c10.8-4,21.7-7.7,33.1-10,8.8-1.7,16.5-5.8,23.9-10.1,6.3-3.7,12.3-7.7,18.6-11.5,2.3-1.3,4.5-2.5,6.9-3.6.3-.3,1.1,0,1.4.2m-198.1,44a31.288,31.288,0,0,0,8-2,3.162,3.162,0,0,0,1.7-2.5c-.1-.7-1.4-1.7-2.4-2-1.8-.5-3.6-.5-6.1-.9,5.1-1.6,9.4-3,14.6-4.6-1.4,2.9-3.7,5.3-1.6,7.7,1.7,2,4.2,3.3,7,5.4-6.8,0-13.1.1-19.6.1-9.5,0-19.1-.1-28.5-.2-2.7.1-4.9-.3-6.1-2.8,4.9-.6,9.7-1.2,14.4-2s9.4-1.9,14.4-2.9c-2.7,4.9-1.1,7.1,4.2,6.7m6.5-4c-3,2-6,1.9-8.9,1.9-.3,0-1-.6-1-.9.2-.5.5-1.2,1.1-1.3,2.7-.6,5.4-1.1,8.8.3M764.6,21.1c1.2.6,1.2,1.4.3,2.2-1.7,1.4-3.2,3-5.1,4.4-4.6,3.6-9.4,7.2-14.1,10.8a42.706,42.706,0,0,1-4.4,3c-.6.3-1.9.6-2.2.3-.7-.6-.7-1.6-1-2.2,1.3-2.8,2.2-5.5,3.6-7.9,2.8-4.8,6-9.6,9-14.3a2.785,2.785,0,0,1,3.7-1.3c3.4,1.6,6.7,3.3,10.2,5m-17.2-7.5c2.1.8,1.6,1.8.7,3.2-2.9,4.7-5.9,9.3-8.5,14.1a45.142,45.142,0,0,0-3.8,9.4c-.3,1.1.1,3.1,1,3.7.9.7,2.9.5,4,0a38.688,38.688,0,0,0,7-4.3C754,35,759.9,30.2,766,25.5c.6-.5,1.3-1.5,1.9-1.5a10.8,10.8,0,0,1,3.5,1c.2.1-.1,1.6-.7,2.1a8.486,8.486,0,0,1-2.5,2.1q-18.15,12.45-36.5,24.7a21.073,21.073,0,0,1-5.3,2.4c-3,.8-4.6-.8-4.1-4.1a25.7,25.7,0,0,1,1.9-3.6c8-9.8,12.1-21.5,18.1-32.2a6.809,6.809,0,0,0,1-2.1c.9-2.1,2.6-1.3,4.1-.7m-12-5.1c8.2,3.6,7,2.6,3.9,9.3-3.2,6.8-6.6,13.4-10.1,20-1.4,2.7-3.6,5.1-5.3,7.7-1.4,2.3-3,4.4-3.9,6.9-1.1,3.3,1,6,5.4,6.5a12.482,12.482,0,0,0,3.6-.8,22.887,22.887,0,0,0,5.6-2.9Q753.65,42,772.7,28.7c2.6-1.8,7.9-.3,8.5,2.7.1.5-.8,1.2-1.4,1.5-2.5,1.5-5.2,2.7-7.7,4.2a47.1,47.1,0,0,0-6.4,4.2c-10.2,8.5-22.2,14.5-34.2,20.3-5.5,2.7-11.6,4.3-17.6,6.3a16.78,16.78,0,0,1-3.9.7c-2.4,0-3.3-1.2-2.5-3.3a25.427,25.427,0,0,1,2.9-5.4c8.4-9.9,12-21.8,16.4-33.4,1.8-5.1,2.5-10.5,3.7-15.7.7-3.9.9-4,4.9-2.3m-11.1-5A16.936,16.936,0,0,0,727,4.8a2.2,2.2,0,0,1,1.6,2.9c-.5,2.1-.9,4.2-1.3,6.4-3.4,14.5-8.1,28.5-16.9,41.1a48.3,48.3,0,0,0-5.3,9.4c-2.1,4.3-.1,6.6,4.9,6.2a22.761,22.761,0,0,0,6.4-1.3c7.2-2.7,14.5-5.3,21.4-8.6,10.9-5.4,21.5-11.4,30.9-19,3.8-3,8.7-5,13.2-7.3,2.4-1.1,3.1-.4,5.3,2.7,1.4,2.1.2,2.7-1.2,3.7a261.027,261.027,0,0,1-59.3,31.5c-3.7,1.3-7.6,2.2-11.4,3.2-6.9,1.7-13.8,3.3-20.7,5-1.5.3-2.8,1-4.4,1.1-1.1-.1-2.4-.6-3.5-.8.4-.9.8-1.9,1.3-2.8a3.567,3.567,0,0,1,1.1-1C704.3,64.5,712.2,48,716,29.6c1.7-8,2.9-16.1,4.5-24.1.6-3.2.7-3.2,3.8-2m-5.6-1.2c-.9,4.7-1.8,9.4-2.8,14.1a3.554,3.554,0,0,0,1,.2C714,26.7,711.7,37,708.4,47c-3.8,11.2-11.5,20.4-20.6,28.4a17.212,17.212,0,0,0-3.4,3.8c-1.4,2.6-.4,4.2,2.7,4.6a13.683,13.683,0,0,0,4.5-.3c13.4-3.9,27.8-5.1,40.7-10.7,15.8-6.7,31.6-13.5,45.3-23.8,3.2-2.4,6.9-4.3,10.2-6.4,1.4-.9,2.4-.8,3.2.7,4.2,7.5,5.4,5.6-2.1,10.1-3.6,2.2-7,4.6-10.5,6.8-16.8,10.5-34.2,19.3-54.8,22.3a64.043,64.043,0,0,0-17,5.1,71.985,71.985,0,0,1-12.2,3.8c-9.2,2-18.5,3.7-27.8,5.2a79.746,79.746,0,0,1-12,.7,7.639,7.639,0,0,1-3.3-.8c-2.7-1.2-3.1-2.8-1-4.8a24.752,24.752,0,0,1,5.1-3.7c4.9-2.7,10-5.4,15-8.1,3-1.6,6.1-3.3,9-4.9,15.1-8.9,24.1-21.8,27.6-37.9,1.5-7.6,1.9-15.4,2.8-23,.6-4.6,1-9.2,1.7-13.8.2-1.3,0-3.4,2.5-3.2,2.2.2,5,3.3,4.7,5.2m-8.9-5c-3.1,8.3-1.8,17.1-3,25.7a150.183,150.183,0,0,1-4.9,22.1c-3.3,10.3-10,18.7-19.6,24.8-8,5-16.5,9.6-24.7,14.4a77.4,77.4,0,0,0-8.3,5.2c-4.8,3.9-3.8,8,2.4,9.4a31.262,31.262,0,0,0,11.4.4c11.2-1.7,22.3-3.9,33.3-6.2a45.619,45.619,0,0,0,10.3-3.2c6.3-3.1,13-4.4,19.9-5.7a122.025,122.025,0,0,0,19.1-5.1C757,74.7,768.1,69.8,778,63c4.9-3.3,10-6.5,15.1-9.6,3.1-1.9,3.2-1.8,5.5,1.2.6.8,1.1,1.5,1.8,2.3.9,1.3.8,2.1-.8,3-11,6.4-21.9,13.1-33.2,19.2a72.155,72.155,0,0,1-16.7,6,219.712,219.712,0,0,0-30.2,9.2c-17.9,7.3-36.9,10.1-56.5,10.4-9.6.1-19.1,0-28.6-.1a38.237,38.237,0,0,1-6.9-1c-2.7-.4-5.7-.8-6.6-3.7-.7-2.7,1.6-4.3,3.5-5.6,4.8-3.1,9.6-6.1,14.5-8.7,7.8-4.1,15.9-7.5,23.6-11.9a165.393,165.393,0,0,0,17.9-11.5c14.8-11,22-25.7,23.7-43.2.3-7.6.5-15.2.8-22.8.1-1-.6-2.8,1.5-2.7,2.3.1,4.1,2.1,3.4,3.8m-7.2-3.9c0,12.8-.4,25.7-3.6,38.2-3.5,13.7-12.4,24.1-24.5,32A252.515,252.515,0,0,1,649.6,78c-9.7,4.9-19.7,9.4-29.9,13.6-6.2,2.5-12.9,3.8-19.5,5.5a161.353,161.353,0,0,1-17.1,3.3,72.47,72.47,0,0,1-12.4.8c-2.2,0-4.3-1.1-6.5-1.7.1-.4.1-.9.2-1.2,1.2-.3,2.5-.5,3.7-.7a125.76,125.76,0,0,0,27.3-5.4q25.35-7.95,50.9-16.1c.2-.1.3-.1.4-.2,29.6-8.9,43.9-29.6,50.2-56.3a68.407,68.407,0,0,0,1.2-25.9c-.1-1.1-.8-2.6,1.1-3a2.8,2.8,0,0,1,2.341.542A2.8,2.8,0,0,1,702.6-6.6m-6.8.4c2.9,23.5-4.1,44.4-19.7,62.6-7.2,8.5-17,13.5-27.9,16.9-19.3,6.1-38.7,12.2-58,18.1a102.683,102.683,0,0,1-27.6,4.4c-2.8.1-5.7,0-8.4-2.2,11.3-2.5,22.1-4.6,32.9-7.4,14.5-3.5,29-7.1,42.7-12.6,17.5-7,33.2-16.1,45.5-29.7,12.8-14.2,19.5-30.7,18.5-49.8a25.018,25.018,0,0,1,.6-3.8c.4,1.2,1.3,2.2,1.4,3.5m-248,51.1c8.7-1.4,17.3-3,26.1-3.7a52.14,52.14,0,0,1,18.8,1.5c7.6,2.2,15.5,3,22.6,6.5a22.126,22.126,0,0,1,6,3.7c-.9,0-2.1.2-3.1.1-6.1-.9-12.3-1.7-18.4-2.7-25.1-3.9-36.1-6.1-64-2.9,4-.8,7.9-1.8,12-2.5M392.1,77c1.6-2.1,2.8-4.1,4.4-6,8-9.8,18.8-15.6,31.6-18.6,16.8-3.9,33.8-5.3,51.2-2.9,8.1,1.2,16.3,2.3,24.4,3.6A258.177,258.177,0,0,0,545.6,57c10.3-.1,20.6-1.4,30.9-2.2,2.7-.2,5.3-.6,7.9-.7a78.111,78.111,0,0,0,34.1-9.2,109.981,109.981,0,0,0,24.7-18.3c4.7-4.8,8.4-10.3,12.5-15.5,4-4.7,7.9-9.3,13.6-12.4a3.494,3.494,0,0,0,1.3.5c-1.1,3.2-2,6.5-3.4,9.6-9.6,21.2-26.7,35-49.8,42.7-11.3,3.7-23.1,5.7-34.9,7.5-20.3,3.1-40.5,5.9-61.2,5.2-13.1-.3-26.1-1-39.2-1.4-16.9-.6-33.7-.6-50.5,2.2a141.774,141.774,0,0,0-34.5,10.4c-1.3.6-2.7,1.3-4,1.8,0,.1-.1,0-1-.2m-1.8,5.3c.7-1.3,2.7-2.1,4.2-3,15.9-8.1,33.1-12.3,51.3-13.8a309.973,309.973,0,0,1,45.2-.1c41.1,2.9,81.5-.1,121-10,26.6-6.8,46.2-21.7,57.3-45.4,1.6-3.5,2.3-7.3,3.7-10.9a15.173,15.173,0,0,1,2.5-4.3c.5-.6,1.8-.5,2.6-.8.2.8.6,1.5.7,2.2-.8,17.1-7.3,31.5-22,42.2-10.1,7.4-21.6,12.4-33.5,16.9-13.2,4.9-26.5,9.7-40,14.1-15.5,5.1-31.6,5.7-48,4.1-17-1.6-34-3.3-51.2-2.1-34.7,2.4-66.9,11.8-96.3,28.5-.9.5-1.7.8-3.4,1.7a44.212,44.212,0,0,1,5.9-19.3m-6.7,30.1c0-1.2,0-2.5-.1-3.6-.1-2.8,1.1-4.5,3.7-6A210.187,210.187,0,0,1,451.7,78a223.8,223.8,0,0,1,71.7-3.5c9.1,1,18.3,1.5,27.5,1.7a101.529,101.529,0,0,0,32-4.5,442.8,442.8,0,0,0,56.4-20.9A125.113,125.113,0,0,0,659,39.3C670.7,31,677.8,19.8,679.9,6c.5-3.3.9-6.8,1.2-10.1a8.626,8.626,0,0,1,.4-2.8c.3-.7,1.2-1.1,1.9-1.6.3.6,1,1.2,1,1.8a41.416,41.416,0,0,1,.1,6.1c-.1,1.9-.5,3.7-.7,5.5a55.324,55.324,0,0,1-18.6,34.8C648.6,55,628.4,65.1,606.5,72.4c-20,6.6-40.8,8.6-62.1,7.9-19-.5-38.1-1.6-57.2-1.6q-56.25.3-99,33.5c-.6.5-1.3,1-1.9,1.5-1.8,1.2-2.4,1-2.7-1.3m4.8,2.5c28.1-22.4,61-33.7,98.3-34,16.4-.2,32.8.8,49.2,1.3,17.6.7,35.2.6,52.4-2.9C618.3,73,645,60.8,667,41c14.1-12.6,20.4-28.4,20.1-46.6,0-.4-.1-1-.1-1.4-.2-1.5.1-2.8,2.2-2.9,2,0,1.9,1.5,2.1,2.6a56.162,56.162,0,0,1-2.5,23.4c-5.5,17.2-16.8,30.5-32.1,41-12.7,8.8-27.1,14.8-42.2,19.5a534.582,534.582,0,0,1-61.8,14.8,24.25,24.25,0,0,1-8.9-.3c-6.4-1.3-12.9-2.4-19.3-3.1-12.1-1.3-24.3-2.5-36.5-3.5a67.626,67.626,0,0,0-26.5,3.2c-8.3,2.7-16.7,5.5-25.1,7.8-17.3,4.8-31.6,14-44.6,25.2-1.5,1.3-3.1,2.7-4.9,4.4-3.1-6.2-3-6.6,1.5-10.2m4.5,28.4c.5-.4.8-1,1.3-1.3,19-12.6,39.2-23,62.4-27.7,22.1-4.4,43.9-3.5,65.1,5a26.743,26.743,0,0,1,4.5,2.2c.7.4,1.3,1.2,1.2,1.8a2.453,2.453,0,0,1-1.7,1.2,31.829,31.829,0,0,1-6.9,0c-8-1.1-16-2.4-23.8-3.5a109.147,109.147,0,0,0-50.8,5c-13.2,4.6-26.5,9.1-39.7,13.7-3.1,1.1-6,2.6-9,3.9a14.342,14.342,0,0,1-2.2.4,1.612,1.612,0,0,1-.4-.7m2.7,3.2h.3a11.41,11.41,0,0,0,1.1-1.1c.8-.1,1.5-.2,2.2-.3a5.243,5.243,0,0,0,1.1-1c1-.4,2.1-.9,3.1-1.4a20.024,20.024,0,0,1,2.4-.4,10.942,10.942,0,0,1,1.1-1c.8-.1,1.5-.2,2.3-.3a27.542,27.542,0,0,1,2.9-1.7,20.027,20.027,0,0,1,2.4-.4c1.7-.7,3.4-1.5,5.1-2.3,1.5-.3,3-.7,4.4-1a18.657,18.657,0,0,1,2.2-.7c.1,0,.2-.1.3-.1.6-.3,1.1-.8,1.7-1.1,9.3-2.9,18.6-5.8,27.9-8.5,13.2-3.7,26.7-3.3,40.3-1.7,6.8.8,13.5,2.3,20.3,3.1a39.717,39.717,0,0,0,10.9-.1c4.2-.8,4.6-3.1,1.2-5.7a23.608,23.608,0,0,0-5.2-2.8c-20.1-8.3-40.9-9.9-62.1-6.4-23,3.7-43.3,12.8-62.2,24.7-2.1,1.3-4.2,2.6-6.2,3.8a3.329,3.329,0,0,1-1.4.1c.1-.5-.1-1.2.2-1.5,9.9-7.6,18.7-16.7,30.9-21.4,13.6-5.4,27.2-10.9,42.3-11.8,22.9-1.4,45.6.7,67.5,7.9a73.831,73.831,0,0,1,26,14.1,29.617,29.617,0,0,1,6.6,7.6c4.1,7.1.4,13-8,14.1-5.6.7-10.6-1.1-15.7-2.7-3.9-1.3-7.8-3.1-11.6-4.8-31.1-13.2-63-15.7-95.7-8.3a72.688,72.688,0,0,1-7.9,1.4c-.1,0-.2.2-.3.2l-2.1.6c-1.4.3-2.9.8-4.4,1.1-1.6.7-3.3,1.5-5.1,2.3a15.72,15.72,0,0,0-2.3.4,24.773,24.773,0,0,0-2.9,1.7,20.021,20.021,0,0,1-2.4.4,9.959,9.959,0,0,0-1.1,1c-.7.1-1.5.3-2.3.4-1.1.5-2.1.9-3,1.4a10.952,10.952,0,0,0-1.1,1,20.683,20.683,0,0,1-2.2.4,5.241,5.241,0,0,1-1.1,1h-.3c-.1.1-.2.1-.4.2.1-.3.2-.4.3-.4m.5,5c-.7-1.4-.3-2.3,1.2-2.9a21.018,21.018,0,0,0,2.6-1.3c3.5-1.4,7-3.1,10.4-4.4,19.2-7.3,39.2-11.7,60.2-11.8a139.688,139.688,0,0,1,59.4,12.6,113.636,113.636,0,0,0,16.9,6.1,40.2,40.2,0,0,0,12.5,1c7.2-.6,10.7-5.1,10-11.8-.7-4.9-3.6-8.7-7.2-12.2a64.5,64.5,0,0,0-20.2-12.3,164.633,164.633,0,0,0-84.1-10.6c-13.5,1.7-25.7,7.2-38.1,12-1.2.4-2.5.8-3.8,1.2-.1.2-.3.1-.3.2-.3.3-.8.5-1,.8-.5.3-.7.6-1.1.8-.4.3-.7.5-1.1.8-.3.3-.8.6-1.1.9l-1.2.9h-.3q-9.3,7.35-18.9,14.7a2.092,2.092,0,0,0-.6-.4c.1-.4.1-1.1.5-1.4,5.7-4.1,11.3-8.3,17.1-12.4.4-.4,1.2-.4,1.9-.5a.349.349,0,0,0,.2-.1c.5-.3.9-.6,1.3-.8a8.12,8.12,0,0,0,1-.9,11.457,11.457,0,0,0,2.2-1.6,2.589,2.589,0,0,0,1.1-.7.758.758,0,0,0,.4-.2c7.3-5.6,15.8-9.4,24.4-13.2,10.8-4.7,22.3-5.6,34.1-6,6-.2,12.1-.4,18-.9,15.5-1.6,30.3,1.1,44.8,6.5,9.9,3.7,19.5,7.8,27.8,14.1,7.9,6.1,14,13.3,14.9,23.1,1.1,11.3-6.6,19.1-18.7,19.2-9.5,0-18.6-2.6-27.6-5.5s-17.9-6.3-26.9-9.5c-24.7-8.8-49.7-9.4-75.1-3.9A155.1,155.1,0,0,0,399,152c-1.1.5-2.1,1.2-2.9-.5m1.6,5.8c-1.3-1.9.7-2.5,2.2-3.2,23.7-10.9,48.7-16.3,75.6-13.7,15,1.4,29.1,6.1,43.2,11.2,8.3,3,16.7,5.8,25.3,8.1a74.475,74.475,0,0,0,16.4,2.2c15.3.4,24.7-10.4,21.6-24.4-1.9-8.2-7-14.4-13.6-19.9-9.3-7.7-20.2-12.4-31.6-16.5-3.9-1.4-8-2.6-12-3.8-9.6-3-19.4-3.2-29.3-2.5-10.6.7-21.4,1-32.1,1.7a76.685,76.685,0,0,0-27.6,7.2,225.8,225.8,0,0,0-41.2,24.9,26.1,26.1,0,0,1-2.7,1.9c-1,.6-2.3,1.5-3.3,1.3-1.2-.2-1.2-3.4-.3-4.6a4.348,4.348,0,0,1,.6-.7c11.8-10.9,24.5-20.7,40.5-26.1,11.9-4,23.8-7.6,35.8-11.5a53.629,53.629,0,0,1,20.7-2.1c14.7,1.2,29.4,2.5,44.1,4,11.9,1.3,23.4,4.3,33.6,10.8,14.3,9.1,23.3,21.3,24.9,37.4a42.563,42.563,0,0,1-1.1,13.3c-1.5,6.8-6.5,10.8-13.4,13-6.7,2-13.6,1.4-20.5.7-4.8-.5-9.6-1.3-12.9-1.8-17.3-3.6-33.1-6.8-48.8-9.9-17.8-3.5-35.7-6.3-53.9-5.7-12.9.4-25.2,2.8-36.5,8.5-1,.3-2.4,2-3.7.2m6.9,2.8c-1.3,1.8-2.5,3.7-3.9,5.6-.6-3.1,1-4.7,3.9-5.6m.9,2.6c3.7-4.5,11.2-8.2,18.4-8.7-9.1,5.9-14.7,13.5-16.6,23.5-5.9-6-6.2-9.4-1.8-14.8m13.8,45.2c-3.2-7.9-6.2-15.8-9.3-23.7a9.286,9.286,0,0,1-.6-3.7c.3-14.4,14-27.6,29.6-28.6a1.412,1.412,0,0,1,.9.1s0-.1.1,0l.1-.1-.2.2h0c-18,7.3-21.9,23.9-19.3,36.5a53.263,53.263,0,0,0,4.4,13.3c2.6,5,1.1,9.1-1.2,14.6-1.7-3.5-3.4-6-4.5-8.6m44.4-55.6c-2.8.8-5.7,1.6-8.5,2.5-11.9,4.3-21,11.3-24.7,22.8-1.8,5.6-1.9,11.6-2.7,17.3-.2,1.5-.1,3-.2,4.4h-1c-5.1-11.5-6.7-23,.5-34.2,8.3-13,21.9-14,36.6-12.8m-35.9,60.1c1.7-5,1.8-10.6,2.3-16,.6-4.4.7-8.9,1.3-13.4,1.6-10,7.7-17.5,16.7-22.8,9.9-5.9,20.9-7.5,32.6-5.6a26.266,26.266,0,0,1-3,.8c-18.7,3.2-29.7,14.1-34.6,30.5-2.5,8.5-3.9,17.2-5.9,25.7-1.3,5.2-3.1,10.3-4.9,16.3-5-5.3-6.4-9.7-4.5-15.5m5.5,20.6a4.7,4.7,0,0,1,0-3.5c5.6-10.6,7.2-22.3,9.7-33.8a126.714,126.714,0,0,1,3.7-13c6.3-16.5,20.7-25.9,39.8-25.9,4,0,7.9.3,11.8.5a2.768,2.768,0,0,0,.1.9,21.389,21.389,0,0,1-2.7.6c-15.5,2.2-26.8,9.9-34.8,22-7.6,11.4-10.5,24.1-13.2,37a63.578,63.578,0,0,1-4.4,13.6c-1.3,3.1-3.8,5.6-6.4,9.2a70.376,70.376,0,0,1-3.6-7.6m6.1,13.8c-1.9-3-1.9-4,.6-6.6a37.9,37.9,0,0,0,9.3-18.1c1.7-7.1,3.1-14.2,5-21.2a65.318,65.318,0,0,1,11.1-22.6c9.6-12.3,22.9-18.1,39.4-18.1,5.4.1,11,0,16.8,2.3-5.9,1.1-11.2,1.6-16.3,2.9-20.4,5.2-33.9,16.7-38.4,36.4-2.7,11.7-6.6,23-13.5,33.1a149.182,149.182,0,0,1-10.1,12.5c-1.8,2.1-2.4,1.9-3.9-.6m103.9-80.4a3.082,3.082,0,0,1,2.1,1.2c-1.5.4-3.1.9-4.8,1.3a139.282,139.282,0,0,0-33.5,12.6c-17.9,9.6-31.3,23.3-41.8,39.6-1.1,1.5-2.3,3-3.4,4.6,0,.1-.1.3-.1.4l-.3.6c.1-.2.1-.5.2-.7,0-.1.1-.2.2-.3,2.9-9.1,5.7-18.4,8.6-27.5,5.7-17.4,19.1-27.2,37.5-31.4a85.621,85.621,0,0,1,35.3-.4m-97.8,82.4c3.2-3.3,6.2-6.8,9.2-10.1,0-.2.1-.2.1-.3.5-.8.9-1.7,1.5-2.6.1-.1.2-.1.3-.2.1,0,.1-.2.2-.2-.1,0-.1.1-.2.2v.1l-.2.4c-.5.8-.9,1.7-1.4,2.5a.769.769,0,0,0-.3.2c-2.3,6.2-5.5,12-8.8,18-3.8-4.5-3.7-4.4-.4-8m2.3,11a9.169,9.169,0,0,1,.8-2.5c5.4-10.4,10.5-20.9,16.4-31.1,19-33.3,49.7-51.6,89.6-57.6,3.9-.6,8-.1,11.9-.2,8.7-.4,16.1-2.9,20.7-10.1,1.2-2,2.8-1.7,4.6-1.5l26.4,3c25.4,2.8,50.8,4.1,76.2,1.9,41.1-3.6,79-15.4,113.7-35.8,3.4-2,6.4-4.3,9.7-6.4a7.115,7.115,0,0,1,2.1-.4c-.1.6,0,1.5-.5,1.9q-3.3,3.45-6.9,6.6a263.15,263.15,0,0,1-47.3,32.6c-16.8,9.2-35.3,13.4-54.7,14.2-26.6,1.1-53.1,1.8-79.7,2.6-9.4.2-18.8-1.2-28-3-14.3-3.1-28.3-2.1-42.2.8-4.9,1-9.7,2.1-14.6,3.1-20.1,4.2-37.1,13.4-50.9,27.3-10.3,10.4-19.9,21.3-29.5,32.3-5.8,6.7-10.6,14.1-15.9,21.1a4.895,4.895,0,0,1-1.2,1.3c-.1.1-.5,0-.7-.1m34.6,43.1c2.5-5.7,5-11.3,7.5-17a6.5,6.5,0,0,1,2-2.6,3.274,3.274,0,0,1,2.6-.5c.5.1,1,1.3.9,1.9a50,50,0,0,1-1.5,6.7,71.481,71.481,0,0,1-8.7,17.5c-2.9-1.5-3.9-3.5-2.8-6m8.2,11.1c-3.1-1.9-3.5-2.9-2-6.1,2.9-6.4,5.8-12.8,8.7-19.1v-.4s0-.2.1-.2c.1-2.1.6-4.2.3-6.3-.4-3.1-3.4-4.2-5.8-2.1a18.12,18.12,0,0,0-4.4,5.5c-2.4,4.9-4.6,10.2-6.9,15.2a10.217,10.217,0,0,1-1.8,1.8,18.285,18.285,0,0,1-1.4-2.8c-.2-.5.3-1.1.6-1.7,5.2-11.5,10.7-22.8,19.3-32.5,2.6-2.9,5.6-5.4,8.3-8.2.3.2.6.2.9.5a8.6,8.6,0,0,1-.1,1.6c-2.5,8.7-5.1,17.5-7.7,26.2a16.934,16.934,0,0,1-1.3,2.7v.2c0,.2-.1.2-.1.3-1.5,8-2.8,16.2-4.3,24.3-.2,1.5-.9,1.9-2.4,1.1m6,4c-1.7-1.2-1.5-2.7-1.1-4.3,2.2-10.7,4.2-21.6,6.7-32.2,1.7-7.1,4.3-13.9,6.3-20.9.5-2,2.2-4.5-.2-6-2.7-1.7-4.6.9-6.2,2.4-10.5,9.6-17.8,21.4-23.6,33.8q-1.5,3.3-3.3,6.6c-4.4-3.9-4.5-3.9-1.9-7.5,7.7-10.9,15.3-21.9,23.5-32.4A116.574,116.574,0,0,1,526.2,231a24.07,24.07,0,0,1,4.7-1.8c-.1,1.7.1,3.5-.5,5a33.365,33.365,0,0,1-3.8,6.9c-3.1,4.4-6.2,8.6-9.5,13a64.274,64.274,0,0,0-13,38.2c-.1,9.1.3,18.3.5,27.4,0,1-.1,2-.1,4.1-3.1-2.3-5.5-4.1-7.9-5.8m10.4,3a196.072,196.072,0,0,1-.1-33.4,65.507,65.507,0,0,1,12.4-32.2c2.9-4,6-7.8,8.7-11.8a77.032,77.032,0,0,0,5.4-10.2,8.974,8.974,0,0,0,.4-4.6c-.3-2.4-2-3.3-4.3-2.3a37.907,37.907,0,0,0-3.4,2c-13.8,8.7-24.9,19.7-34.6,32-5.8,7.3-10.9,15-16.2,22.6-1.3,1.7-2.2,3.5-3.5,5-.7,1-.9,3.1-3,2.2-1.9-.8-2.8-4.1-1.6-5.6,14.5-18.6,27.1-38.7,45.5-54.4a119.274,119.274,0,0,1,48.7-25.8,21.045,21.045,0,0,1,2.4-.6c2.9-.3,4.6,1.5,3.6,4a11.332,11.332,0,0,1-2.8,3.7,81.2,81.2,0,0,1-6.7,4.8c-12.9,8.8-24.1,19-29.8,33.1a133.1,133.1,0,0,0-6,19.5c-3.3,15.5-6.4,31-7.1,46.7-.2,5-.1,9.9-.3,15.4-5.2-2.4-7.4-5.2-7.7-10.1m11.5,13.2a6.03,6.03,0,0,1-1.2-4.4c.2-8,.1-16.1,1.1-24,1.8-13.5,4.2-26.9,6.9-40.2,4.1-19.5,15.2-34.9,32.4-46.4,2.5-1.8,5.1-3.5,7.5-5.3a21.641,21.641,0,0,0,4-4,5.4,5.4,0,0,0-.2-6.6c-1.6-1.9-3.7-2.1-5.9-1.4-6.5,2-13,3.7-19.2,6.4-21.2,8.7-37.7,22.7-51.4,39.6-8.3,10.3-16.1,21-24.1,31.6a18.391,18.391,0,0,1-1.7,2.2c-.8.7-1.8,2-2.8,2-1.3,0-3-3.7-2.5-5a7.462,7.462,0,0,1,.7-1.2c8.7-12.3,17.1-24.8,26.2-36.8a111.094,111.094,0,0,1,33.1-28.9c19.1-10.9,40-16.1,62.6-16.3a13.4,13.4,0,0,1,2,.1c3.2.5,4.4,3.4,2.3,5.5a59.706,59.706,0,0,1-6.8,5.4c-5.6,4.5-11.5,8.8-16.9,13.4-14.9,12.9-24.5,28.8-30.4,46.8-6.5,19-8.6,38.7-7.7,58.6.2,4.6.2,9.2.4,15.1a83.88,83.88,0,0,1-8.4-6.2m12.6,8.2a6.179,6.179,0,0,1-1.5-4.2c-.5-7.7-.9-15.4-1-23.2a152.683,152.683,0,0,1,3.9-35c4.7-21.6,14.5-40.9,31.3-56.6,5-4.6,10.7-8.6,16-12.9,3.3-2.6,6.8-4.9,9.7-7.9,4-4.1,2.1-8.3-3.9-9.4a34.015,34.015,0,0,0-4.5-.3c-39,1.7-70.7,16.2-93.8,45-8.1,10.1-15.1,20.9-22.6,31.4-1.8,2.6-3.6,5.1-5.6,7.8a27.582,27.582,0,0,1-1.9-2.1c-1.9-2-2.1-3.9-.2-6.1,8.8-10.6,17.1-21.5,26.1-31.8a161.469,161.469,0,0,1,38.3-31.8c4.4-2.7,9.1-5,13.8-7.3a90.151,90.151,0,0,1,36.2-9.6c11.7-.6,23.4-1.8,35,.4,2.1.3,4.1,1,7.3,1.8-3.3,2.4-5.7,4.2-8.2,5.9-6.7,4-13.3,8.1-18.9,13.3a117.418,117.418,0,0,0-21,26.2c-6,10.1-11.6,20.3-17.2,30.6-7.7,14.3-10.6,29.8-11.1,45.6-.3,10.1.7,20.1,1.2,30.1,0,1.4.2,2.7.4,4.8a59.36,59.36,0,0,1-7.8-4.7m9.9,2.4c-2.3-17.7-2.4-35.3,1.1-52.7a81.759,81.759,0,0,1,5.2-16.8,278.152,278.152,0,0,1,24.8-44.6c8.6-12.8,19.5-23.6,33.5-31.4a63.64,63.64,0,0,0,6.9-4.6c1.5-1.1,3.1-2.1,2.6-4.1s-2.6-2.4-4.3-2.7c-4.8-.9-9.6-2-14.4-1.9-11,.1-22.1.6-33,1.5a77.548,77.548,0,0,0-25.6,7.2,161.83,161.83,0,0,0-54,39.2c-9.5,10.4-18.1,21.5-27.1,32.3a13.021,13.021,0,0,0-1.5,1.8c-1.1,1.5-2,1-3-.3-2.3-3-2.4-4.1-.1-7.6,9.3-14,20.4-26.8,31.7-39.4A233.291,233.291,0,0,1,500.1,204a96.824,96.824,0,0,1,43.1-22.9c11.8-2.9,23.5-5.7,35.8-6.4,5.8-.4,11.8-.6,17.4.7,18.5,3.7,36.9,4.3,55.6,3.5,19-.9,38-1.5,57-2,26.8-.7,50.5-9.1,72-23,13.7-8.8,26.6-18.2,38.3-29.3a10.677,10.677,0,0,0,1.4-2c2.2,5.3,2.1,9.8,1.7,14.2-.1,1.4-1.3,2.9-2.3,4.1-9.2,11.4-21.2,19.7-35,25.8-17.7,7.8-36.5,11.6-56,12.3-13.1.5-26.1.5-39.1.3-17.8-.2-35,1.8-51.2,8.6-20.7,8.7-37.2,22.1-50.9,38.8-14.7,18.2-23.9,38.8-29.4,61-5,20.1-7,40.5-7.1,61.2,0,2.1-.2,4.3-.4,7-5.2-2.9-9.2-5.1-10-11.1m16.7,15.6c-3.1-1.3-4.5-3.3-4.3-6.5.3-18.6,1.4-37.2,5-55.4,6-31.1,18.6-59.4,42.3-82.5,18.4-17.9,40.2-30.4,67.5-33.4,10.2-1,20.6-.9,31-.9,18.3,0,36.5.1,54.4-3.3,15.5-3,30.1-7.7,43.5-15.4a96.289,96.289,0,0,0,22.4-18c.8-.8,1.8-1.7,2.9-2.8.5,1,.7,1.2.8,1.5.8,8.5.8,8.5-6.7,13.6-21.4,14.7-45.6,23-72.1,26.1-15.5,1.9-31.2,2.9-46.8,4.6A320.586,320.586,0,0,0,639,199c-10.8,3.1-21.2,7.4-30.1,13.9-12.7,9.2-21.3,21.3-28.1,34.6-10.5,20.5-15.7,42.4-18.2,65.1a319.184,319.184,0,0,0-1.5,45.9c.1,3.1-.4,3.2-3.4,1.9m11,6.9c-3.9-2-5.5-4.8-5.6-9.1-.4-26.6.7-53,8-78.7,4.5-15.9,10.7-31.1,20.2-44.9,10.4-15.3,24.8-25.8,43.2-31.7,21.4-6.9,43.7-10.8,66.3-13,13.8-1.3,27.6-2.3,41.4-3.8,21.6-2.4,42-8.1,60.9-18,5.5-2.8,10.6-6.3,15.8-9.4,1.4-.9,2.7-1.7,4.5-2.8,1.5,3.8.8,7.3.7,10.7,0,.9-1.9,1.9-3.1,2.7-11.9,7.7-25.2,12.8-39.2,16.4-24.8,6.4-50.3,9.2-76.1,9.9-16.5.5-33.2.6-49.4,3.4a105.163,105.163,0,0,0-25.6,7.8c-17.5,8-28.8,21.2-36.3,37.6-5.2,11.4-8.5,23.3-11,35.4a702.509,702.509,0,0,0-11.5,79c-.2,3.1-.3,6.2-.6,9.9a14.127,14.127,0,0,0-2.6-1.4m5.6,3c-.8-.7-.7-2.7-.6-3.9a518.887,518.887,0,0,1,8-64.5c2.4-12.8,4.8-25.6,8.2-38.1a123.226,123.226,0,0,1,9.2-23.8c9-18.3,24.6-30,45.3-36.1,13-3.8,26.5-4.9,40-5.6,17.7-.9,35.4-1.3,53-2.8a262.425,262.425,0,0,0,47.6-8.6,134.889,134.889,0,0,0,36-15.2c1.1-.7,2.2-1.2,4-2.1.6,3.4,1,6.2,1.4,9.1.2,1.8-1.1,2.4-2.5,3.1-6.2,2.6-12.1,5.7-18.6,7.9-19.2,6.5-38.7,12-59.1,14.8-13.4,1.8-27,1-40.6.4-8.8-.3-17.8-.9-26.6-.3-39.4,3.3-66.3,22.2-80.9,55.9-4.5,10.3-6.8,21.3-8.6,32.3a466.375,466.375,0,0,0-6.5,80.9c0,.7-.1,1.5-.1,2.5-3.9-1.1-6.2-3.6-8.6-5.9m12.1,8c-.9-.6-.9-2.2-.9-3.4,0-8.5-.4-17.1.3-25.5,1.2-15.8,2.6-31.4,4.7-47,1.7-13,4.2-26,8.8-38.4,13.1-35.4,46.7-57.5,87.8-57.4,10,.1,20.1.7,30.1,1.2a174.817,174.817,0,0,0,56.3-6.4c17.6-4.8,35.1-9.6,51.3-17.5.5-.3,1-.2,1.9-.4.3,2.5.9,5,.7,7.3a4.462,4.462,0,0,1-2.5,2.9,133.974,133.974,0,0,1-13.4,4.8c-13.3,4-27.1,5-40.7,7.2-10.4,1.7-20.8,3.2-30.8,5.9-16.2,4.4-32.8,5.1-49.6,4.5a173.961,173.961,0,0,0-26,1A34.036,34.036,0,0,0,640.6,230a7.463,7.463,0,0,1-4.7,3.1c-9.9,1.9-16.9,7.5-22.5,15-5.9,8-9.5,17.2-12.4,26.6-5.2,17-7.1,34.5-8,52.2a282.156,282.156,0,0,0,2.2,54.3,30.241,30.241,0,0,1,.1,3.3,104.321,104.321,0,0,1-8.9-6.2m11.3,3.4a337.227,337.227,0,0,1-1.9-63.5,197.262,197.262,0,0,1,7.4-42.4,95.74,95.74,0,0,1,10.4-23.9c3.3-5.1,7.2-9.6,12.7-12.7,2.7-1.6,5.8-2.6,8.8-3.9a4.668,4.668,0,0,0,.5,1c-2.1,4.2-4.2,8.4-6.1,12.5a4.359,4.359,0,0,1-1,1.5c-11,7.8-16,18.9-19.3,30.8-8.6,31.4-9.6,63.1-4.4,95.3.4,2.6.9,5.2,1.4,7.8.5,2.4,1,4.9,1.4,7.4-6.5-1.6-9.1-4.3-9.9-9.9m11.9,8.3c-5.7-26.3-7.3-52.6-4-79.1,1.7-13.7,4.2-27.2,9.5-40.1a41.2,41.2,0,0,1,11.6-16c-1,5.4.1,10.8-3.2,15.9-6.1,9.6-9.3,20.4-10.9,31.5-3.7,24.6-4.1,49.2,0,73.9,1,6,2.5,12,3.8,17.9.2,1.1.6,2.3.8,4-5.2-1.1-6.7-3.9-7.6-8m9.7,6.1a217.479,217.479,0,0,1-6.9-64.6c.6-12.7,1.7-25.4,4.5-37.7a64.959,64.959,0,0,1,8.9-22c1,6.5,3.6,11.5.4,17.6-5.6,11-7.8,23.1-8.3,35.5a258.156,258.156,0,0,0,3.5,55.5c1.3,7.6,3.9,15.2,6,22.8-4.6-.7-7-2.9-8.1-7.1m13.8,9.9c-1.3-.7-2-2.3-2.7-3.8a82.468,82.468,0,0,1-7.2-24.7c-2.7-19.2-4.1-38.4-2.6-57.6a90.169,90.169,0,0,1,6.7-27.4c.6-1.4,1.3-2.8,2.4-5.1,1.1,2.6,1.6,4.1,2.3,5.5,1.3,2.6,1,4.6-.8,7.2a22.331,22.331,0,0,0-3.8,9.8c-1,7-1.4,14.2-1.7,21.3a224.44,224.44,0,0,0,.1,23.2c1.3,18.4,7.4,35.6,17.9,51.6.5.8,1,1.6,1.7,2.9a24.85,24.85,0,0,1-12.3-2.9m18.3,4.5a8.114,8.114,0,0,1-4-3.1c-11-15.7-17.5-32.7-19.1-51.2-.6-6.3-.4-12.7-.4-19,.1-7.4.4-14.8.8-22.2.3-5.2,1.3-10.4,5.6-14.9,1.7,2,2.9,3.7,1.8,5.9-5.2,10.2-5.1,21.2-5.1,32.2,0,25.1,10.2,46.9,25.5,67.3,1.3,1.8,2.6,3.5,4.6,6.3-4.1-.5-7-.6-9.7-1.3" fill="#c05240" fill-rule="evenodd"/>
      </g>
      <g id="Group_3" data-name="Group 3" clip-path="url(#clip-path)">
        <path id="Path_4" data-name="Path 4" d="M637.9,217.1a4.126,4.126,0,0,0-1.3,3.2c-.1,1.3.5,2.6.9,4.5a58.136,58.136,0,0,0,3.1,6c.8,1.6,2.5,2.8,3.9,1.9a5.25,5.25,0,0,0,2.1-3.8c-.1-4.6-2.3-8.3-5.5-11.3a3.136,3.136,0,0,0-3.2-.5m6.4,12.3c-.7.1-1.7.2-2-.3a58.746,58.746,0,0,1-3.4-5.2c.1-1.4.2-2.8.2-4.1,1,.9,2.3,1.6,3,2.9a20.747,20.747,0,0,1,2.3,5,1.9,1.9,0,0,1-.1,1.7" fill="#c05240" fill-rule="evenodd"/>
      </g>
    </g>
    <g id="Group_5" data-name="Group 5">
      <path id="Path_6" data-name="Path 6" d="M683.3,305.2H598.6a52.92,52.92,0,0,1-52.9-52.9V167.6a52.92,52.92,0,0,1,52.9-52.9h84.7a52.92,52.92,0,0,1,52.9,52.9v84.7A52.985,52.985,0,0,1,683.3,305.2ZM598.6,116.4a51.149,51.149,0,0,0-51.1,51.2v84.7a51.128,51.128,0,0,0,51.1,51.1h84.7a51.128,51.128,0,0,0,51.1-51.1V167.6a51.213,51.213,0,0,0-51.1-51.2H598.6Z" fill="#fff"/>
    </g>
    <g id="Group_34" data-name="Group 34">
      <g id="Group_32" data-name="Group 32">
        <g id="Group_28" data-name="Group 28">
          <path id="Path_63" data-name="Path 63" d="M613.3,145.7a8.011,8.011,0,1,1,8,7.6C616.7,153.3,613.3,150,613.3,145.7Zm12,0a4.034,4.034,0,0,0-4.1-4,3.953,3.953,0,1,0,4.1,4Z" fill="#111"/>
          <path id="Path_64" data-name="Path 64" d="M643.8,138.4,637.1,153h-1.7l-6.7-14.6h4.2l3.3,7.9,3.4-7.9Z" fill="#111"/>
          <path id="Path_65" data-name="Path 65" d="M649.1,142v2h4.6v3.2h-4.6v2.1h5.6v3.6h-9.4V138.4h9.4V142Z" fill="#111"/>
          <path id="Path_66" data-name="Path 66" d="M664.6,152.9l-3.9-6.3v6.3h-3.9V138.4h5.5c3.1,0,5.4,2.1,5.4,4.7a4.518,4.518,0,0,1-2.5,4l3.9,5.8Zm-3.9-8.1h1.6a1.5,1.5,0,0,0,0-3h-1.6Z" fill="#111"/>
        </g>
        <g id="Group_29" data-name="Group 29">
          <path id="Path_67" data-name="Path 67" d="M580.9,258.3a8.011,8.011,0,1,1,8,7.6,7.712,7.712,0,0,1-8-7.6Zm12.1-.1a4.034,4.034,0,0,0-4.1-4,3.953,3.953,0,1,0,0,7.9,3.892,3.892,0,0,0,4.1-3.9Z" fill="#111"/>
          <path id="Path_68" data-name="Path 68" d="M602.6,254.6v2.3h4.6v3.2h-4.6v5.4h-3.8V251h9.4v3.6Z" fill="#111"/>
          <path id="Path_69" data-name="Path 69" d="M615.5,251H621a5.115,5.115,0,1,1,0,10.2h-1.6v4.3h-3.9Zm7.2,5.1c0-.9-.7-1.5-1.8-1.5h-1.6v3.1h1.6a1.636,1.636,0,0,0,1.8-1.6Z" fill="#111"/>
          <path id="Path_70" data-name="Path 70" d="M635.8,265.5l-3.9-6.3v6.3H628V251h5.5c3.1,0,5.4,2.1,5.4,4.7a4.518,4.518,0,0,1-2.5,4l3.9,5.8Zm-3.9-8.1h1.6a1.5,1.5,0,1,0,0-3h-1.6Z" fill="#111"/>
          <path id="Path_71" data-name="Path 71" d="M641.1,258.3a8.011,8.011,0,1,1,8,7.6C644.5,265.9,641.1,262.6,641.1,258.3Zm12-.1a4.034,4.034,0,0,0-4.1-4,3.953,3.953,0,1,0,0,7.9,3.892,3.892,0,0,0,4.1-3.9Z" fill="#111"/>
          <path id="Path_72" data-name="Path 72" d="M668.2,254.6h-3.5v10.9h-3.9V254.6h-3.5V251h10.8v3.6Z" fill="#111"/>
          <path id="Path_73" data-name="Path 73" d="M673.6,254.6v2h4.6v3.2h-4.6v2.1h5.6v3.6h-9.4V251h9.4v3.6Z" fill="#111"/>
          <path id="Path_74" data-name="Path 74" d="M681.4,251h3.9v14.5h-3.9Z" fill="#111"/>
          <path id="Path_75" data-name="Path 75" d="M700.3,251v14.7h-1.2l-7.5-7.2v7.1h-3.9V251h1.2l7.4,7.2V251Z" fill="#111"/>
        </g>
        <g id="Group_30" data-name="Group 30">
          <path id="Path_76" data-name="Path 76" d="M607.2,164.2v70.9H588.5V186.2l-6.9,1.7V169.5l20.1-5.3h5.5Z" fill="#fff"/>
          <path id="Path_77" data-name="Path 77" d="M616.4,199.9c0-22.2,12.2-36.7,31.3-36.7,18.9,0,31,14.6,31,36.7,0,22.2-12.1,36.7-31,36.7C628.6,236.6,616.4,222,616.4,199.9Zm43.5,0c0-11.4-4.8-19-12.4-19-7.7,0-12.5,7.6-12.5,18.9s4.8,18.9,12.5,18.9C655.1,218.7,659.9,211.2,659.9,199.9Z" fill="#fff"/>
        </g>
        <g id="Group_31" data-name="Group 31">
          <path id="Path_78" data-name="Path 78" d="M702.4,227.2c0,6.5-4.9,10.7-11,10.7-6.8,0-11.9-5.1-11.9-11.2s5.1-11.2,11.8-11.2a12.171,12.171,0,0,1,7.6,2.8l-3.1,4.3a6.912,6.912,0,0,0-4.5-1.8,5.91,5.91,0,1,0,.4,11.8c2.6,0,4.4-1.2,4.5-3.3h-4.9v-4.2h11C702.3,225.8,702.4,226.5,702.4,227.2Z" fill="#fff"/>
        </g>
      </g>
      <g id="Group_33" data-name="Group 33">
        <path id="Path_79" data-name="Path 79" d="M587.7,270.6h4.5a4.164,4.164,0,1,1,0,8.3h-1.3v3.5h-3.1V270.6Zm5.9,4.1a1.347,1.347,0,0,0-1.4-1.3h-1.3v2.5h1.3a1.215,1.215,0,0,0,1.4-1.2Z" fill="#111"/>
        <path id="Path_80" data-name="Path 80" d="M601,273.5v1.6h3.7v2.6H601v1.7h4.5v2.9h-7.6V270.5h7.6v2.9H601Z" fill="#111"/>
        <path id="Path_81" data-name="Path 81" d="M613.6,282.4l-3.2-5.1v5.1h-3.1V270.6h4.5c2.5,0,4.4,1.7,4.4,3.8a3.512,3.512,0,0,1-2,3.2l3.2,4.7h-3.8Zm-3.2-6.7h1.3a1.2,1.2,0,1,0,0-2.4h-1.3Z" fill="#111"/>
        <path id="Path_82" data-name="Path 82" d="M622.2,280.4l1.9-1.9a2.98,2.98,0,0,0,2.4,1.2c.7,0,1.3-.2,1.3-.7,0-.6-1.2-1.1-2.4-1.7-1.5-.6-2.8-1.6-2.8-3.4,0-2,1.9-3.5,4.2-3.5a3.806,3.806,0,0,1,3.7,2l-1.8,1.7a2.422,2.422,0,0,0-1.8-.9c-.6,0-1.1.3-1.1.7,0,.5.8.7,2.1,1.3,1.8.8,3.1,1.9,3.1,3.6,0,2.2-2.1,3.6-4.5,3.6C624.6,282.5,622.8,281.7,622.2,280.4Z" fill="#111"/>
        <path id="Path_83" data-name="Path 83" d="M635.5,273.5v1.6h3.7v2.6h-3.7v1.7H640v2.9h-7.6V270.5H640v2.9h-4.5Z" fill="#111"/>
        <path id="Path_84" data-name="Path 84" d="M648,282.4l-3.2-5.1v5.1h-3.1V270.6h4.5c2.5,0,4.4,1.7,4.4,3.8a3.512,3.512,0,0,1-2,3.2l3.2,4.7H648Zm-3.2-6.7h1.3a1.2,1.2,0,1,0,0-2.4h-1.3Z" fill="#111"/>
        <path id="Path_85" data-name="Path 85" d="M664.1,270.6l-5.4,11.9h-1.4l-5.4-11.9h3.4L658,277l2.7-6.4Z" fill="#111"/>
        <path id="Path_86" data-name="Path 86" d="M665.3,270.6h3.1v11.8h-3.1Z" fill="#111"/>
        <path id="Path_87" data-name="Path 87" d="M680.6,270.6v11.9h-1l-6.1-5.9v5.8h-3.1V270.5h1l6,5.8v-5.7h3.2Z" fill="#111"/>
        <path id="Path_88" data-name="Path 88" d="M694.7,276.7a5.777,5.777,0,0,1-6.1,5.9,6.39,6.39,0,0,1-6.6-6.2,6.3,6.3,0,0,1,6.5-6.2,6.8,6.8,0,0,1,4.2,1.6l-1.7,2.4a3.946,3.946,0,0,0-2.5-1,3.265,3.265,0,0,0-3.3,3.3,3.315,3.315,0,0,0,3.5,3.3c1.4,0,2.4-.7,2.5-1.8h-2.7v-2.3h6a1.8,1.8,0,0,1,.2,1Z" fill="#111"/>
      </g>
    </g>
  </g>
</svg>
