<svg xmlns="http://www.w3.org/2000/svg" width="569.2" height="569.2" viewBox="0 0 569.2 569.2">
  <g id="cooking_instruction_icon_02" transform="translate(-432.8 -432.8)">
    <g id="Group_12" data-name="Group 12">
      <path id="Path_6" data-name="Path 6" d="M920.9,1002h-407a81.088,81.088,0,0,1-81.1-81.1v-407a81.088,81.088,0,0,1,81.1-81.1h407a81.088,81.088,0,0,1,81.1,81.1v407A81.088,81.088,0,0,1,920.9,1002Z" fill="#de6047" fill-rule="evenodd"/>
    </g>
    <g id="Group_13" data-name="Group 13">
      <path id="Path_7" data-name="Path 7" d="M669.7,819A117.257,117.257,0,0,1,552.6,701.9V690.7H786.7v11.2A117.044,117.044,0,0,1,669.7,819ZM575.8,713.1a94.66,94.66,0,0,0,188,0Z" fill="#fff"/>
    </g>
    <g id="Group_21" data-name="Group 21">
      <g id="Group_14" data-name="Group 14">
        <path id="Path_8" data-name="Path 8" d="M952.3,875.5H484.9V578.6H952.3Zm-459.9-7.6H944.7V586.2H492.4Z" fill="#fff"/>
      </g>
      <g id="Group_15" data-name="Group 15">
        <path id="Path_9" data-name="Path 9" d="M826.4,847.2H513.1V606.9H826.4V847.2Zm-305.7-7.5H818.9V614.4H520.7Z" fill="#fff"/>
      </g>
      <g id="Group_16" data-name="Group 16">
        <path id="Path_10" data-name="Path 10" d="M542.4,889.7H513V873.9h29.4Zm-21.7-7.6h14.2v-.7H520.7Z" fill="#fff"/>
      </g>
      <g id="Group_17" data-name="Group 17">
        <path id="Path_11" data-name="Path 11" d="M909,889.7H879.6V873.9H909Zm-21.8-7.6h14.2v-.7H887.2Z" fill="#fff"/>
      </g>
      <g id="Group_18" data-name="Group 18">
        <path id="Path_12" data-name="Path 12" d="M923.7,671.3h-74V626h74Zm-66.4-7.6h58.8V633.6H857.3Z" fill="#fff"/>
      </g>
      <g id="Group_19" data-name="Group 19">
        <path id="Path_13" data-name="Path 13" d="M886.7,742.8a22.65,22.65,0,1,1,22.6-22.7,22.662,22.662,0,0,1-22.6,22.7m0-37.7a15.1,15.1,0,1,0,15.1,15.1,15.151,15.151,0,0,0-15.1-15.1" fill="#fff"/>
      </g>
      <g id="Group_20" data-name="Group 20">
        <path id="Path_14" data-name="Path 14" d="M886.7,814.3a22.6,22.6,0,1,1,22.6-22.6,22.641,22.641,0,0,1-22.6,22.6m0-37.7a15.1,15.1,0,1,0,15.1,15.1,15.151,15.151,0,0,0-15.1-15.1" fill="#fff"/>
      </g>
    </g>
  </g>
</svg>
