<svg xmlns="http://www.w3.org/2000/svg" width="569.2" height="569.2" viewBox="0 0 569.2 569.2">
  <g id="cooking_instruction_icon_03" transform="translate(-432.8 -432.8)">
    <g id="Group_22" data-name="Group 22">
      <path id="Path_15" data-name="Path 15" d="M920.9,1002h-407a81.088,81.088,0,0,1-81.1-81.1v-407a81.088,81.088,0,0,1,81.1-81.1h407a81.088,81.088,0,0,1,81.1,81.1v407A81.088,81.088,0,0,1,920.9,1002Z" fill="#de6047" fill-rule="evenodd"/>
    </g>
    <g id="Group_37" data-name="Group 37">
      <g id="Group_23" data-name="Group 23">
        <path id="Path_16" data-name="Path 16" d="M740.6,846a160.327,160.327,0,0,1-25.8-2.1,155.48,155.48,0,0,1-101.7-63.2l-6.5-9.1L860.8,589.4l6.5,9.1a156.337,156.337,0,0,1-36,218.2h0A154.524,154.524,0,0,1,740.6,846ZM638.2,776.5a133.952,133.952,0,0,0,180,22h0a134.041,134.041,0,0,0,37.1-177.6Z" fill="#fff"/>
      </g>
      <g id="Group_24" data-name="Group 24">
        <path id="Path_17" data-name="Path 17" d="M560.1,934.3c15.6-27.5,17.1-59.7-1.8-81.7-18.5-27.1-28-66-5.7-99.2a46.137,46.137,0,0,1,11.2-10.3,61.483,61.483,0,0,1,12.8-5.8l21.2-7.7c6.4-2.6,10.8-5.3,13-9.3a26.454,26.454,0,0,0,2.6-7.8,28.849,28.849,0,0,1,7.8-14.8c14.3-14.1,32.8-16.9,49.7-14.2,17,3.5,31.1,15.7,36.4,30.5-18.6-26.9-57.7-23.4-72.9-4.9a10.3,10.3,0,0,0-2.4,5.7,44.409,44.409,0,0,1-3.7,14.4c-4.7,10.3-14.3,16.3-21.8,19.9-7.8,3.7-15.2,6.1-22.3,8.9-7.9,2.8-9.9,4.5-13.9,9.3-14.2,19.1-10.7,52.3,2.8,76.3,8.7,13.4,13.6,32.7,10,49A82.58,82.58,0,0,1,560.1,934.3Z" fill="#fff"/>
      </g>
      <g id="Group_35" data-name="Group 35">
        <g id="Group_34" data-name="Group 34">
          <g id="Group_27" data-name="Group 27">
            <g id="Group_26" data-name="Group 26">
              <g id="Group_25" data-name="Group 25">
                <path id="Path_18" data-name="Path 18" d="M598.4,648.5a3.716,3.716,0,0,1-2.2-.8c-20.9-17.6-10.4-31.8-1.1-44.4,4.6-6.2,9.3-12.6,11.1-19.7-.1-5.7-2.7-9.4-6.2-14.5-1.4-2.1-2.9-4.3-4.5-6.9a3.389,3.389,0,0,1,1.2-4.6,3.3,3.3,0,0,1,4.6,1.2c1.4,2.4,2.9,4.6,4.2,6.5,4,5.8,7.4,10.8,7.4,18.7l-.1.8c-2,8.6-7.3,15.7-12.3,22.6-9.6,13.1-16,21.7.1,35.3a3.333,3.333,0,0,1,.4,4.7A3.81,3.81,0,0,1,598.4,648.5Z" fill="#fff"/>
                <path id="Path_19" data-name="Path 19" d="M598.4,659.7h-4l-5.3-3.3c-28.9-24.5-12.2-47.3-3.1-59.6,3.6-4.8,7.2-9.7,8.8-14.3-.4-1.6-1.5-3.3-4.1-7.1-2-3-3.4-5.1-4.9-7.5l-2.4-4,2-11.6,9.6-6.7,11.4,1.9,4.4,5.5c1.3,2.1,2.5,3.9,3.6,5.6,4.6,6.7,9.6,14,9.6,25.4l-.4,3.3c-2.5,10.8-8.7,19.2-14.1,26.6-9.8,13.4-9.8,13.4-1.7,20.2l3.5,2.9,2,11.6-3.8,6A14.9,14.9,0,0,1,598.4,659.7Z" fill="#fff"/>
              </g>
            </g>
          </g>
          <g id="Group_30" data-name="Group 30">
            <g id="Group_29" data-name="Group 29">
              <g id="Group_28" data-name="Group 28">
                <path id="Path_20" data-name="Path 20" d="M646.7,666a3.716,3.716,0,0,1-2.2-.8c-20.9-17.6-10.4-31.8-1.1-44.4,4.6-6.2,9.3-12.6,11.1-19.7-.1-5.6-2.7-9.4-6.2-14.5-1.4-2.1-3-4.3-4.5-6.9a3.324,3.324,0,0,1,1.2-4.6,3.412,3.412,0,0,1,4.6,1.2c1.4,2.5,2.9,4.6,4.2,6.5,4,5.8,7.4,10.8,7.4,18.7l-.1.8c-2,8.6-7.3,15.7-12.3,22.6-9.6,13.1-16,21.7.1,35.3a3.333,3.333,0,0,1,.4,4.7A3.81,3.81,0,0,1,646.7,666Z" fill="#fff"/>
                <path id="Path_21" data-name="Path 21" d="M646.7,677.2h-4l-5.3-3.3c-29-24.5-12.1-47.4-3.1-59.7,3.7-5.1,7.2-9.8,8.7-14.2-.4-1.7-1.6-3.5-4.1-7.1-1.6-2.3-3.2-4.8-4.9-7.6a14.566,14.566,0,0,1,5.1-19.9,14.743,14.743,0,0,1,20,5c1.2,2,2.3,3.7,3.4,5.3,4.9,7.2,9.8,14.4,9.8,25.7l-.4,3.4c-2.6,10.8-8.7,19.2-14.2,26.6-9.8,13.3-9.8,13.3-1.7,20.2a14.448,14.448,0,0,1,1.7,20.4A13.837,13.837,0,0,1,646.7,677.2Z" fill="#fff"/>
              </g>
            </g>
          </g>
          <g id="Group_33" data-name="Group 33">
            <g id="Group_32" data-name="Group 32">
              <g id="Group_31" data-name="Group 31">
                <path id="Path_22" data-name="Path 22" d="M695,635.5a3.716,3.716,0,0,1-2.2-.8c-20.9-17.6-10.4-31.9-1.1-44.4,4.6-6.2,9.3-12.6,11.1-19.8-.1-5.6-2.7-9.4-6.2-14.5-1.4-2.1-3-4.3-4.5-6.9a3.362,3.362,0,0,1,5.8-3.4c1.5,2.5,2.9,4.6,4.3,6.6,3.9,5.8,7.4,10.8,7.4,18.7l-.1.8c-2,8.6-7.3,15.7-12.3,22.6-9.6,13.1-16,21.7.1,35.3a3.333,3.333,0,0,1,.4,4.7A4.251,4.251,0,0,1,695,635.5Z" fill="#fff"/>
                <path id="Path_23" data-name="Path 23" d="M695,646.7h-4l-5.2-3.3c-29-24.5-12.1-47.4-3.1-59.7,3.7-5.1,7.1-9.8,8.7-14.2-.4-1.6-1.5-3.4-4-7-1.6-2.4-3.3-4.8-5-7.7A14.569,14.569,0,0,1,707.5,540a67.2,67.2,0,0,0,3.9,5.9c4.4,6.5,9.3,13.7,9.3,25l-.4,3.3c-2.6,10.8-8.7,19.2-14.2,26.6-9.8,13.3-9.8,13.3-1.7,20.2l3.5,3,1.6,6.9a14.457,14.457,0,0,1-3.4,10.6A14.652,14.652,0,0,1,695,646.7Zm-5.1-8.6Z" fill="#fff"/>
              </g>
            </g>
          </g>
        </g>
      </g>
      <g id="Group_36" data-name="Group 36">
        <path id="Path_24" data-name="Path 24" d="M580,796.6c20.4,9.5,34.3,28.5,40.7,50.3a70.664,70.664,0,0,1,.7,34.2c-2.2,11.4-9.2,21.3-17.4,28.5,1.4-22.4,0-39-4.9-56.9C594.4,834.9,587,817.6,580,796.6Z" fill="#fff"/>
      </g>
    </g>
  </g>
</svg>
