<svg xmlns="http://www.w3.org/2000/svg" width="879" height="879" viewBox="0 0 879 879">
  <g id="cooking_instruction_icon_03" transform="translate(-277.9 -277.9)">
    <rect id="Rectangle_3" data-name="Rectangle 3" width="879" height="879" transform="translate(277.9 277.9)" fill="#de6047"/>
    <g id="Group_36" data-name="Group 36">
      <g id="Group_22" data-name="Group 22">
        <path id="Path_13" data-name="Path 13" d="M747.9,882.6a207.81,207.81,0,0,1-169-86.6l-8.6-12.1,337-241.5,8.6,12.1a207.219,207.219,0,0,1-47.7,289.3h0A205.641,205.641,0,0,1,747.9,882.6ZM612.2,790.5a177.6,177.6,0,0,0,238.6,29.1h0a177.773,177.773,0,0,0,49.1-235.5Z" fill="#fff"/>
      </g>
      <g id="Group_23" data-name="Group 23">
        <path id="Path_14" data-name="Path 14" d="M508.6,999.6c20.7-36.5,22.7-79.1-2.4-108.3-24.5-35.9-37.1-87.5-7.6-131.5a62.675,62.675,0,0,1,14.8-13.7,85.173,85.173,0,0,1,17-7.7l28.1-10.2c8.5-3.4,14.3-7,17.2-12.3a32.832,32.832,0,0,0,3.4-10.3c1.7-8.1,5.6-15.1,10.3-19.6,19-18.7,43.5-22.4,65.9-18.8,22.5,4.6,41.2,20.8,48.3,40.4-24.7-35.7-76.5-31-96.6-6.5-2.5,2.8-2.8,5.6-3.2,7.6a61.212,61.212,0,0,1-4.9,19.1c-6.2,13.7-19,21.6-28.9,26.4-10.3,4.9-20.1,8.1-29.6,11.8-10.5,3.7-13.1,6-18.4,12.3-18.8,25.3-14.2,69.3,3.7,101.1,11.5,17.8,18,43.3,13.3,65A107.534,107.534,0,0,1,508.6,999.6Z" fill="#fff"/>
      </g>
      <g id="Group_34" data-name="Group 34">
        <g id="Group_33" data-name="Group 33">
          <g id="Group_26" data-name="Group 26">
            <g id="Group_25" data-name="Group 25">
              <g id="Group_24" data-name="Group 24">
                <path id="Path_15" data-name="Path 15" d="M559.4,620.8a4.556,4.556,0,0,1-2.9-1.1c-27.7-23.3-13.8-42.2-1.5-58.9,6.1-8.2,12.3-16.7,14.7-26.1-.1-7.6-3.6-12.5-8.2-19.2-1.9-2.8-3.8-5.7-6-9.1a4.517,4.517,0,0,1,1.6-6.1,4.429,4.429,0,0,1,6.1,1.6c1.9,3.2,3.8,6.1,5.6,8.6,5.3,7.7,9.8,14.3,9.8,24.8l-.1,1.1c-2.7,11.4-9.7,20.8-16.3,30-12.7,17.4-21.2,28.8.1,46.8a4.337,4.337,0,0,1,.5,6.2A4.938,4.938,0,0,1,559.4,620.8Z" fill="#fff"/>
                <path id="Path_16" data-name="Path 16" d="M559.4,635.6h-5.3l-7-4.4c-38.3-32.5-16.2-62.7-4.1-79,4.8-6.4,9.5-12.9,11.7-19-.5-2.1-2-4.4-5.4-9.4-2.7-4-4.5-6.8-6.5-9.9l-3.2-5.3,2.7-15.4,12.7-8.9,15.1,2.5,5.8,7.3c1.7,2.8,3.3,5.2,4.8,7.4,6.1,8.9,12.7,18.6,12.7,33.7l-.5,4.4c-3.3,14.3-11.5,25.5-18.7,35.3-13,17.8-13,17.8-2.3,26.8l4.6,3.8,2.7,15.4-5,8A20.113,20.113,0,0,1,559.4,635.6Z" fill="#fff"/>
              </g>
            </g>
          </g>
          <g id="Group_29" data-name="Group 29">
            <g id="Group_28" data-name="Group 28">
              <g id="Group_27" data-name="Group 27">
                <path id="Path_17" data-name="Path 17" d="M623.4,644a4.556,4.556,0,0,1-2.9-1.1c-27.7-23.3-13.8-42.2-1.5-58.9,6.1-8.2,12.3-16.7,14.7-26.1-.1-7.4-3.6-12.5-8.2-19.2-1.9-2.8-4-5.7-6-9.1a4.451,4.451,0,0,1,1.6-6.1,4.541,4.541,0,0,1,6.1,1.6,99.323,99.323,0,0,0,5.6,8.6c5.3,7.7,9.8,14.3,9.8,24.8l-.1,1.1c-2.7,11.4-9.7,20.8-16.3,30-12.7,17.4-21.2,28.8.1,46.8a4.337,4.337,0,0,1,.5,6.2A4.762,4.762,0,0,1,623.4,644Z" fill="#fff"/>
                <path id="Path_18" data-name="Path 18" d="M623.4,658.8h-5.3l-7-4.4c-38.4-32.5-16-62.8-4.1-79.1,4.9-6.8,9.5-13,11.5-18.8-.5-2.3-2.1-4.6-5.4-9.4-2.1-3-4.2-6.4-6.5-10.1a19.372,19.372,0,0,1,33.3-19.8c1.6,2.7,3,4.9,4.5,7,6.5,9.5,13,19.1,13,34.1l-.5,4.5c-3.4,14.3-11.5,25.5-18.8,35.3-13,17.6-13,17.6-2.3,26.8a19.184,19.184,0,0,1,2.3,27A18.776,18.776,0,0,1,623.4,658.8Z" fill="#fff"/>
              </g>
            </g>
          </g>
          <g id="Group_32" data-name="Group 32">
            <g id="Group_31" data-name="Group 31">
              <g id="Group_30" data-name="Group 30">
                <path id="Path_19" data-name="Path 19" d="M687.5,603.6a4.556,4.556,0,0,1-2.9-1.1c-27.7-23.3-13.8-42.3-1.5-58.9,6.1-8.2,12.3-16.7,14.7-26.2-.1-7.4-3.6-12.5-8.2-19.2-1.9-2.8-4-5.7-6-9.1a4.459,4.459,0,1,1,7.7-4.5c2,3.3,3.8,6.1,5.7,8.7,5.2,7.7,9.8,14.3,9.8,24.8l-.1,1.1c-2.7,11.4-9.7,20.8-16.3,30-12.7,17.4-21.2,28.8.1,46.8a4.337,4.337,0,0,1,.5,6.2A5.947,5.947,0,0,1,687.5,603.6Z" fill="#fff"/>
                <path id="Path_20" data-name="Path 20" d="M687.5,618.4h-5.3l-6.9-4.4c-38.4-32.5-16-62.8-4.1-79.1,4.9-6.8,9.4-13,11.5-18.8-.5-2.1-2-4.5-5.3-9.3-2.1-3.2-4.4-6.4-6.6-10.2A19.277,19.277,0,0,1,704,477a81.036,81.036,0,0,0,5.2,7.8c5.8,8.6,12.3,18.2,12.3,33.1l-.5,4.4c-3.4,14.3-11.5,25.5-18.8,35.3-13,17.6-13,17.6-2.3,26.8l4.6,4,2.1,9.1a19.255,19.255,0,0,1-19.1,20.9ZM680.7,607Z" fill="#fff"/>
              </g>
            </g>
          </g>
        </g>
      </g>
      <g id="Group_35" data-name="Group 35">
        <path id="Path_21" data-name="Path 21" d="M535,817.1c27,12.6,45.5,37.8,54,66.7,3.8,14.6,4.5,30.5.9,45.3-2.9,15.1-12.2,28.2-23.1,37.8,1.9-29.7,0-51.7-6.5-75.4C554.1,867.9,544.3,844.9,535,817.1Z" fill="#fff"/>
      </g>
    </g>
  </g>
</svg>
