<svg xmlns="http://www.w3.org/2000/svg" width="569.2" height="569.2" viewBox="0 0 569.2 569.2">
  <g id="cooking_instruction_icon_05" transform="translate(-432.8 -432.8)">
    <g id="Group_54" data-name="Group 54">
      <path id="Path_31" data-name="Path 31" d="M920.9,1002h-407a81.088,81.088,0,0,1-81.1-81.1v-407a81.088,81.088,0,0,1,81.1-81.1h407a81.088,81.088,0,0,1,81.1,81.1v407A81.088,81.088,0,0,1,920.9,1002Z" fill="#de6047" fill-rule="evenodd"/>
    </g>
    <g id="Group_55" data-name="Group 55">
      <path id="Path_32" data-name="Path 32" d="M719.5,826.5c-86.2,0-156.4-70.2-156.4-156.4V658.9H875.8v11.2C875.9,756.4,805.8,826.5,719.5,826.5ZM586,681.3c5.7,68.7,63.4,122.8,133.5,122.8S847.3,750,853,681.3Z" fill="#fff"/>
    </g>
    <g id="Group_56" data-name="Group 56">
      <path id="Path_33" data-name="Path 33" d="M615.7,596l-38-49.8-17.1,13.4,39.1,48.9a22.623,22.623,0,0,0,9.3-4.6,23.9,23.9,0,0,0,6.7-7.9m23.8,31.2L630.2,615a27.609,27.609,0,0,1-6.8,7.4,31.4,31.4,0,0,1-8.8,4.8l9.6,12a24.079,24.079,0,0,0,8.8-4.5,25.67,25.67,0,0,0,6.5-7.5m-11.9-15.6-9.3-12.2a29.921,29.921,0,0,1-15.9,12.4l9.6,12a24.663,24.663,0,0,0,9.1-4.5,23.037,23.037,0,0,0,6.5-7.7M823.4,888.4l9.7-7.6L642,630.5a27.94,27.94,0,0,1-6.6,7.2,31.3,31.3,0,0,1-8.6,4.7Z" fill="#fff"/>
    </g>
    <g id="Group_57" data-name="Group 57">
      <path id="Path_34" data-name="Path 34" d="M570.9,671.6a22.7,22.7,0,0,0,2.5-10l-56-28L508,653l56.6,26.8a21.423,21.423,0,0,0,6.3-8.2M606,688.7a22.424,22.424,0,0,0,2.5-9.6l-13.8-6.9a28.208,28.208,0,0,1-2.8,9.6,31.04,31.04,0,0,1-5.8,8.2l13.9,6.6a23.3,23.3,0,0,0,6-7.9m-17.5-8.6a24.737,24.737,0,0,0,2.6-9.8l-13.8-6.9a25.976,25.976,0,0,1-2.9,9.8,27.309,27.309,0,0,1-6,8.3l13.9,6.6a22.064,22.064,0,0,0,6.2-8m23.8.9a29.782,29.782,0,0,1-2.8,9.4,27.51,27.51,0,0,1-5.7,8L888.5,833l5.4-11.1Z" fill="#fff"/>
    </g>
  </g>
</svg>
