<svg xmlns="http://www.w3.org/2000/svg" width="879" height="879" viewBox="0 0 879 879">
  <g id="cooking_instruction_icon_05" transform="translate(-277.9 -277.9)">
    <rect id="Rectangle_14" data-name="Rectangle 14" width="879" height="879" transform="translate(277.9 277.9)" fill="#de6047"/>
    <g id="Group_55" data-name="Group 55">
      <g id="Group_52" data-name="Group 52">
        <path id="Path_27" data-name="Path 27" d="M744.5,876.7c-125.7,0-228.1-102.4-228.1-228.1V632.3H972.5v16.3C972.6,774.4,870.3,876.7,744.5,876.7ZM549.7,664.9C558,765.1,642.2,844,744.5,844s186.4-78.9,194.7-179.1Z" fill="#fff"/>
      </g>
      <g id="Group_53" data-name="Group 53">
        <path id="Path_28" data-name="Path 28" d="M593.1,540.5l-55.4-72.6-24.9,19.5,57,71.3a33.433,33.433,0,0,0,13.6-6.7,36.77,36.77,0,0,0,9.7-11.5M627.8,586l-13.6-17.8a40.8,40.8,0,0,1-9.9,10.8,47.739,47.739,0,0,1-12.8,7l14,17.5a34.291,34.291,0,0,0,12.8-6.6,39.018,39.018,0,0,0,9.5-10.9m-17.4-22.8-13.6-17.8a43.9,43.9,0,0,1-23.2,18.1l14,17.5a35.212,35.212,0,0,0,13.3-6.6,32.525,32.525,0,0,0,9.5-11.2M896,967l14.1-11.1L631.4,590.8a40.536,40.536,0,0,1-9.6,10.5,48.811,48.811,0,0,1-12.5,6.9Z" fill="#fff"/>
      </g>
      <g id="Group_54" data-name="Group 54">
        <path id="Path_29" data-name="Path 29" d="M527.7,650.7a33.064,33.064,0,0,0,3.6-14.6l-81.7-40.8L436,623.6l82.6,39.1c2.3-1.7,6-5.4,9.1-12m51.2,25a32.682,32.682,0,0,0,3.6-14l-20.1-10.1a42.034,42.034,0,0,1-4.1,14,46.53,46.53,0,0,1-8.5,12l20.3,9.6a32.658,32.658,0,0,0,8.8-11.5m-25.5-12.6a36.636,36.636,0,0,0,3.8-14.3l-20.2-10a38.538,38.538,0,0,1-4.2,14.3,39.726,39.726,0,0,1-8.8,12.1l20.3,9.6c2.4-1.7,6-5.4,9.1-11.7m34.7,1.4a43.2,43.2,0,0,1-4.1,13.7,40.579,40.579,0,0,1-8.3,11.7L991,886.2l7.9-16.2Z" fill="#fff"/>
      </g>
    </g>
  </g>
</svg>
