<svg xmlns="http://www.w3.org/2000/svg" width="879" height="879" viewBox="0 0 879 879">
  <g id="cooking_instruction_icon_01" transform="translate(-277.9 -277.9)">
    <rect id="Rectangle_1" data-name="Rectangle 1" width="879" height="879" transform="translate(277.9 277.9)" fill="#de6047"/>
    <g id="Group_11" data-name="Group 11">
      <g id="Group_1" data-name="Group 1">
        <path id="Path_1" data-name="Path 1" d="M717.4,961.5c-103.9,0-188.5-84.6-188.5-188.5V759.5H905.8V773C905.9,877.1,821.3,961.5,717.4,961.5Zm-161-174.9c6.9,82.8,76.4,148,160.9,148s154-65.2,160.9-148Z" fill="#fff"/>
      </g>
      <g id="Group_2" data-name="Group 2">
        <path id="Path_2" data-name="Path 2" d="M789.6,669.2H645.1V473.3H789.5V669.2h.1Zm-117.5-27h90.4v-142H672.1Z" fill="#fff"/>
      </g>
      <g id="Group_3" data-name="Group 3">
        <circle id="Ellipse_1" data-name="Ellipse 1" cx="6.6" cy="6.6" r="6.6" transform="translate(709.6 671)" fill="#fff"/>
      </g>
      <g id="Group_4" data-name="Group 4">
        <circle id="Ellipse_2" data-name="Ellipse 2" cx="6.6" cy="6.6" r="6.6" transform="translate(738.8 699.4)" fill="#fff"/>
      </g>
      <g id="Group_5" data-name="Group 5">
        <path id="Path_3" data-name="Path 3" d="M709.6,747.5a6.6,6.6,0,1,0-6.6,6.6A6.531,6.531,0,0,0,709.6,747.5Z" fill="#fff"/>
      </g>
      <g id="Group_6" data-name="Group 6">
        <circle id="Ellipse_3" data-name="Ellipse 3" cx="6.6" cy="6.6" r="6.6" transform="translate(732.1 734.3)" fill="#fff"/>
      </g>
      <g id="Group_7" data-name="Group 7">
        <path id="Path_4" data-name="Path 4" d="M765.1,681.2a6.6,6.6,0,1,0-6.6,6.6A6.53,6.53,0,0,0,765.1,681.2Z" fill="#fff"/>
      </g>
      <g id="Group_8" data-name="Group 8">
        <circle id="Ellipse_4" data-name="Ellipse 4" cx="6.6" cy="6.6" r="6.6" transform="translate(676.9 712.6)" fill="#fff"/>
      </g>
      <g id="Group_9" data-name="Group 9">
        <circle id="Ellipse_5" data-name="Ellipse 5" cx="6.6" cy="6.6" r="6.6" transform="translate(670.3 677.5)" fill="#fff"/>
      </g>
      <g id="Group_10" data-name="Group 10">
        <circle id="Ellipse_6" data-name="Ellipse 6" cx="6.6" cy="6.6" r="6.6" transform="translate(709.6 706)" fill="#fff"/>
      </g>
    </g>
  </g>
</svg>
