<svg xmlns="http://www.w3.org/2000/svg" width="879" height="879" viewBox="0 0 879 879">
  <g id="cooking_instruction_icon_02" transform="translate(-277.9 -277.9)">
    <rect id="Rectangle_2" data-name="Rectangle 2" width="879" height="879" transform="translate(277.9 277.9)" fill="#de6047"/>
    <g id="Group_21" data-name="Group 21">
      <g id="Group_12" data-name="Group 12">
        <path id="Path_5" data-name="Path 5" d="M668.5,802.2A117.257,117.257,0,0,1,551.4,685.1V674H785.5v11.2C785.6,749.8,733.1,802.2,668.5,802.2ZM574.6,696.3a94.66,94.66,0,0,0,188,0Z" fill="#fff"/>
      </g>
      <g id="Group_20" data-name="Group 20">
        <g id="Group_13" data-name="Group 13">
          <path id="Path_6" data-name="Path 6" d="M951.1,858.8H483.7v-297H951.1Zm-459.9-7.6H943.5V569.5H491.2Z" fill="#fff"/>
        </g>
        <g id="Group_14" data-name="Group 14">
          <path id="Path_7" data-name="Path 7" d="M825.2,830.5H511.9V590.2H825.2V830.5ZM519.5,823H817.7V597.7H519.5Z" fill="#fff"/>
        </g>
        <g id="Group_15" data-name="Group 15">
          <path id="Path_8" data-name="Path 8" d="M541.2,873H511.8V857.2h29.4Zm-21.7-7.7h14.2v-.7H519.5Z" fill="#fff"/>
        </g>
        <g id="Group_16" data-name="Group 16">
          <path id="Path_9" data-name="Path 9" d="M907.8,873H878.4V857.2h29.4ZM886,865.3h14.2v-.7H886Z" fill="#fff"/>
        </g>
        <g id="Group_17" data-name="Group 17">
          <path id="Path_10" data-name="Path 10" d="M922.5,654.6h-74V609.3h74ZM856.1,647h58.8V616.9H856.1Z" fill="#fff"/>
        </g>
        <g id="Group_18" data-name="Group 18">
          <path id="Path_11" data-name="Path 11" d="M885.5,726.1a22.65,22.65,0,1,1,22.6-22.7,22.662,22.662,0,0,1-22.6,22.7m0-37.8a15.1,15.1,0,1,0,15.1,15.1,15.151,15.151,0,0,0-15.1-15.1" fill="#fff"/>
        </g>
        <g id="Group_19" data-name="Group 19">
          <path id="Path_12" data-name="Path 12" d="M885.5,797.6A22.6,22.6,0,1,1,908.1,775a22.641,22.641,0,0,1-22.6,22.6m0-37.8a15.1,15.1,0,1,0,15.1,15.1,15.151,15.151,0,0,0-15.1-15.1" fill="#fff"/>
        </g>
      </g>
    </g>
  </g>
</svg>
