<svg xmlns="http://www.w3.org/2000/svg" width="569.2" height="569.2" viewBox="0 0 569.2 569.2">
  <g id="cooking_instruction_icon_01" transform="translate(-432.8 -432.8)">
    <g id="Group_1" data-name="Group 1">
      <path id="Path_1" data-name="Path 1" d="M920.9,1002h-407a81.088,81.088,0,0,1-81.1-81.1v-407a81.088,81.088,0,0,1,81.1-81.1h407a81.088,81.088,0,0,1,81.1,81.1v407A81.088,81.088,0,0,1,920.9,1002Z" fill="#de6047" fill-rule="evenodd"/>
    </g>
    <g id="Group_2" data-name="Group 2">
      <path id="Path_2" data-name="Path 2" d="M713.6,932.4c-86.2,0-156.4-70.2-156.4-156.4V764.8H870V776C870,862.3,799.8,932.4,713.6,932.4ZM580,787.2C585.7,855.9,643.4,910,713.5,910S841.3,855.9,847,787.2Z" fill="#fff"/>
    </g>
    <g id="Group_3" data-name="Group 3">
      <path id="Path_3" data-name="Path 3" d="M773.5,689.8H653.6V527.2H773.4V689.8ZM676,667.4h75V549.6H676Z" fill="#fff"/>
    </g>
    <g id="Group_4" data-name="Group 4">
      <circle id="Ellipse_1" data-name="Ellipse 1" cx="5.5" cy="5.5" r="5.5" transform="translate(707.1 691.3)" fill="#fff"/>
    </g>
    <g id="Group_5" data-name="Group 5">
      <circle id="Ellipse_2" data-name="Ellipse 2" cx="5.5" cy="5.5" r="5.5" transform="translate(731.3 714.8)" fill="#fff"/>
    </g>
    <g id="Group_6" data-name="Group 6">
      <path id="Path_4" data-name="Path 4" d="M707.1,754.8a5.5,5.5,0,1,0-5.5,5.5A5.484,5.484,0,0,0,707.1,754.8Z" fill="#fff"/>
    </g>
    <g id="Group_7" data-name="Group 7">
      <circle id="Ellipse_3" data-name="Ellipse 3" cx="5.5" cy="5.5" r="5.5" transform="translate(725.8 743.8)" fill="#fff"/>
    </g>
    <g id="Group_8" data-name="Group 8">
      <path id="Path_5" data-name="Path 5" d="M753.2,699.8a5.5,5.5,0,1,0-5.5,5.5A5.549,5.549,0,0,0,753.2,699.8Z" fill="#fff"/>
    </g>
    <g id="Group_9" data-name="Group 9">
      <circle id="Ellipse_4" data-name="Ellipse 4" cx="5.5" cy="5.5" r="5.5" transform="translate(680 725.8)" fill="#fff"/>
    </g>
    <g id="Group_10" data-name="Group 10">
      <circle id="Ellipse_5" data-name="Ellipse 5" cx="5.5" cy="5.5" r="5.5" transform="translate(674.5 696.7)" fill="#fff"/>
    </g>
    <g id="Group_11" data-name="Group 11">
      <circle id="Ellipse_6" data-name="Ellipse 6" cx="5.5" cy="5.5" r="5.5" transform="translate(707.1 720.3)" fill="#fff"/>
    </g>
  </g>
</svg>
