<svg xmlns="http://www.w3.org/2000/svg" width="1267.44" height="1267.44" viewBox="0 0 1267.44 1267.44">
  <g id="kinjabang_TWTR" transform="translate(-83.68 -83.68)">
    <circle id="Ellipse_1" data-name="Ellipse 1" cx="625.5" cy="625.5" r="625.5" transform="translate(91.9 91.9)" fill="none" stroke="#000" stroke-miterlimit="10" stroke-width="16.44"/>
    <path id="Path_3" data-name="Path 3" d="M360.213,371.716V189.006l158.2,91.26ZM712.81,133.76a76.205,76.205,0,0,0-53.738-53.738C611.556,67.2,421.116,67.2,421.116,67.2s-190.44,0-237.956,12.822a76.205,76.205,0,0,0-53.738,53.738C116.6,181.276,116.6,280.267,116.6,280.267s0,98.991,12.822,146.507a76.205,76.205,0,0,0,53.738,53.738c47.516,12.633,237.956,12.633,237.956,12.633s190.44,0,237.956-12.633a76.205,76.205,0,0,0,53.738-53.738c12.822-47.516,12.822-146.507,12.822-146.507s0-98.991-12.822-146.507" transform="translate(296.2 437.7)"/>
  </g>
</svg>
