<svg xmlns="http://www.w3.org/2000/svg" width="303" height="303" viewBox="0 0 303 303">
  <g id="kinjabang_IG" transform="translate(16.495 16)">
    <rect id="Rectangle_2" data-name="Rectangle 2" width="303" height="303" transform="translate(-16.495 -16)" fill="#fff"/>
    <g id="Group_56" data-name="Group 56" transform="translate(79.739 78.671)">
      <path id="Path_34" data-name="Path 34" d="M529.574,655.691c8.181,0,16-.022,23.812.065.5,0,1.077.947,1.4,1.572.215.409.043,1.012.043,1.529,0,16.1-.086,32.209.043,48.292a20.946,20.946,0,0,1-5.749,14.511,12.064,12.064,0,0,1-9.236,3.789c-25.212.043-50.424.108-75.635-.021-9.667-.043-19.528-9.409-19.183-19.915.517-15.48.129-30.982.129-46.484V655.82h29.3c-6.631,17.439-2.95,32.166,12.832,41.9,11.282,6.976,23.4,5.835,33.781-2.993,12.294-10.442,14.511-23.662,8.461-39.034" transform="translate(-445.059 -613.556)"/>
      <path id="Path_35" data-name="Path 35" d="M520.8,477.308c0,2.239.043,4.5,0,6.739-.065,2.325,1.033,3.746,3.23,3.789,4.844.151,9.689.129,14.511-.022a3.031,3.031,0,0,0,3.186-3.316c.022-4.737.043-9.5,0-14.231a3,3,0,0,0-3.229-3.251c-4.844-.065-9.689-.086-14.533,0a2.988,2.988,0,0,0-3.165,3.294c-.022,2.347,0,4.672,0,7M502.16,460.041c12.272,0,24.523.086,36.774-.043,6.158-.043,10.593,2.605,13.478,8.031a20.53,20.53,0,0,1,2.691,10.4c-.129,4.586-.151,9.172.022,13.736.065,2.131-.732,2.691-2.648,2.67-8.763-.043-17.547.043-26.31-.086a6.194,6.194,0,0,1-3.746-1.658c-10.959-10.012-26.138-9.753-36.881-2.713a4.808,4.808,0,0,0-1.443,1.055c-2.239,3.4-5.49,3.7-9.15,3.6-8.763-.237-17.547-.258-26.31-.172-2.605.021-3.38-.818-3.23-3.423a100.043,100.043,0,0,0,0-12.186c-.581-9.107,8.827-19.226,18.968-19.248q18.893.032,37.785.043Z" transform="translate(-445.312 -459.998)"/>
      <path id="Path_36" data-name="Path 36" d="M621.186,606.958c13.93-.452,24.458,12.617,24.48,25,.022,12.509-10.334,25.319-24.351,25.212-14.791-.129-24.458-11.842-24.415-25.212.043-13.176,9.753-25.19,24.286-25" transform="translate(-564.208 -575.309)"/>
    </g>
    <ellipse id="Ellipse_8" data-name="Ellipse 8" cx="135" cy="134.5" rx="135" ry="134.5" transform="translate(-0.495)" fill="none" stroke="#000" stroke-miterlimit="10" stroke-width="16.44"/>
  </g>
</svg>
