<?xml version="1.0" encoding="utf-8"?>
<!-- Generator: Adobe Illustrator 24.3.0, SVG Export Plug-In . SVG Version: 6.00 Build 0)  -->
<svg version="1.1" id="Layer_1" xmlns="http://www.w3.org/2000/svg" xmlns:xlink="http://www.w3.org/1999/xlink" x="0px" y="0px"
	 viewBox="0 0 1434.8 1434.8" style="enable-background:new 0 0 1434.8 1434.8;" xml:space="preserve">
<style type="text/css">
	.st0{fill:none;stroke:#000000;stroke-width:16.44;stroke-miterlimit:10;}
</style>
<circle class="st0" cx="717.4" cy="717.4" r="625.5"/>
<path d="M1034.1,521c-23.3,10.3-48.3,17.3-74.6,20.5c26.8-16.1,47.4-41.5,57.1-71.9c-25.1,14.9-52.9,25.7-82.5,31.5
	c-23.7-25.3-57.5-41-94.8-41c-71.8,0-129.9,58.2-129.9,129.9c0,10.2,1.1,20.1,3.4,29.6c-108-5.4-203.8-57.1-267.9-135.8
	c-11.2,19.2-17.6,41.5-17.6,65.3c0,45.1,22.9,84.9,57.8,108.2c-21.3-0.7-41.3-6.5-58.9-16.3c0,0.5,0,1.1,0,1.6
	c0,62.9,44.8,115.5,104.2,127.4c-10.9,3-22.4,4.6-34.2,4.6c-8.4,0-16.5-0.8-24.5-2.3c16.5,51.6,64.5,89.2,121.4,90.2
	c-44.5,34.9-100.5,55.6-161.4,55.6c-10.5,0-20.8-0.6-31-1.8c57.5,36.9,125.8,58.4,199.2,58.4c239,0,369.7-198,369.7-369.7
	c0-5.6-0.1-11.2-0.4-16.8C994.6,569.9,1016.7,547,1034.1,521z"/>
</svg>
