<svg xmlns="http://www.w3.org/2000/svg" width="50" height="50" viewBox="0 0 50 50">
  <g id="kinjabang_FB_white" transform="translate(-85.7 -82.7)">
    <g id="Group_1" data-name="Group 1" transform="translate(83.7 83.7)">
      <g id="Ellipse_1" data-name="Ellipse 1" transform="translate(2 -1)" fill="none" stroke="#fff" stroke-width="2">
        <circle cx="25" cy="25" r="25" stroke="none"/>
        <circle cx="25" cy="25" r="24" fill="none"/>
      </g>
      <path id="Path_2" data-name="Path 2" d="M608.424,460.05c-1.179,0-2.27-.08-3.348.016-2.362.209-4.121,1-3.98,4.41.032.761,0,1.521,0,2.382H599V470.4c.724.06,1.384.113,2.125.177v10.161h4.225V470.356h2.865c.1-1.2.205-2.3.314-3.521h-3.191c0-.8-.02-1.5,0-2.185a.721.721,0,0,1,.849-.789c.732.032,1.469.008,2.237.008l0-3.819Z" transform="translate(-576.764 -446.376)" fill="#fff"/>
    </g>
  </g>
</svg>
