<?xml version="1.0" encoding="utf-8"?>
<!-- Generator: Adobe Illustrator 24.3.0, SVG Export Plug-In . SVG Version: 6.00 Build 0)  -->
<svg version="1.1" id="Layer_1" xmlns="http://www.w3.org/2000/svg" xmlns:xlink="http://www.w3.org/1999/xlink" x="0px" y="0px"
	 viewBox="0 0 1103.6 563.3" style="enable-background:new 0 0 1103.6 563.3;" xml:space="preserve">
<style type="text/css">
	.st0{fill:#FFFFFF;}
	.st1{fill:#DF6048;}
</style>
<g>
	<polygon class="st0" points="422.7,312.5 439.6,312.5 439.6,339.1 458.1,312.5 477.7,312.5 455.6,347.7 481.3,382.1 460.6,382.1 
		439.6,356.2 439.6,382.1 422.7,382.1 	"/>
	<rect x="487.4" y="312.5" class="st0" width="17" height="69.6"/>
	<polygon class="st0" points="516.7,312.3 557.5,348.9 557.5,312.3 575,312.3 575,382.1 571.2,382.1 530.6,345.5 530.6,382.1 
		513,382.1 513,312.3 	"/>
	<path class="st0" d="M613.3,353.9v-13.2l-0.3-28.2l17.8,0.1l0.3,28.3v13.7c0,7.8-2.9,14.6-8.7,20c-6.1,5.3-13.8,8.1-22.7,8.2h-0.5
		c-6.9-0.1-12.5-1.8-17.3-5.1l-1.1-0.8l8.7-15l1.4,1.2c2.3,1.8,4.9,2.8,8.5,2.8h0.3C606.6,365.8,613.3,360.7,613.3,353.9"/>
	<path class="st0" d="M630.8,382.1l33.6-69.5h4l33.6,69.5h-18.5l-5.2-10.6h-24l-5.2,10.6H630.8z M661.9,357.6h9l-4.5-9.4
		L661.9,357.6z"/>
	<path class="st0" d="M761.6,359.6c0,6.1-2.3,11.5-6.8,15.8c-4.6,4.4-11,6.6-18.4,6.6H708v-69.6H729c6.7,0,12.5,2,17.3,6
		c4.6,3.8,6.6,8.5,6.6,13.7c0,2.9-1.3,6.5-2.5,8.6C757.2,344,761.6,351.7,761.6,359.6 M729,329.1h-4v9.6c1-0.1,2.2-0.1,3.6-0.3
		c2.8-0.3,5.5-2,5.5-4.9C734,331,731.6,329.1,729,329.1 M744,358.6c0-1.9-0.7-3.5-2.2-4.9c-1.7-1.4-3.4-2.1-5.5-2.2
		c-4-0.2-7.4-0.1-11.3,0v13.9h11.4C740.5,365.4,744,362.6,744,358.6"/>
	<path class="st0" d="M763,382.1l33.6-69.5h4l33.6,69.5h-18.5l-5.2-10.6h-24l-5.2,10.6H763z M794.1,357.6h9l-4.5-9.4L794.1,357.6z"
		/>
	<polygon class="st0" points="843.9,312.3 884.6,348.9 884.6,312.3 902.2,312.3 902.2,382.1 898.4,382.1 857.7,345.5 857.7,382.1 
		840.2,382.1 840.2,312.3 	"/>
	<path class="st0" d="M947.7,312.1c11.2,0.3,20.2,5,26.4,10.7l1.1,1.1L962.5,336l-1.1-1.1c-4.2-3.9-9-5.8-14.7-5.8
		c-5.8,0-10.6,1.8-14.7,5.4c-4.1,3.6-6.1,7.8-6.1,12.8c0,5,2,9.3,6.1,12.9c4,3.6,8.8,5.3,14.7,5.3c7.7,0,14.1-3.8,17.5-8.6h-19.9
		v-15.4h40.3l0.1,1.3c1,13.1-3.5,22.6-10.6,29.4c-7.6,6.9-16.9,10.4-27.5,10.4c-10.7,0-20-3.5-27.5-10.3c-7.2-6.8-10.8-15.2-10.8-25
		c0-9.7,3.6-18.1,10.8-25c7.5-6.9,16.8-10.4,27.5-10.4h1.2L947.7,312.1z"/>
	<polygon class="st1" points="575.3,413.7 575.3,435.5 571,435.5 555.4,419.8 555.4,435.5 550.5,435.5 550.5,413.7 555.8,413.7 
		570.5,428.7 570.5,413.7 	"/>
	<path class="st1" d="M586,424.6c0-7.3,5.3-11.6,13.8-11.6s13.8,4.3,13.8,11.6c0,7.3-5.3,11.6-13.8,11.6S586,431.9,586,424.6
		 M608.6,424.6c0-4.7-3.4-7.3-8.8-7.3c-5.4,0-8.8,2.6-8.8,7.3c0,4.7,3.4,7.3,8.8,7.3C605.2,431.9,608.6,429.3,608.6,424.6"/>
	<path class="st1" d="M623,424.6c0-7.3,5.3-11.6,13.8-11.6s13.8,4.3,13.8,11.6c0,7.3-5.3,11.6-13.8,11.6S623,431.9,623,424.6
		 M645.6,424.6c0-4.7-3.4-7.3-8.8-7.3c-5.4,0-8.8,2.6-8.8,7.3c0,4.7,3.4,7.3,8.8,7.3C642.2,431.9,645.6,429.3,645.6,424.6"/>
	<path class="st1" d="M686.4,424.6c0,6.8-5.3,10.9-13.5,10.9h-11.6v-21.8h11.6C681.1,413.7,686.4,417.8,686.4,424.6 M681.3,424.6
		c0-4.5-3.5-6.7-8.8-6.7h-6.2v13.3h6.2C677.8,431.3,681.3,429.1,681.3,424.6"/>
	<polygon class="st1" points="717.4,431.2 717.4,435.5 697.1,435.5 697.1,413.7 702.1,413.7 702.1,431.2 	"/>
	<polygon class="st1" points="749.6,431.3 749.6,435.5 727.2,435.5 727.2,413.7 749.3,413.7 749.3,417.9 732.1,417.9 732.1,422.4 
		746.4,422.4 746.4,426.6 732.1,426.6 732.1,431.3 	"/>
	<path class="st1" d="M794.4,428.4l4.5,2.3c-2.1,3.1-6.3,5.6-11.9,5.6c-8.2,0-13.5-4.3-13.5-11.6c0-7.2,5.3-11.6,13.7-11.6
		c5.5,0,9.7,2.5,11.7,5.5l-4.6,2.3c-1.6-2.4-3.9-3.5-7.2-3.5c-5.2,0-8.6,2.5-8.6,7.3c0,4.8,3.4,7.3,8.6,7.3
		C790.4,431.9,792.8,430.8,794.4,428.4"/>
	<path class="st1" d="M807.3,424.6c0-7.3,5.3-11.6,13.8-11.6s13.8,4.3,13.8,11.6c0,7.3-5.3,11.6-13.8,11.6S807.3,431.9,807.3,424.6
		 M829.9,424.6c0-4.7-3.4-7.3-8.8-7.3c-5.4,0-8.8,2.6-8.8,7.3c0,4.7,3.4,7.3,8.8,7.3C826.5,431.9,829.9,429.3,829.9,424.6"/>
	<path class="st1" d="M843.5,433.3c0-1.5,1.2-2.6,3-2.6c1.7,0,2.9,1.2,2.9,2.6c0,1.5-1.2,2.6-2.9,2.6
		C844.7,435.9,843.5,434.8,843.5,433.3"/>
	<path class="st0" d="M1064.2,500.7H81.5V228.7h982.7V500.7z M99.1,485.7h947.5v-242H99.1V485.7z"/>
	<rect x="338.5" y="236.2" class="st0" width="15" height="257"/>
	<path class="st1" d="M116.6,243.4C116.5,243.6,116.5,243.5,116.6,243.4"/>
	<path class="st1" d="M233.8,453.4c-0.1,0.2-0.5,0.3-0.9,0.1c-0.1,0-0.1-0.1-0.2-0.2c-0.1-0.3,0-0.3,0.3-0.3
		c0.2,0.1,0.5,0.1,0.7,0.1C233.8,453.2,233.8,453.3,233.8,453.4"/>
	<path class="st1" d="M237.7,461.3h-0.6c0-0.3,0-0.5,0.4-0.4C237.6,460.9,237.7,461.1,237.7,461.3"/>
	<path class="st1" d="M182.7,216.7c8.8-6.3,13.2-12.3,35.2-11.3C187.5,172,290.2,76.6,173.3,38.2
		C261.2,118.8,128.3,147.8,182.7,216.7"/>
	<path class="st1" d="M244.3,64.7c14.9,70.5-18.3,68.6-20.3,104.2c-1.8,31.9,30.4,71.2,30.4,71.2s9.1-14.1,8.8-24.2
		C234.8,155.7,308.8,143.1,244.3,64.7"/>
	<path class="st1" d="M166.3,242.6c0,0,18.1-21.5,32.1-25.8c16.7-1.5,29.7-1.5,29.7-1.5s28.6,55.2,30,59.1
		c1.4,4-17.7,23.1-29.2,18.1c-4.1-1.8-30.8-53.1-30.8-53.1C187.3,237,178.5,240,166.3,242.6"/>
	<path class="st1" d="M177.5,361.1c0,0-7.5-41.8-42.9-78.1c16.6-17.6,44.7-37.6,57.2-38c12.3,13.6,31.9,51.4,30.3,61.4
		c-1.6,10-22.8,18.7-24.9,17.4c-2-1.3-13.2-31-30.1-37.6c7.8,14.6,29.6,47.8,30.8,53.3c1.1,5.5-1.1,25.7-13.7,30.8
		C182.2,365.3,177.5,361.1,177.5,361.1"/>
	<path class="st1" d="M257.1,247.6c0,0,19.9,23.8,44.1,34.9c4.6,3.9-1.7,5.1-8.5,13.8c-6.8,8.7-16.4,26.6-16.8,36.4
		c-0.2,2-42.8,6.3-47.8,4.1c-5-2.2-8.8-21.3-5.8-24.6c3-3.2,49.3-25,49.3-30.1C271.5,277,249.3,263,257.1,247.6"/>
	<path class="st1" d="M288.7,408.1c-13.8,10.4-47.9,36.3-55.1,40.8c-9,5.6-52.8,5.6-55.8,7.3c-3.1,1.7-2.5,13.5,0,16.3
		c9,4.2,65.4,3.4,68.5,3.4c3.1,0,10.4-1.1,11.2,4.8c0.8,5.9-4.5,5.4-4.5,5.4s-19-0.8-37,0c-18,0.8-42.2,1.5-45.8-9.3
		c-4.6-13.7-3.9-21.1,0.3-27.3c4.2-6.2,41.8-6,57.5-10.5c10.7-3.1,13.8-18,15.1-25.2c-9.5,0.6-19.1,0.8-28.8,0.7v8.4
		c0,6.7-1.7,9.3-4.8,7.3c-3.5-7.3-9.4-12.8-14.3-16.5c-10-0.6-20-1.6-30.1-3c0,0,13.2,24.6,9,25.2c-4.2,0.6-22.2-22.8-32.9-29.1
		c-5.8-1.1-11.5-2.3-17.3-3.7c12,17.9,22.9,50.1,22.7,51.8c-0.3,2-3.4,6.2-9.3-3.9c-11.5-25.2-28.3-44.7-37.2-54
		c-6.5-1.9-12.9-3.9-19.4-6c29.3,37.1,46.8,77.4,55,120.2c58.9,20.2,114.8,21.6,167.2,0c4-37.1,20.9-77.3,48.5-120.2
		C330.8,398.4,309.9,404.2,288.7,408.1"/>
	<path class="st1" d="M73.6,367.3l-9.5-19.8c100.4,49.7,207.5,49.1,306,0l-14.8,22.4C266.2,411.5,167.1,408.3,73.6,367.3"/>
</g>
</svg>
