<svg xmlns="http://www.w3.org/2000/svg" width="50" height="50" viewBox="0 0 50 50">
  <g id="kinjabang_IG_white" transform="translate(-85.7 -82.7)">
    <g id="Group_1" data-name="Group 1" transform="translate(83.7 83.7)">
      <g id="Ellipse_1" data-name="Ellipse 1" transform="translate(2 -1)" fill="none" stroke="#fff" stroke-width="2">
        <circle cx="25" cy="25" r="25" stroke="none"/>
        <circle cx="25" cy="25" r="24" fill="none"/>
      </g>
      <g id="Group_5" data-name="Group 5" transform="translate(179 282.302)">
        <path id="Path_34" data-name="Path 34" d="M476.78,653.089c1.4,0,2.729,0,4.063.011.084,0,.184.162.239.268.037.07.007.173.007.261,0,2.748-.015,5.5.007,8.24a3.574,3.574,0,0,1-.981,2.476,2.058,2.058,0,0,1-1.576.647c-4.3.007-8.6.018-12.905,0a3.468,3.468,0,0,1-3.273-3.4c.088-2.641.022-5.286.022-7.931v-.547h5c-1.132,2.976-.5,5.488,2.189,7.149a4.64,4.64,0,0,0,5.764-.511c2.1-1.782,2.476-4.037,1.444-6.66" transform="translate(-623.7 -914.202)" fill="#fff"/>
        <path id="Path_35" data-name="Path 35" d="M475.55,460.351c0,.382.007.768,0,1.15s.176.639.551.647c.827.026,1.653.022,2.476,0a.517.517,0,0,0,.544-.566c0-.808.007-1.62,0-2.428a.512.512,0,0,0-.551-.555c-.827-.011-1.653-.015-2.48,0a.51.51,0,0,0-.54.562c0,.4,0,.8,0,1.194m-3.181-2.946c2.094,0,4.184.015,6.275-.007a2.4,2.4,0,0,1,2.3,1.37,3.5,3.5,0,0,1,.459,1.774c-.022.782-.026,1.565,0,2.344.011.364-.125.459-.452.456-1.5-.007-2.994.007-4.489-.015a1.057,1.057,0,0,1-.639-.283,5.118,5.118,0,0,0-6.293-.463.82.82,0,0,0-.246.18,1.573,1.573,0,0,1-1.561.613c-1.5-.04-2.994-.044-4.489-.029-.445,0-.577-.14-.551-.584a17.076,17.076,0,0,0,0-2.079,3.41,3.41,0,0,1,3.236-3.284q3.224.005,6.447.007Z" transform="translate(-624.01 -725.7)" fill="#fff"/>
        <path id="Path_36" data-name="Path 36" d="M618.343,604.349a4.285,4.285,0,0,1,.022,8.567,4.285,4.285,0,0,1-.022-8.567" transform="translate(-769.962 -867.251)" fill="#fff"/>
      </g>
    </g>
  </g>
</svg>
