<svg xmlns="http://www.w3.org/2000/svg" width="285.44" height="285.44" viewBox="0 0 285.44 285.44">
  <g id="kinjabang_TWTR" transform="translate(8.211 8.22)">
    <circle id="Ellipse_1" data-name="Ellipse 1" cx="134.5" cy="134.5" r="134.5" transform="translate(0.009)" fill="none" stroke="#000" stroke-miterlimit="10" stroke-width="16.44"/>
    <path id="Path_3" data-name="Path 3" d="M169.05,132.763V93.425l34.061,19.648ZM244.965,81.53a16.407,16.407,0,0,0-11.57-11.57C223.165,67.2,182.163,67.2,182.163,67.2s-41,0-51.232,2.761a16.407,16.407,0,0,0-11.57,11.57c-2.761,10.23-2.761,31.543-2.761,31.543s0,21.313,2.761,31.543a16.407,16.407,0,0,0,11.57,11.57c10.23,2.72,51.232,2.72,51.232,2.72s41,0,51.232-2.72a16.407,16.407,0,0,0,11.57-11.57c2.761-10.23,2.761-31.543,2.761-31.543s0-21.313-2.761-31.543" transform="translate(-47.51 21.72)"/>
  </g>
</svg>
