<?xml version="1.0" encoding="utf-8"?>
<!-- Generator: Adobe Illustrator 24.3.0, SVG Export Plug-In . SVG Version: 6.00 Build 0)  -->
<svg version="1.1" id="Layer_1" xmlns="http://www.w3.org/2000/svg" xmlns:xlink="http://www.w3.org/1999/xlink" x="0px" y="0px"
	 viewBox="0 0 395.4 940.4" style="enable-background:new 0 0 395.4 940.4;" xml:space="preserve">
<style type="text/css">
	.st0{fill:#FFFFFF;}
	.st1{fill:#DF6048;}
</style>
<g>
	<polygon class="st0" points="120.5,44.9 120.5,209.2 132.8,209.2 132.8,57.2 341.4,57.2 341.4,882.5 132.8,882.5 132.8,427.4 
		120.5,427.4 120.5,894.9 353.8,894.9 353.8,44.9 	"/>
	<polygon class="st0" points="292.2,86.2 292.2,109.4 255.7,109.4 292.2,134.7 292.2,161.6 243.9,131.3 196.9,166.5 196.9,138.2 
		232.3,109.4 196.9,109.4 196.9,86.2 	"/>
	<rect x="196.9" y="174.8" class="st0" width="95.3" height="23.3"/>
	<polygon class="st0" points="292.4,214.9 242.3,270.7 292.4,270.7 292.4,294.8 196.9,294.8 196.9,289.5 246.9,233.9 196.9,233.9 
		196.9,209.9 292.4,209.9 	"/>
	<path class="st0" d="M235.4,347.1h18.1l38.7-0.4l-0.1,24.3l-38.8,0.4h-18.8c-10.7,0-20-4-27.4-11.9c-7.3-8.4-11.1-18.9-11.2-31.1
		v-0.8c0.1-9.4,2.4-17.1,7-23.7l1.1-1.6l20.6,11.9l-1.6,1.9c-2.5,3.2-3.8,6.8-3.8,11.6v0.5C219.2,338,226.2,347.1,235.4,347.1"/>
	<path class="st0" d="M196.9,371.1l95.1,45.9v5.5l-95.1,46v-25.3l14.5-7.1v-32.8l-14.5-7.1V371.1z M230.4,413.6v12.3l12.9-6.1
		L230.4,413.6z"/>
	<path class="st0" d="M227.7,548.8c-8.4,0-15.7-3.1-21.7-9.3c-6-6.3-9.1-15.1-9.1-25.2v-38.9h95.3l0,28.7c0,9.1-2.8,17.1-8.2,23.6
		c-5.2,6.2-11.6,9.1-18.8,9.1c-4,0-8.9-1.7-11.8-3.4C249,542.7,238.5,548.8,227.7,548.8 M229,524.7c2.7,0,4.8-1,6.6-3.1
		c1.9-2.3,2.8-4.7,3-7.5c0.3-5.5,0.1-10.1,0.1-15.5h-19v15.6C219.7,519.8,223.6,524.7,229,524.7 M269.4,504v-5.4h-13.2
		c0.1,1.4,0.2,3,0.3,4.9c0.4,3.8,2.8,7.5,6.7,7.5C266.8,511,269.4,507.7,269.4,504"/>
	<path class="st0" d="M196.9,552l95.1,45.9v5.5l-95.1,46v-25.3l14.5-7.1v-32.8l-14.5-7.1V552z M230.4,594.6v12.3l12.9-6.1
		L230.4,594.6z"/>
	<polygon class="st0" points="292.4,662.8 242.3,718.5 292.4,718.5 292.4,742.6 196.9,742.6 196.9,737.4 246.9,681.7 196.9,681.7 
		196.9,657.7 292.4,657.7 	"/>
	<path class="st0" d="M292.8,804.9c-0.4,15.3-6.9,27.7-14.7,36.1l-1.5,1.5L260,825.1l1.4-1.5c5.4-5.8,8-12.4,8-20.1
		c0-7.9-2.4-14.5-7.3-20.1c-4.9-5.6-10.7-8.4-17.6-8.4c-6.9,0-12.7,2.7-17.6,8.4c-4.9,5.5-7.3,12.1-7.3,20.1
		c0,10.5,5.2,19.3,11.8,24v-27.3h21.1v55.2l-1.8,0.1c-18,1.4-30.9-4.8-40.2-14.5c-9.4-10.4-14.2-23.1-14.2-37.7
		c0-14.7,4.8-27.4,14.1-37.6c9.3-9.8,20.8-14.8,34.2-14.8c13.2,0,24.7,5,34.2,14.8c9.5,10.3,14.2,22.9,14.2,37.6v1.6L292.8,804.9z"
		/>
	<path class="st1" d="M166.8,369.5c-7.7,5.8-26.8,20.3-30.8,22.8c-5,3.1-29.5,3.1-31.3,4.1c-1.7,0.9-1.4,7.5,0,9.1
		c5,2.4,36.6,1.9,38.3,1.9c1.7,0,5.8-0.6,6.3,2.7c0.5,3.3-2.5,3-2.5,3s-10.6-0.5-20.7,0c-10.1,0.5-23.6,0.8-25.7-5.2
		c-2.6-7.7-2.2-11.8,0.2-15.3c2.4-3.5,23.4-3.4,32.2-5.9c6-1.7,7.7-10.1,8.4-14.1c-5.3,0.3-10.7,0.5-16.1,0.4v4.7
		c0,3.8-0.9,5.2-2.7,4.1c-2-4.1-5.3-7.2-8-9.2c-5.6-0.3-11.2-0.9-16.8-1.7c0,0,7.4,13.7,5,14.1c-2.3,0.3-12.4-12.8-18.4-16.3
		c-3.2-0.6-6.4-1.3-9.7-2.1c6.7,10,12.8,28,12.7,29c-0.2,1.1-1.9,3.5-5.2-2.2c-6.4-14.1-15.8-25-20.8-30.3c-3.6-1-7.2-2.2-10.9-3.4
		c16.4,20.8,26.2,43.3,30.8,67.3c33,11.3,64.3,12.1,93.6,0c2.2-20.7,11.7-43.3,27.1-67.3C190.4,364,178.7,367.2,166.8,369.5"/>
	<path class="st1" d="M107.5,262.3c4.9-3.5,7.4-6.9,19.7-6.3c-17-18.7,40.5-72.1-25-93.6C151.4,207.5,77,223.7,107.5,262.3"/>
	<path class="st1" d="M141.9,177.2c8.3,39.5-10.2,38.4-11.4,58.3c-1,17.9,17,39.8,17,39.8s5.1-7.9,4.9-13.6
		C136.6,228.1,178.1,221.1,141.9,177.2"/>
	<path class="st1" d="M98.3,276.8c0,0,10.1-12,18-14.5c9.4-0.8,16.6-0.8,16.6-0.8s16,30.9,16.8,33.1c0.8,2.2-9.9,12.9-16.3,10.1
		c-2.3-1-17.2-29.7-17.2-29.7C110,273.7,105.1,275.4,98.3,276.8"/>
	<path class="st1" d="M104.6,343.1c0,0-4.2-23.4-24-43.7c9.3-9.9,25-21,32-21.3c6.9,7.6,17.9,28.8,17,34.3
		c-0.9,5.6-12.8,10.5-13.9,9.7c-1.1-0.7-7.4-17.4-16.8-21c4.3,8.2,16.6,26.7,17.2,29.8c0.6,3.1-0.6,14.4-7.7,17.2
		C107.1,345.5,104.6,343.1,104.6,343.1"/>
	<path class="st1" d="M149.1,279.6c0,0,11.1,13.3,24.7,19.6c2.6,2.2-1,2.8-4.8,7.7c-3.8,4.9-9.2,14.9-9.4,20.4
		c-0.1,1.1-23.9,3.5-26.7,2.3c-2.8-1.3-4.9-11.9-3.3-13.8c1.7-1.8,27.6-14,27.6-16.8C157.2,296.1,144.7,288.2,149.1,279.6"/>
	<path class="st1" d="M46.4,346.6l-5.3-11.1c56.2,27.8,116.2,27.5,171.3,0l-8.3,12.5C154.2,371.4,98.7,369.6,46.4,346.6"/>
	<polygon class="st1" points="168.6,614.2 153.2,614.2 153.2,611.2 164.3,600.1 153.2,600.1 153.2,596.7 168.6,596.7 168.6,600.5 
		158,610.8 168.6,610.8 	"/>
	<path class="st1" d="M160.9,621.8c5.1,0,8.2,3.8,8.2,9.8c0,6-3,9.8-8.2,9.8c-5.1,0-8.2-3.8-8.2-9.8
		C152.7,625.5,155.7,621.8,160.9,621.8 M160.9,637.7c3.3,0,5.1-2.4,5.1-6.2c0-3.8-1.8-6.2-5.1-6.2c-3.3,0-5.1,2.4-5.1,6.2
		C155.7,635.3,157.6,637.7,160.9,637.7"/>
	<path class="st1" d="M160.9,647.9c5.1,0,8.2,3.8,8.2,9.8c0,6-3,9.8-8.2,9.8c-5.1,0-8.2-3.8-8.2-9.8
		C152.7,651.6,155.7,647.9,160.9,647.9 M160.9,663.8c3.3,0,5.1-2.4,5.1-6.2c0-3.8-1.8-6.2-5.1-6.2c-3.3,0-5.1,2.4-5.1,6.2
		C155.7,661.4,157.6,663.8,160.9,663.8"/>
	<path class="st1" d="M160.9,692.6c-4.8,0-7.7-3.7-7.7-9.5v-8.2h15.4v8.2C168.6,688.9,165.7,692.6,160.9,692.6 M160.9,689
		c3.2,0,4.7-2.5,4.7-6.2v-4.4h-9.4v4.4C156.2,686.5,157.7,689,160.9,689"/>
	<polygon class="st1" points="156.2,714.5 153.2,714.5 153.2,700.2 168.6,700.2 168.6,703.7 156.2,703.7 	"/>
	<polygon class="st1" points="156.1,737.2 153.2,737.2 153.2,721.4 168.6,721.4 168.6,737 165.6,737 165.6,724.9 162.5,724.9 
		162.5,735 159.5,735 159.5,724.9 156.1,724.9 	"/>
	<path class="st1" d="M158.2,768.9l-1.6,3.2c-2.2-1.4-3.9-4.4-3.9-8.4c0-5.8,3.1-9.5,8.2-9.5c5.1,0,8.2,3.8,8.2,9.7
		c0,3.9-1.8,6.8-3.9,8.2l-1.6-3.2c1.7-1.1,2.5-2.8,2.5-5c0-3.6-1.8-6.1-5.1-6.1c-3.4,0-5.1,2.4-5.1,6.1
		C155.7,766,156.5,767.7,158.2,768.9"/>
	<path class="st1" d="M160.9,777.9c5.1,0,8.2,3.8,8.2,9.8c0,6-3,9.8-8.2,9.8c-5.1,0-8.2-3.8-8.2-9.8
		C152.7,781.7,155.7,777.9,160.9,777.9 M160.9,793.9c3.3,0,5.1-2.4,5.1-6.2c0-3.8-1.8-6.2-5.1-6.2c-3.3,0-5.1,2.4-5.1,6.2
		C155.7,791.5,157.6,793.9,160.9,793.9"/>
	<path class="st1" d="M154.8,803.5c1,0,1.8,0.9,1.8,2.1c0,1.2-0.8,2.1-1.8,2.1c-1.1,0-1.8-0.9-1.8-2.1
		C152.9,804.3,153.7,803.5,154.8,803.5"/>
</g>
</svg>
