<?xml version="1.0" encoding="utf-8"?>
<!-- Generator: Adobe Illustrator 24.3.0, SVG Export Plug-In . SVG Version: 6.00 Build 0)  -->
<svg version="1.1" id="Layer_1" xmlns="http://www.w3.org/2000/svg" xmlns:xlink="http://www.w3.org/1999/xlink" x="0px" y="0px"
	 viewBox="0 0 1434.8 1434.8" style="enable-background:new 0 0 1434.8 1434.8;" xml:space="preserve">
<style type="text/css">
	.st0{fill:none;stroke:#000000;stroke-width:16.44;stroke-miterlimit:10;}
</style>
<g>
	<path d="M837.6,655.7c38,0,74.3-0.1,110.6,0.3c2.3,0,5,4.4,6.5,7.3c1,1.9,0.2,4.7,0.2,7.1c0,74.8-0.4,149.6,0.2,224.3
		c0.2,26.6-9.9,48.6-26.7,67.4c-11,12.3-26.6,17.6-42.9,17.6c-117.1,0.2-234.2,0.5-351.3-0.1c-44.9-0.2-90.7-43.7-89.1-92.5
		c2.4-71.9,0.6-143.9,0.6-215.9v-14.9h136.1c-30.8,81-13.7,149.4,59.6,194.6c52.4,32.4,108.7,27.1,156.9-13.9
		C855.4,788.5,865.7,727.1,837.6,655.7"/>
	<path d="M795.7,540.4c0,10.4,0.2,20.9,0,31.3c-0.3,10.8,4.8,17.4,15,17.6c22.5,0.7,45,0.6,67.4-0.1c8.8-0.2,14.8-5.5,14.8-15.4
		c0.1-22,0.2-44.1,0-66.1c-0.2-9.5-5.6-15-15-15.1c-22.5-0.3-45-0.4-67.5,0c-9.2,0.2-14.6,5.6-14.7,15.3
		C795.6,518.8,795.7,529.6,795.7,540.4 M709.1,460.2c57,0,113.9,0.4,170.8-0.2c28.6-0.2,49.2,12.1,62.6,37.3c8,15,13,30.8,12.5,48.3
		c-0.6,21.3-0.7,42.6,0.1,63.8c0.3,9.9-3.4,12.5-12.3,12.4c-40.7-0.2-81.5,0.2-122.2-0.4c-5.9-0.1-12.9-3.5-17.4-7.7
		c-50.9-46.5-121.4-45.3-171.3-12.6c-2.3,1.5-5.2,2.7-6.7,4.9c-10.4,15.8-25.5,17.2-42.5,16.7c-40.7-1.1-81.5-1.2-122.2-0.8
		c-12.1,0.1-15.7-3.8-15-15.9c1-18.8,1.3-37.8,0-56.6c-2.7-42.3,41-89.3,88.1-89.4C592.1,460.1,650.6,460.1,709.1,460.2L709.1,460.2
		z"/>
	<path d="M709.7,607c64.7-2.1,113.6,58.6,113.7,116.1c0.1,58.1-48,117.6-113.1,117.1c-68.7-0.6-113.6-55-113.4-117.1
		C597.1,661.9,642.2,606.1,709.7,607"/>
</g>
<circle class="st0" cx="700.2" cy="720.1" r="625.5"/>
</svg>
