<svg xmlns="http://www.w3.org/2000/svg" width="306" height="488.679" viewBox="0 0 306 488.679">
  <g id="logo_image" transform="translate(275.9 57.8)">
    <path id="Path_19" data-name="Path 19" d="M116.6,243.4c-.1.2-.1.1,0,0" transform="translate(-340 -96)" fill="#df6048"/>
    <path id="Path_20" data-name="Path 20" d="M233.8,453.4c-.1.2-.5.3-.9.1-.1,0-.1-.1-.2-.2-.1-.3,0-.3.3-.3a1.7,1.7,0,0,0,.7.1.367.367,0,0,1,.1.3" transform="translate(-340 -96)" fill="#df6048"/>
    <path id="Path_21" data-name="Path 21" d="M237.7,461.3h-.6c0-.3,0-.5.4-.4.1,0,.2.2.2.4" transform="translate(-340 -96)" fill="#df6048"/>
    <path id="Path_22" data-name="Path 22" d="M182.7,216.7c8.8-6.3,13.2-12.3,35.2-11.3C187.5,172,290.2,76.6,173.3,38.2c87.9,80.6-45,109.6,9.4,178.5" transform="translate(-340 -96)" fill="#df6048"/>
    <path id="Path_23" data-name="Path 23" d="M244.3,64.7c14.9,70.5-18.3,68.6-20.3,104.2-1.8,31.9,30.4,71.2,30.4,71.2s9.1-14.1,8.8-24.2c-28.4-60.2,45.6-72.8-18.9-151.2" transform="translate(-340 -96)" fill="#df6048"/>
    <path id="Path_24" data-name="Path 24" d="M166.3,242.6s18.1-21.5,32.1-25.8c16.7-1.5,29.7-1.5,29.7-1.5s28.6,55.2,30,59.1c1.4,4-17.7,23.1-29.2,18.1-4.1-1.8-30.8-53.1-30.8-53.1-10.8-2.4-19.6.6-31.8,3.2" transform="translate(-340 -96)" fill="#df6048"/>
    <path id="Path_25" data-name="Path 25" d="M177.5,361.1S170,319.3,134.6,283c16.6-17.6,44.7-37.6,57.2-38,12.3,13.6,31.9,51.4,30.3,61.4s-22.8,18.7-24.9,17.4c-2-1.3-13.2-31-30.1-37.6,7.8,14.6,29.6,47.8,30.8,53.3,1.1,5.5-1.1,25.7-13.7,30.8-2-5-6.7-9.2-6.7-9.2" transform="translate(-340 -96)" fill="#df6048"/>
    <path id="Path_26" data-name="Path 26" d="M257.1,247.6s19.9,23.8,44.1,34.9c4.6,3.9-1.7,5.1-8.5,13.8s-16.4,26.6-16.8,36.4c-.2,2-42.8,6.3-47.8,4.1s-8.8-21.3-5.8-24.6c3-3.2,49.3-25,49.3-30.1-.1-5.1-22.3-19.1-14.5-34.5" transform="translate(-340 -96)" fill="#df6048"/>
    <path id="Path_27" data-name="Path 27" d="M288.7,408.1c-13.8,10.4-47.9,36.3-55.1,40.8-9,5.6-52.8,5.6-55.8,7.3-3.1,1.7-2.5,13.5,0,16.3,9,4.2,65.4,3.4,68.5,3.4s10.4-1.1,11.2,4.8-4.5,5.4-4.5,5.4-19-.8-37,0-42.2,1.5-45.8-9.3c-4.6-13.7-3.9-21.1.3-27.3s41.8-6,57.5-10.5c10.7-3.1,13.8-18,15.1-25.2-9.5.6-19.1.8-28.8.7v8.4c0,6.7-1.7,9.3-4.8,7.3-3.5-7.3-9.4-12.8-14.3-16.5-10-.6-20-1.6-30.1-3,0,0,13.2,24.6,9,25.2s-22.2-22.8-32.9-29.1c-5.8-1.1-11.5-2.3-17.3-3.7,12,17.9,22.9,50.1,22.7,51.8-.3,2-3.4,6.2-9.3-3.9-11.5-25.2-28.3-44.7-37.2-54-6.5-1.9-12.9-3.9-19.4-6a274.1,274.1,0,0,1,55,120.2c58.9,20.2,114.8,21.6,167.2,0,4-37.1,20.9-77.3,48.5-120.2a398.975,398.975,0,0,1-62.7,17.1" transform="translate(-340 -96)" fill="#df6048"/>
    <path id="Path_28" data-name="Path 28" d="M73.6,367.3l-9.5-19.8c100.4,49.7,207.5,49.1,306,0l-14.8,22.4c-89.1,41.6-188.2,38.4-281.7-2.6" transform="translate(-340 -96)" fill="#df6048"/>
  </g>
</svg>
