<svg xmlns="http://www.w3.org/2000/svg" width="373.887" height="420.406" viewBox="0 0 373.887 420.406">
  <g id="Group_3" data-name="Group 3" transform="translate(-816 -339)" opacity="1">
    <g id="Group_1" data-name="Group 1">
      <g id="_1010104d" data-name="#1010104d" transform="translate(816 339)">
        <path id="Path_1" data-name="Path 1" d="M0,0H5.187C15.813,5.681,25.753,12.6,36.68,17.712c7.118,3.422,14.5,6.742,22.441,7.548,5.634.6,11.655.137,16.659-2.733a13.982,13.982,0,0,0,6.828-9.2A21.4,21.4,0,0,0,80.45,0h5.238a28.067,28.067,0,0,1,1.268,14.611,17.59,17.59,0,0,1-6.683,11.264c-4.15,3.019-9.486,3.888-14.509,3.571a76.11,76.11,0,0,1-20.112-3.856C33.2,20.887,21.529,14.368,10.171,7.478,6.832,5.442,3.4,3.563,0,1.629Z" fill="#DDDDDD" opacity="0.3"/>
        <path id="Path_2" data-name="Path 2" d="M104.649,0h4.538c2.259,7.991,2.889,16.584.8,24.684a33.679,33.679,0,0,1-9.874,16.69c-6.127,5.642-14.345,8.644-22.574,9.286A55.068,55.068,0,0,1,65,50.1,136.95,136.95,0,0,1,35.67,42.259Q17.524,34.8,0,25.925V21.439c8.366,4.287,16.827,8.41,25.389,12.289,12.657,5.685,25.8,10.645,39.569,12.763a46.624,46.624,0,0,0,15.4.149,32.107,32.107,0,0,0,16.056-7.4,30.376,30.376,0,0,0,9.549-17.3A47.451,47.451,0,0,0,104.649,0Z" fill="#DDDDDD" opacity="0.3"/>
        <path id="Path_3" data-name="Path 3" d="M122.345,0h22.143c11.283,3.637,22.637,7.094,34.108,10.089,17.567,4.357,35.337,7.826,53.143,11.013,17.187,3,34.378,5.986,51.686,8.19,20.143,2.6,40.407,4.33,60.707,4.937q14.875.317,29.754,0v4.663a498.055,498.055,0,0,1-56.377-1.656c-37.044-3.171-74-7.959-110.377-15.727A675.133,675.133,0,0,1,141.748,4.26c-3.3-1.1-6.511-2.447-9.831-3.492a4.257,4.257,0,0,0-4.459.9c-.207,3.762-.243,7.67.893,11.307.576,2.087,2.791,2.889,4.6,3.61A645,645,0,0,0,313.615,51.913c16.674.9,33.38.936,50.07.7,3.4-.027,6.8-.305,10.2-.329v4.326c-4.432.352-8.879.36-13.319.446q-11.352.388-22.711.078A657.015,657.015,0,0,1,222.821,44.929c-18.048-3.574-36.061-7.493-53.679-12.83-11.577-3.465-23.052-7.258-34.613-10.766-1.742-.493-3.449-1.347-5.3-1.276-1.5.161-2,1.836-2.373,3.058-1.425,5.34-2.968,10.649-4.326,16.009a4.1,4.1,0,0,0,.262,3.3c.842,1.605,2.674,2.208,4.275,2.76,4.021,1.249,8.151,2.095,12.246,3.054,22.061,5.043,44.072,10.3,66.149,15.265,46.753,10.3,94.654,15.856,142.558,15.081,8.629-.047,17.246-.548,25.863-1v4.064c-7.3.63-14.623.822-21.94,1.1a541.163,541.163,0,0,1-60.679-1.844c-37.091-3.187-73.783-10-110-18.522-18.225-4.295-36.351-8.989-54.548-13.409-2.478-.576-5-1.48-7.58-1.057-1.926.368-3.12,2.063-4.361,3.418a37.779,37.779,0,0,1-21.29,11.839,67.6,67.6,0,0,1-19.509.619c-7.818-.865-15.586-2.807-23.5-2.3A282.158,282.158,0,0,0,0,67.123V62.836c5.434-1.261,10.958-2.126,16.475-2.94,6.515-.983,13.115-1.339,19.587-2.623a7.267,7.267,0,0,0-3.39-2.647A156.159,156.159,0,0,0,0,47.4V39.608c9.369,3.308,18.773,6.53,28.173,9.741C37.694,52.113,47.208,54.955,56.917,57c7.673,1.672,15.461,3.128,23.338,3.128,8.374.043,16.929-1.582,24.289-5.7a29.26,29.26,0,0,0,13.17-15.414,100.759,100.759,0,0,0,4.459-16.287A76.168,76.168,0,0,0,122.345,0Z" fill="#DDDDDD" opacity="0.3"/>
        <path id="Path_4" data-name="Path 4" d="M474.28,0H499.8a926.138,926.138,0,0,0,116.86,13.28c11.733.626,23.486.693,35.232.885,3.527-.11,7.063-.184,10.594-.27V17.41c-25.976,1.268-52.019.215-77.909-2.091C547.585,12.031,510.839,6.44,474.28,0Z" transform="translate(-288.597)" fill="#DDDDDD" opacity="0.3"/>
        <path id="Path_5" data-name="Path 5" d="M64.32,189.163c24.892-1.817,50.375-.153,74.155,7.861,17.943,6.17,36.339,11.471,55.277,13.4,41.386,4.134,82.752,8.417,124.162,12.27,18.612,1.625,37.259,3.946,55.973,3.085v4.158a269.993,269.993,0,0,1-27-.372c-7.983-.556-15.926-1.507-23.886-2.29Q290.727,223.97,258.416,221c-18.158-1.672-36.375-2.827-54.45-5.293-25.961-3.422-51.7-8.918-76.488-17.438-11.3-3.782-23.291-4.581-35.1-5.317-16.98-.865-33.99.219-50.872,2.044C27.558,196.442,13.523,197.933,0,201.8v-4.483a200.864,200.864,0,0,1,36.022-5.88C45.458,190.714,54.873,189.762,64.32,189.163Z" transform="translate(0 -114.699)" fill="#DDDDDD" opacity="0.3"/>
        <path id="Path_6" data-name="Path 6" d="M87.425,29.506H82.237c-10.625-5.681-20.566-12.6-31.493-17.712C43.627,8.373,36.247,5.053,28.3,4.247c-5.634-.6-11.655-.137-16.659,2.733a13.982,13.982,0,0,0-6.828,9.2A21.4,21.4,0,0,0,6.974,29.506H1.736A28.067,28.067,0,0,1,.468,14.9,17.59,17.59,0,0,1,7.151,3.632C11.3.613,16.637-.256,21.66.061A76.11,76.11,0,0,1,41.771,3.918C54.229,8.62,65.9,15.138,77.253,22.029c3.34,2.036,6.773,3.915,10.171,5.849Z" transform="translate(286.462 180.9)" fill="#DDDDDD" opacity="0.3"/>
        <path id="Path_7" data-name="Path 7" d="M6.611,50.788H2.074C-.185,42.8-.815,34.2,1.275,26.1a33.679,33.679,0,0,1,9.874-16.69C17.276,3.772,25.494.769,33.723.127A55.068,55.068,0,0,1,46.259.683,136.95,136.95,0,0,1,75.591,8.529q18.146,7.458,35.67,16.334v4.487c-8.366-4.287-16.827-8.41-25.389-12.289C73.214,11.375,60.075,6.414,46.3,4.3a46.624,46.624,0,0,0-15.4-.149,32.107,32.107,0,0,0-16.056,7.4A30.376,30.376,0,0,0,5.3,28.852,47.451,47.451,0,0,0,6.611,50.788Z" transform="translate(262.626 159.619)" fill="#DDDDDD" opacity="0.3"/>
        <path id="Path_8" data-name="Path 8" d="M251.542,82.907H229.4c-11.283-3.637-22.637-7.094-34.108-10.089-17.567-4.357-35.337-7.826-53.143-11.013-17.187-3-34.378-5.986-51.686-8.19-20.143-2.6-40.407-4.33-60.707-4.937Q14.879,48.36,0,48.677V44.015a498.055,498.055,0,0,1,56.377,1.656c37.044,3.171,74,7.959,110.377,15.727a675.133,675.133,0,0,1,65.385,17.25c3.3,1.1,6.511,2.447,9.831,3.492a4.257,4.257,0,0,0,4.459-.9c.207-3.762.243-7.67-.893-11.307-.576-2.087-2.791-2.889-4.6-3.61A645,645,0,0,0,60.272,30.993c-16.674-.9-33.38-.936-50.07-.7-3.4.027-6.8.305-10.2.329V26.3c4.432-.352,8.879-.36,13.319-.446q11.352-.388,22.711-.078A657.015,657.015,0,0,1,151.066,37.978c18.048,3.574,36.061,7.493,53.679,12.83,11.577,3.465,23.052,7.258,34.613,10.766,1.742.493,3.449,1.347,5.3,1.276,1.5-.161,2-1.836,2.373-3.058,1.425-5.34,2.968-10.649,4.326-16.009a4.1,4.1,0,0,0-.262-3.3c-.842-1.605-2.674-2.208-4.275-2.76-4.021-1.249-8.151-2.095-12.246-3.054-22.061-5.043-44.072-10.3-66.149-15.265C121.668,9.1,73.767,3.545,25.863,4.32c-8.629.047-17.246.548-25.863,1V1.258C7.3.628,14.623.436,21.94.154A541.163,541.163,0,0,1,82.619,2c37.091,3.187,73.783,10,110,18.522,18.225,4.295,36.351,8.989,54.548,13.409,2.478.576,5,1.48,7.58,1.057,1.926-.368,3.12-2.063,4.361-3.418A37.779,37.779,0,0,1,280.4,19.73a67.6,67.6,0,0,1,19.509-.619c7.818.865,15.586,2.807,23.5,2.3a282.158,282.158,0,0,0,50.477-5.63V20.07c-5.434,1.261-10.958,2.126-16.475,2.94-6.515.983-13.115,1.339-19.587,2.623a7.267,7.267,0,0,0,3.39,2.647A156.159,156.159,0,0,0,373.887,35.5V43.3c-9.369-3.308-18.773-6.53-28.173-9.741-9.521-2.764-19.035-5.606-28.744-7.654-7.673-1.672-15.461-3.128-23.338-3.128-8.374-.043-16.929,1.582-24.289,5.7a29.261,29.261,0,0,0-13.17,15.414,100.758,100.758,0,0,0-4.459,16.287A76.168,76.168,0,0,0,251.542,82.907Z" transform="translate(0 127.5)" fill="#DDDDDD" opacity="0.3"/>
        <path id="Path_9" data-name="Path 9" d="M662.484,17.954H636.966a926.14,926.14,0,0,0-116.86-13.28c-11.733-.626-23.486-.693-35.232-.885-3.527.11-7.063.184-10.594.27V.544C500.256-.725,526.3.329,552.189,2.635,589.179,5.923,625.925,11.514,662.484,17.954Z" transform="translate(-474.28 192.452)" fill="#DDDDDD" opacity="0.3"/>
        <path id="Path_10" data-name="Path 10" d="M309.566,229.439c-24.892,1.817-50.375.153-74.155-7.861-17.943-6.17-36.339-11.471-55.277-13.4-41.386-4.134-82.752-8.417-124.162-12.27C37.361,194.281,18.714,191.96,0,192.821v-4.158a269.993,269.993,0,0,1,27,.372c7.983.556,15.926,1.507,23.886,2.29q32.276,3.306,64.586,6.276c18.158,1.672,36.375,2.827,54.45,5.293,25.961,3.422,51.7,8.918,76.488,17.438,11.3,3.782,23.291,4.581,35.1,5.317,16.98.865,33.99-.219,50.872-2.044,13.949-1.445,27.985-2.936,41.507-6.8v4.483a200.866,200.866,0,0,1-36.022,5.88C328.429,227.888,319.013,228.84,309.566,229.439Z" transform="translate(0 -93.497)" fill="#DDDDDD" opacity="0.3"/>
      </g>
      <g id="_1010104d-2" data-name="#1010104d" transform="translate(816 549)">
        <path id="Path_1-2" data-name="Path 1" d="M87.425,0H82.237C71.612,5.681,61.672,12.6,50.745,17.712c-7.118,3.422-14.5,6.742-22.441,7.548-5.634.6-11.655.137-16.659-2.733a13.982,13.982,0,0,1-6.828-9.2A21.4,21.4,0,0,1,6.974,0H1.736A28.067,28.067,0,0,0,.468,14.611,17.59,17.59,0,0,0,7.151,25.875c4.15,3.019,9.486,3.888,14.509,3.571a76.11,76.11,0,0,0,20.112-3.856C54.229,20.887,65.9,14.368,77.253,7.478c3.34-2.036,6.773-3.915,10.171-5.849Z" transform="translate(286.462)" fill="#DDDDDD" opacity="0.3"/>
        <path id="Path_2-2" data-name="Path 2" d="M6.611,0H2.074c-2.259,7.991-2.889,16.584-.8,24.684a33.679,33.679,0,0,0,9.874,16.69c6.127,5.642,14.345,8.644,22.574,9.286A55.068,55.068,0,0,0,46.259,50.1a136.95,136.95,0,0,0,29.332-7.846q18.146-7.458,35.67-16.334V21.439c-8.366,4.287-16.827,8.41-25.389,12.289C73.214,39.413,60.075,44.373,46.3,46.491a46.624,46.624,0,0,1-15.4.149,32.107,32.107,0,0,1-16.056-7.4A30.376,30.376,0,0,1,5.3,21.936,47.451,47.451,0,0,1,6.611,0Z" transform="translate(262.626)" fill="#DDDDDD" opacity="0.3"/>
        <path id="Path_3-2" data-name="Path 3" d="M251.542,0H229.4c-11.283,3.637-22.637,7.094-34.108,10.089-17.567,4.357-35.337,7.826-53.143,11.013-17.187,3-34.378,5.986-51.686,8.19-20.143,2.6-40.407,4.33-60.707,4.937q-14.875.317-29.754,0v4.663a498.055,498.055,0,0,0,56.377-1.656c37.044-3.171,74-7.959,110.377-15.727A675.133,675.133,0,0,0,232.139,4.26c3.3-1.1,6.511-2.447,9.831-3.492a4.257,4.257,0,0,1,4.459.9c.207,3.762.243,7.67-.893,11.307-.576,2.087-2.791,2.889-4.6,3.61A645,645,0,0,1,60.272,51.913c-16.674.9-33.38.936-50.07.7-3.4-.027-6.8-.305-10.2-.329v4.326c4.432.352,8.879.36,13.319.446q11.352.388,22.711.078A657.015,657.015,0,0,0,151.066,44.929c18.048-3.574,36.061-7.493,53.679-12.83,11.577-3.465,23.052-7.258,34.613-10.766,1.742-.493,3.449-1.347,5.3-1.276,1.5.161,2,1.836,2.373,3.058,1.425,5.34,2.968,10.649,4.326,16.009a4.1,4.1,0,0,1-.262,3.3c-.842,1.605-2.674,2.208-4.275,2.76-4.021,1.249-8.151,2.095-12.246,3.054-22.061,5.043-44.072,10.3-66.149,15.265C121.668,73.81,73.767,79.362,25.863,78.587c-8.629-.047-17.246-.548-25.863-1v4.064c7.3.63,14.623.822,21.94,1.1a541.163,541.163,0,0,0,60.679-1.844c37.091-3.187,73.783-10,110-18.522,18.225-4.295,36.351-8.989,54.548-13.409,2.478-.576,5-1.48,7.58-1.057,1.926.368,3.12,2.063,4.361,3.418A37.779,37.779,0,0,0,280.4,63.177a67.6,67.6,0,0,0,19.509.619c7.818-.865,15.586-2.807,23.5-2.3a282.158,282.158,0,0,1,50.477,5.63V62.836c-5.434-1.261-10.958-2.126-16.475-2.94-6.515-.983-13.115-1.339-19.587-2.623a7.267,7.267,0,0,1,3.39-2.647A156.159,156.159,0,0,1,373.887,47.4V39.608c-9.369,3.308-18.773,6.53-28.173,9.741-9.521,2.764-19.035,5.606-28.744,7.654-7.673,1.672-15.461,3.128-23.338,3.128-8.374.043-16.929-1.582-24.289-5.7a29.261,29.261,0,0,1-13.17-15.414,100.758,100.758,0,0,1-4.459-16.287A76.168,76.168,0,0,1,251.542,0Z" transform="translate(0)" fill="#DDDDDD" opacity="0.3"/>
        <path id="Path_4-2" data-name="Path 4" d="M662.484,0H636.966a926.14,926.14,0,0,1-116.86,13.28c-11.733.626-23.486.693-35.232.885-3.527-.11-7.063-.184-10.594-.27V17.41c25.976,1.268,52.019.215,77.909-2.091C589.179,12.031,625.925,6.44,662.484,0Z" transform="translate(-474.28)" fill="#DDDDDD" opacity="0.3"/>
        <path id="Path_5-2" data-name="Path 5" d="M309.566,189.163c-24.892-1.817-50.375-.153-74.155,7.861-17.943,6.17-36.339,11.471-55.277,13.4-41.386,4.134-82.752,8.417-124.162,12.27C37.361,224.321,18.714,226.642,0,225.781v4.158a269.993,269.993,0,0,0,27-.372c7.983-.556,15.926-1.507,23.886-2.29Q83.159,223.97,115.47,221c18.158-1.672,36.375-2.827,54.45-5.293,25.961-3.422,51.7-8.918,76.488-17.438,11.3-3.782,23.291-4.581,35.1-5.317,16.98-.865,33.99.219,50.872,2.044,13.949,1.445,27.985,2.936,41.507,6.8v-4.483a200.864,200.864,0,0,0-36.022-5.88C328.429,190.714,319.013,189.762,309.566,189.163Z" transform="translate(0 -114.699)" fill="#DDDDDD" opacity="0.3"/>
        <path id="Path_6-2" data-name="Path 6" d="M0,29.506H5.187c10.625-5.681,20.566-12.6,31.493-17.712,7.118-3.422,14.5-6.742,22.441-7.548,5.634-.6,11.655-.137,16.659,2.733a13.982,13.982,0,0,1,6.828,9.2A21.4,21.4,0,0,1,80.45,29.506h5.238A28.067,28.067,0,0,0,86.957,14.9,17.59,17.59,0,0,0,80.274,3.632C76.124.613,70.788-.256,65.765.061A76.11,76.11,0,0,0,45.653,3.918C33.2,8.62,21.529,15.138,10.171,22.029,6.832,24.065,3.4,25.944,0,27.878Z" transform="translate(0 180.9)" fill="#DDDDDD" opacity="0.3"/>
        <path id="Path_7-2" data-name="Path 7" d="M104.649,50.788h4.538c2.259-7.991,2.889-16.584.8-24.684a33.679,33.679,0,0,0-9.874-16.69C93.985,3.772,85.767.769,77.537.127A55.068,55.068,0,0,0,65,.683,136.95,136.95,0,0,0,35.67,8.529Q17.524,15.987,0,24.862v4.487c8.366-4.287,16.827-8.41,25.389-12.289C38.046,11.375,51.185,6.414,64.958,4.3a46.624,46.624,0,0,1,15.4-.149,32.107,32.107,0,0,1,16.056,7.4,30.376,30.376,0,0,1,9.549,17.3A47.451,47.451,0,0,1,104.649,50.788Z" transform="translate(0 159.619)" fill="#DDDDDD" opacity="0.3"/>
        <path id="Path_8-2" data-name="Path 8" d="M122.345,82.907h22.143c11.283-3.637,22.637-7.094,34.108-10.089,17.567-4.357,35.337-7.826,53.143-11.013,17.187-3,34.378-5.986,51.686-8.19,20.143-2.6,40.407-4.33,60.707-4.937q14.875-.317,29.754,0V44.015a498.055,498.055,0,0,0-56.377,1.656c-37.044,3.171-74,7.959-110.377,15.727a675.133,675.133,0,0,0-65.385,17.25c-3.3,1.1-6.511,2.447-9.831,3.492a4.257,4.257,0,0,1-4.459-.9c-.207-3.762-.243-7.67.893-11.307.576-2.087,2.791-2.889,4.6-3.61A645,645,0,0,1,313.615,30.993c16.674-.9,33.38-.936,50.07-.7,3.4.027,6.8.305,10.2.329V26.3c-4.432-.352-8.879-.36-13.319-.446q-11.352-.388-22.711-.078A657.015,657.015,0,0,0,222.821,37.978c-18.048,3.574-36.061,7.493-53.679,12.83-11.577,3.465-23.052,7.258-34.613,10.766-1.742.493-3.449,1.347-5.3,1.276-1.5-.161-2-1.836-2.373-3.058-1.425-5.34-2.968-10.649-4.326-16.009a4.1,4.1,0,0,1,.262-3.3c.842-1.605,2.674-2.208,4.275-2.76,4.021-1.249,8.151-2.095,12.246-3.054,22.061-5.043,44.072-10.3,66.149-15.265C252.219,9.1,300.119,3.545,348.024,4.32c8.629.047,17.246.548,25.863,1V1.258c-7.3-.63-14.623-.822-21.94-1.1A541.163,541.163,0,0,0,291.267,2c-37.091,3.187-73.783,10-110,18.522-18.225,4.295-36.351,8.989-54.548,13.409-2.478.576-5,1.48-7.58,1.057-1.926-.368-3.12-2.063-4.361-3.418A37.779,37.779,0,0,0,93.487,19.73a67.6,67.6,0,0,0-19.509-.619c-7.818.865-15.586,2.807-23.5,2.3A282.158,282.158,0,0,1,0,15.783V20.07c5.434,1.261,10.958,2.126,16.475,2.94,6.515.983,13.115,1.339,19.587,2.623a7.267,7.267,0,0,1-3.39,2.647A156.159,156.159,0,0,1,0,35.5V43.3c9.369-3.308,18.773-6.53,28.173-9.741,9.521-2.764,19.035-5.606,28.744-7.654,7.673-1.672,15.461-3.128,23.338-3.128,8.374-.043,16.929,1.582,24.289,5.7a29.261,29.261,0,0,1,13.17,15.414,100.758,100.758,0,0,1,4.459,16.287A76.168,76.168,0,0,1,122.345,82.907Z" transform="translate(0 127.5)" fill="#DDDDDD" opacity="0.3"/>
        <path id="Path_9-2" data-name="Path 9" d="M474.28,17.954H499.8a926.14,926.14,0,0,1,116.86-13.28c11.733-.626,23.486-.693,35.232-.885,3.527.11,7.063.184,10.594.27V.544C636.508-.725,610.465.329,584.575,2.635,547.585,5.923,510.839,11.514,474.28,17.954Z" transform="translate(-288.597 192.452)" fill="#DDDDDD" opacity="0.3"/>
        <path id="Path_10-2" data-name="Path 10" d="M64.32,229.439c24.892,1.817,50.375.153,74.155-7.861,17.943-6.17,36.339-11.471,55.277-13.4,41.386-4.134,82.752-8.417,124.162-12.27,18.612-1.625,37.259-3.946,55.973-3.085v-4.158a269.993,269.993,0,0,0-27,.372c-7.983.556-15.926,1.507-23.886,2.29q-32.276,3.306-64.586,6.276c-18.158,1.672-36.375,2.827-54.45,5.293-25.961,3.422-51.7,8.918-76.488,17.438-11.3,3.782-23.291,4.581-35.1,5.317-16.98.865-33.99-.219-50.872-2.044C27.558,222.161,13.523,220.669,0,216.8v4.483a200.866,200.866,0,0,0,36.022,5.88C45.458,227.888,54.873,228.84,64.32,229.439Z" transform="translate(0 -93.497)" fill="#DDDDDD" opacity="0.3"/>
      </g>
    </g>
    <g id="Group_2" data-name="Group 2">
      <g id="_1010104d-3" data-name="#1010104d" transform="translate(816 339)">
        <path id="Path_1-3" data-name="Path 1" d="M0,0H5.187C15.813,5.681,25.753,12.6,36.68,17.712c7.118,3.422,14.5,6.742,22.441,7.548,5.634.6,11.655.137,16.659-2.733a13.982,13.982,0,0,0,6.828-9.2A21.4,21.4,0,0,0,80.45,0h5.238a28.067,28.067,0,0,1,1.268,14.611,17.59,17.59,0,0,1-6.683,11.264c-4.15,3.019-9.486,3.888-14.509,3.571a76.11,76.11,0,0,1-20.112-3.856C33.2,20.887,21.529,14.368,10.171,7.478,6.832,5.442,3.4,3.563,0,1.629Z" fill="#DDDDDD"/>
        <path id="Path_2-3" data-name="Path 2" d="M104.649,0h4.538c2.259,7.991,2.889,16.584.8,24.684a33.679,33.679,0,0,1-9.874,16.69c-6.127,5.642-14.345,8.644-22.574,9.286A55.068,55.068,0,0,1,65,50.1,136.95,136.95,0,0,1,35.67,42.259Q17.524,34.8,0,25.925V21.439c8.366,4.287,16.827,8.41,25.389,12.289,12.657,5.685,25.8,10.645,39.569,12.763a46.624,46.624,0,0,0,15.4.149,32.107,32.107,0,0,0,16.056-7.4,30.376,30.376,0,0,0,9.549-17.3A47.451,47.451,0,0,0,104.649,0Z" fill="#DDDDDD"/>
        <path id="Path_3-3" data-name="Path 3" d="M122.345,0h22.143c11.283,3.637,22.637,7.094,34.108,10.089,17.567,4.357,35.337,7.826,53.143,11.013,17.187,3,34.378,5.986,51.686,8.19,20.143,2.6,40.407,4.33,60.707,4.937q14.875.317,29.754,0v4.663a498.055,498.055,0,0,1-56.377-1.656c-37.044-3.171-74-7.959-110.377-15.727A675.133,675.133,0,0,1,141.748,4.26c-3.3-1.1-6.511-2.447-9.831-3.492a4.257,4.257,0,0,0-4.459.9c-.207,3.762-.243,7.67.893,11.307.576,2.087,2.791,2.889,4.6,3.61A645,645,0,0,0,313.615,51.913c16.674.9,33.38.936,50.07.7,3.4-.027,6.8-.305,10.2-.329v4.326c-4.432.352-8.879.36-13.319.446q-11.352.388-22.711.078A657.015,657.015,0,0,1,222.821,44.929c-18.048-3.574-36.061-7.493-53.679-12.83-11.577-3.465-23.052-7.258-34.613-10.766-1.742-.493-3.449-1.347-5.3-1.276-1.5.161-2,1.836-2.373,3.058-1.425,5.34-2.968,10.649-4.326,16.009a4.1,4.1,0,0,0,.262,3.3c.842,1.605,2.674,2.208,4.275,2.76,4.021,1.249,8.151,2.095,12.246,3.054,22.061,5.043,44.072,10.3,66.149,15.265,46.753,10.3,94.654,15.856,142.558,15.081,8.629-.047,17.246-.548,25.863-1v4.064c-7.3.63-14.623.822-21.94,1.1a541.163,541.163,0,0,1-60.679-1.844c-37.091-3.187-73.783-10-110-18.522-18.225-4.295-36.351-8.989-54.548-13.409-2.478-.576-5-1.48-7.58-1.057-1.926.368-3.12,2.063-4.361,3.418a37.779,37.779,0,0,1-21.29,11.839,67.6,67.6,0,0,1-19.509.619c-7.818-.865-15.586-2.807-23.5-2.3A282.158,282.158,0,0,0,0,67.123V62.836c5.434-1.261,10.958-2.126,16.475-2.94,6.515-.983,13.115-1.339,19.587-2.623a7.267,7.267,0,0,0-3.39-2.647A156.159,156.159,0,0,0,0,47.4V39.608c9.369,3.308,18.773,6.53,28.173,9.741C37.694,52.113,47.208,54.955,56.917,57c7.673,1.672,15.461,3.128,23.338,3.128,8.374.043,16.929-1.582,24.289-5.7a29.26,29.26,0,0,0,13.17-15.414,100.759,100.759,0,0,0,4.459-16.287A76.168,76.168,0,0,0,122.345,0Z" fill="#DDDDDD"/>
        <path id="Path_4-3" data-name="Path 4" d="M474.28,0H499.8a926.138,926.138,0,0,0,116.86,13.28c11.733.626,23.486.693,35.232.885,3.527-.11,7.063-.184,10.594-.27V17.41c-25.976,1.268-52.019.215-77.909-2.091C547.585,12.031,510.839,6.44,474.28,0Z" transform="translate(-288.597)" fill="#DDDDDD"/>
        <path id="Path_5-3" data-name="Path 5" d="M64.32,189.163c24.892-1.817,50.375-.153,74.155,7.861,17.943,6.17,36.339,11.471,55.277,13.4,41.386,4.134,82.752,8.417,124.162,12.27,18.612,1.625,37.259,3.946,55.973,3.085v4.158a269.993,269.993,0,0,1-27-.372c-7.983-.556-15.926-1.507-23.886-2.29Q290.727,223.97,258.416,221c-18.158-1.672-36.375-2.827-54.45-5.293-25.961-3.422-51.7-8.918-76.488-17.438-11.3-3.782-23.291-4.581-35.1-5.317-16.98-.865-33.99.219-50.872,2.044C27.558,196.442,13.523,197.933,0,201.8v-4.483a200.864,200.864,0,0,1,36.022-5.88C45.458,190.714,54.873,189.762,64.32,189.163Z" transform="translate(0 -114.699)" fill="#DDDDDD"/>
        <path id="Path_6-3" data-name="Path 6" d="M87.425,29.506H82.237c-10.625-5.681-20.566-12.6-31.493-17.712C43.627,8.373,36.247,5.053,28.3,4.247c-5.634-.6-11.655-.137-16.659,2.733a13.982,13.982,0,0,0-6.828,9.2A21.4,21.4,0,0,0,6.974,29.506H1.736A28.067,28.067,0,0,1,.468,14.9,17.59,17.59,0,0,1,7.151,3.632C11.3.613,16.637-.256,21.66.061A76.11,76.11,0,0,1,41.771,3.918C54.229,8.62,65.9,15.138,77.253,22.029c3.34,2.036,6.773,3.915,10.171,5.849Z" transform="translate(286.462 180.9)" fill="#DDDDDD"/>
        <path id="Path_7-3" data-name="Path 7" d="M6.611,50.788H2.074C-.185,42.8-.815,34.2,1.275,26.1a33.679,33.679,0,0,1,9.874-16.69C17.276,3.772,25.494.769,33.723.127A55.068,55.068,0,0,1,46.259.683,136.95,136.95,0,0,1,75.591,8.529q18.146,7.458,35.67,16.334v4.487c-8.366-4.287-16.827-8.41-25.389-12.289C73.214,11.375,60.075,6.414,46.3,4.3a46.624,46.624,0,0,0-15.4-.149,32.107,32.107,0,0,0-16.056,7.4A30.376,30.376,0,0,0,5.3,28.852,47.451,47.451,0,0,0,6.611,50.788Z" transform="translate(262.626 159.619)" fill="#DDDDDD"/>
        <path id="Path_8-3" data-name="Path 8" d="M251.542,82.907H229.4c-11.283-3.637-22.637-7.094-34.108-10.089-17.567-4.357-35.337-7.826-53.143-11.013-17.187-3-34.378-5.986-51.686-8.19-20.143-2.6-40.407-4.33-60.707-4.937Q14.879,48.36,0,48.677V44.015a498.055,498.055,0,0,1,56.377,1.656c37.044,3.171,74,7.959,110.377,15.727a675.133,675.133,0,0,1,65.385,17.25c3.3,1.1,6.511,2.447,9.831,3.492a4.257,4.257,0,0,0,4.459-.9c.207-3.762.243-7.67-.893-11.307-.576-2.087-2.791-2.889-4.6-3.61A645,645,0,0,0,60.272,30.993c-16.674-.9-33.38-.936-50.07-.7-3.4.027-6.8.305-10.2.329V26.3c4.432-.352,8.879-.36,13.319-.446q11.352-.388,22.711-.078A657.015,657.015,0,0,1,151.066,37.978c18.048,3.574,36.061,7.493,53.679,12.83,11.577,3.465,23.052,7.258,34.613,10.766,1.742.493,3.449,1.347,5.3,1.276,1.5-.161,2-1.836,2.373-3.058,1.425-5.34,2.968-10.649,4.326-16.009a4.1,4.1,0,0,0-.262-3.3c-.842-1.605-2.674-2.208-4.275-2.76-4.021-1.249-8.151-2.095-12.246-3.054-22.061-5.043-44.072-10.3-66.149-15.265C121.668,9.1,73.767,3.545,25.863,4.32c-8.629.047-17.246.548-25.863,1V1.258C7.3.628,14.623.436,21.94.154A541.163,541.163,0,0,1,82.619,2c37.091,3.187,73.783,10,110,18.522,18.225,4.295,36.351,8.989,54.548,13.409,2.478.576,5,1.48,7.58,1.057,1.926-.368,3.12-2.063,4.361-3.418A37.779,37.779,0,0,1,280.4,19.73a67.6,67.6,0,0,1,19.509-.619c7.818.865,15.586,2.807,23.5,2.3a282.158,282.158,0,0,0,50.477-5.63V20.07c-5.434,1.261-10.958,2.126-16.475,2.94-6.515.983-13.115,1.339-19.587,2.623a7.267,7.267,0,0,0,3.39,2.647A156.159,156.159,0,0,0,373.887,35.5V43.3c-9.369-3.308-18.773-6.53-28.173-9.741-9.521-2.764-19.035-5.606-28.744-7.654-7.673-1.672-15.461-3.128-23.338-3.128-8.374-.043-16.929,1.582-24.289,5.7a29.261,29.261,0,0,0-13.17,15.414,100.758,100.758,0,0,0-4.459,16.287A76.168,76.168,0,0,0,251.542,82.907Z" transform="translate(0 127.5)" fill="#DDDDDD"/>
        <path id="Path_9-3" data-name="Path 9" d="M662.484,17.954H636.966a926.14,926.14,0,0,0-116.86-13.28c-11.733-.626-23.486-.693-35.232-.885-3.527.11-7.063.184-10.594.27V.544C500.256-.725,526.3.329,552.189,2.635,589.179,5.923,625.925,11.514,662.484,17.954Z" transform="translate(-474.28 192.452)" fill="#DDDDDD"/>
        <path id="Path_10-3" data-name="Path 10" d="M309.566,229.439c-24.892,1.817-50.375.153-74.155-7.861-17.943-6.17-36.339-11.471-55.277-13.4-41.386-4.134-82.752-8.417-124.162-12.27C37.361,194.281,18.714,191.96,0,192.821v-4.158a269.993,269.993,0,0,1,27,.372c7.983.556,15.926,1.507,23.886,2.29q32.276,3.306,64.586,6.276c18.158,1.672,36.375,2.827,54.45,5.293,25.961,3.422,51.7,8.918,76.488,17.438,11.3,3.782,23.291,4.581,35.1,5.317,16.98.865,33.99-.219,50.872-2.044,13.949-1.445,27.985-2.936,41.507-6.8v4.483a200.866,200.866,0,0,1-36.022,5.88C328.429,227.888,319.013,228.84,309.566,229.439Z" transform="translate(0 -93.497)" fill="#DDDDDD"/>
      </g>
      <g id="_1010104d-4" data-name="#1010104d" transform="translate(816 549)">
        <path id="Path_1-4" data-name="Path 1" d="M87.425,0H82.237C71.612,5.681,61.672,12.6,50.745,17.712c-7.118,3.422-14.5,6.742-22.441,7.548-5.634.6-11.655.137-16.659-2.733a13.982,13.982,0,0,1-6.828-9.2A21.4,21.4,0,0,1,6.974,0H1.736A28.067,28.067,0,0,0,.468,14.611,17.59,17.59,0,0,0,7.151,25.875c4.15,3.019,9.486,3.888,14.509,3.571a76.11,76.11,0,0,0,20.112-3.856C54.229,20.887,65.9,14.368,77.253,7.478c3.34-2.036,6.773-3.915,10.171-5.849Z" transform="translate(286.462)" fill="#DDDDDD"/>
        <path id="Path_2-4" data-name="Path 2" d="M6.611,0H2.074c-2.259,7.991-2.889,16.584-.8,24.684a33.679,33.679,0,0,0,9.874,16.69c6.127,5.642,14.345,8.644,22.574,9.286A55.068,55.068,0,0,0,46.259,50.1a136.95,136.95,0,0,0,29.332-7.846q18.146-7.458,35.67-16.334V21.439c-8.366,4.287-16.827,8.41-25.389,12.289C73.214,39.413,60.075,44.373,46.3,46.491a46.624,46.624,0,0,1-15.4.149,32.107,32.107,0,0,1-16.056-7.4A30.376,30.376,0,0,1,5.3,21.936,47.451,47.451,0,0,1,6.611,0Z" transform="translate(262.626)" fill="#DDDDDD"/>
        <path id="Path_3-4" data-name="Path 3" d="M251.542,0H229.4c-11.283,3.637-22.637,7.094-34.108,10.089-17.567,4.357-35.337,7.826-53.143,11.013-17.187,3-34.378,5.986-51.686,8.19-20.143,2.6-40.407,4.33-60.707,4.937q-14.875.317-29.754,0v4.663a498.055,498.055,0,0,0,56.377-1.656c37.044-3.171,74-7.959,110.377-15.727A675.133,675.133,0,0,0,232.139,4.26c3.3-1.1,6.511-2.447,9.831-3.492a4.257,4.257,0,0,1,4.459.9c.207,3.762.243,7.67-.893,11.307-.576,2.087-2.791,2.889-4.6,3.61A645,645,0,0,1,60.272,51.913c-16.674.9-33.38.936-50.07.7-3.4-.027-6.8-.305-10.2-.329v4.326c4.432.352,8.879.36,13.319.446q11.352.388,22.711.078A657.015,657.015,0,0,0,151.066,44.929c18.048-3.574,36.061-7.493,53.679-12.83,11.577-3.465,23.052-7.258,34.613-10.766,1.742-.493,3.449-1.347,5.3-1.276,1.5.161,2,1.836,2.373,3.058,1.425,5.34,2.968,10.649,4.326,16.009a4.1,4.1,0,0,1-.262,3.3c-.842,1.605-2.674,2.208-4.275,2.76-4.021,1.249-8.151,2.095-12.246,3.054-22.061,5.043-44.072,10.3-66.149,15.265C121.668,73.81,73.767,79.362,25.863,78.587c-8.629-.047-17.246-.548-25.863-1v4.064c7.3.63,14.623.822,21.94,1.1a541.163,541.163,0,0,0,60.679-1.844c37.091-3.187,73.783-10,110-18.522,18.225-4.295,36.351-8.989,54.548-13.409,2.478-.576,5-1.48,7.58-1.057,1.926.368,3.12,2.063,4.361,3.418A37.779,37.779,0,0,0,280.4,63.177a67.6,67.6,0,0,0,19.509.619c7.818-.865,15.586-2.807,23.5-2.3a282.158,282.158,0,0,1,50.477,5.63V62.836c-5.434-1.261-10.958-2.126-16.475-2.94-6.515-.983-13.115-1.339-19.587-2.623a7.267,7.267,0,0,1,3.39-2.647A156.159,156.159,0,0,1,373.887,47.4V39.608c-9.369,3.308-18.773,6.53-28.173,9.741-9.521,2.764-19.035,5.606-28.744,7.654-7.673,1.672-15.461,3.128-23.338,3.128-8.374.043-16.929-1.582-24.289-5.7a29.261,29.261,0,0,1-13.17-15.414,100.758,100.758,0,0,1-4.459-16.287A76.168,76.168,0,0,1,251.542,0Z" transform="translate(0)" fill="#DDDDDD"/>
        <path id="Path_4-4" data-name="Path 4" d="M662.484,0H636.966a926.14,926.14,0,0,1-116.86,13.28c-11.733.626-23.486.693-35.232.885-3.527-.11-7.063-.184-10.594-.27V17.41c25.976,1.268,52.019.215,77.909-2.091C589.179,12.031,625.925,6.44,662.484,0Z" transform="translate(-474.28)" fill="#DDDDDD"/>
        <path id="Path_5-4" data-name="Path 5" d="M309.566,189.163c-24.892-1.817-50.375-.153-74.155,7.861-17.943,6.17-36.339,11.471-55.277,13.4-41.386,4.134-82.752,8.417-124.162,12.27C37.361,224.321,18.714,226.642,0,225.781v4.158a269.993,269.993,0,0,0,27-.372c7.983-.556,15.926-1.507,23.886-2.29Q83.159,223.97,115.47,221c18.158-1.672,36.375-2.827,54.45-5.293,25.961-3.422,51.7-8.918,76.488-17.438,11.3-3.782,23.291-4.581,35.1-5.317,16.98-.865,33.99.219,50.872,2.044,13.949,1.445,27.985,2.936,41.507,6.8v-4.483a200.864,200.864,0,0,0-36.022-5.88C328.429,190.714,319.013,189.762,309.566,189.163Z" transform="translate(0 -114.699)" fill="#DDDDDD"/>
        <path id="Path_6-4" data-name="Path 6" d="M0,29.506H5.187c10.625-5.681,20.566-12.6,31.493-17.712,7.118-3.422,14.5-6.742,22.441-7.548,5.634-.6,11.655-.137,16.659,2.733a13.982,13.982,0,0,1,6.828,9.2A21.4,21.4,0,0,1,80.45,29.506h5.238A28.067,28.067,0,0,0,86.957,14.9,17.59,17.59,0,0,0,80.274,3.632C76.124.613,70.788-.256,65.765.061A76.11,76.11,0,0,0,45.653,3.918C33.2,8.62,21.529,15.138,10.171,22.029,6.832,24.065,3.4,25.944,0,27.878Z" transform="translate(0 180.9)" fill="#DDDDDD"/>
        <path id="Path_7-4" data-name="Path 7" d="M104.649,50.788h4.538c2.259-7.991,2.889-16.584.8-24.684a33.679,33.679,0,0,0-9.874-16.69C93.985,3.772,85.767.769,77.537.127A55.068,55.068,0,0,0,65,.683,136.95,136.95,0,0,0,35.67,8.529Q17.524,15.987,0,24.862v4.487c8.366-4.287,16.827-8.41,25.389-12.289C38.046,11.375,51.185,6.414,64.958,4.3a46.624,46.624,0,0,1,15.4-.149,32.107,32.107,0,0,1,16.056,7.4,30.376,30.376,0,0,1,9.549,17.3A47.451,47.451,0,0,1,104.649,50.788Z" transform="translate(0 159.619)" fill="#DDDDDD"/>
        <path id="Path_8-4" data-name="Path 8" d="M122.345,82.907h22.143c11.283-3.637,22.637-7.094,34.108-10.089,17.567-4.357,35.337-7.826,53.143-11.013,17.187-3,34.378-5.986,51.686-8.19,20.143-2.6,40.407-4.33,60.707-4.937q14.875-.317,29.754,0V44.015a498.055,498.055,0,0,0-56.377,1.656c-37.044,3.171-74,7.959-110.377,15.727a675.133,675.133,0,0,0-65.385,17.25c-3.3,1.1-6.511,2.447-9.831,3.492a4.257,4.257,0,0,1-4.459-.9c-.207-3.762-.243-7.67.893-11.307.576-2.087,2.791-2.889,4.6-3.61A645,645,0,0,1,313.615,30.993c16.674-.9,33.38-.936,50.07-.7,3.4.027,6.8.305,10.2.329V26.3c-4.432-.352-8.879-.36-13.319-.446q-11.352-.388-22.711-.078A657.015,657.015,0,0,0,222.821,37.978c-18.048,3.574-36.061,7.493-53.679,12.83-11.577,3.465-23.052,7.258-34.613,10.766-1.742.493-3.449,1.347-5.3,1.276-1.5-.161-2-1.836-2.373-3.058-1.425-5.34-2.968-10.649-4.326-16.009a4.1,4.1,0,0,1,.262-3.3c.842-1.605,2.674-2.208,4.275-2.76,4.021-1.249,8.151-2.095,12.246-3.054,22.061-5.043,44.072-10.3,66.149-15.265C252.219,9.1,300.119,3.545,348.024,4.32c8.629.047,17.246.548,25.863,1V1.258c-7.3-.63-14.623-.822-21.94-1.1A541.163,541.163,0,0,0,291.267,2c-37.091,3.187-73.783,10-110,18.522-18.225,4.295-36.351,8.989-54.548,13.409-2.478.576-5,1.48-7.58,1.057-1.926-.368-3.12-2.063-4.361-3.418A37.779,37.779,0,0,0,93.487,19.73a67.6,67.6,0,0,0-19.509-.619c-7.818.865-15.586,2.807-23.5,2.3A282.158,282.158,0,0,1,0,15.783V20.07c5.434,1.261,10.958,2.126,16.475,2.94,6.515.983,13.115,1.339,19.587,2.623a7.267,7.267,0,0,1-3.39,2.647A156.159,156.159,0,0,1,0,35.5V43.3c9.369-3.308,18.773-6.53,28.173-9.741,9.521-2.764,19.035-5.606,28.744-7.654,7.673-1.672,15.461-3.128,23.338-3.128,8.374-.043,16.929,1.582,24.289,5.7a29.261,29.261,0,0,1,13.17,15.414,100.758,100.758,0,0,1,4.459,16.287A76.168,76.168,0,0,1,122.345,82.907Z" transform="translate(0 127.5)" fill="#DDDDDD"/>
        <path id="Path_9-4" data-name="Path 9" d="M474.28,17.954H499.8a926.14,926.14,0,0,1,116.86-13.28c11.733-.626,23.486-.693,35.232-.885,3.527.11,7.063.184,10.594.27V.544C636.508-.725,610.465.329,584.575,2.635,547.585,5.923,510.839,11.514,474.28,17.954Z" transform="translate(-288.597 192.452)" fill="#DDDDDD"/>
        <path id="Path_10-4" data-name="Path 10" d="M64.32,229.439c24.892,1.817,50.375.153,74.155-7.861,17.943-6.17,36.339-11.471,55.277-13.4,41.386-4.134,82.752-8.417,124.162-12.27,18.612-1.625,37.259-3.946,55.973-3.085v-4.158a269.993,269.993,0,0,0-27,.372c-7.983.556-15.926,1.507-23.886,2.29q-32.276,3.306-64.586,6.276c-18.158,1.672-36.375,2.827-54.45,5.293-25.961,3.422-51.7,8.918-76.488,17.438-11.3,3.782-23.291,4.581-35.1,5.317-16.98.865-33.99-.219-50.872-2.044C27.558,222.161,13.523,220.669,0,216.8v4.483a200.866,200.866,0,0,0,36.022,5.88C45.458,227.888,54.873,228.84,64.32,229.439Z" transform="translate(0 -93.497)" fill="#DDDDDD"/>
      </g>
    </g>
  </g>
</svg>
