<?xml version="1.0" encoding="UTF-8" ?>
<!DOCTYPE svg PUBLIC "-//W3C//DTD SVG 1.1//EN" "http://www.w3.org/Graphics/SVG/1.1/DTD/svg11.dtd">
<svg width="955pt" height="970pt" viewBox="0 0 955 970" version="1.1" xmlns="http://www.w3.org/2000/svg">
<g id="#1010104d">
<path fill="#101010" opacity="0.30" d=" M 0.00 0.00 L 13.25 0.00 C 40.39 14.51 65.78 32.18 93.69 45.24 C 111.87 53.98 130.72 62.46 151.01 64.52 C 165.40 66.05 180.78 64.87 193.56 57.54 C 202.33 52.60 208.96 43.94 211.00 34.04 C 213.28 22.47 210.57 10.46 205.49 0.00 L 218.87 0.00 C 222.96 11.92 224.64 24.88 222.11 37.32 C 220.07 48.50 214.43 59.40 205.04 66.09 C 194.44 73.80 180.81 76.02 167.98 75.21 C 150.57 73.89 133.09 71.30 116.61 65.36 C 84.79 53.35 54.99 36.70 25.98 19.10 C 17.45 13.90 8.68 9.10 0.00 4.16 L 0.00 0.00 Z" />
<path fill="#101010" opacity="0.30" d=" M 267.30 0.00 L 278.89 0.00 C 284.66 20.41 286.27 42.36 280.93 63.05 C 276.82 79.27 268.17 94.42 255.71 105.68 C 240.06 120.09 219.07 127.76 198.05 129.40 C 187.37 130.07 176.60 129.75 166.03 127.98 C 140.48 123.85 115.16 117.62 91.11 107.94 C 60.21 95.24 29.82 81.29 0.00 66.22 L 0.00 54.76 C 21.37 65.71 42.98 76.24 64.85 86.15 C 97.18 100.67 130.74 113.34 165.92 118.75 C 178.90 120.88 192.25 121.36 205.25 119.13 C 220.26 116.64 234.82 110.38 246.26 100.23 C 259.21 88.91 267.52 72.85 270.65 56.03 C 274.03 37.46 272.69 18.07 267.30 0.00 Z" />
<path fill="#101010" opacity="0.30" d=" M 312.50 0.00 L 369.06 0.00 C 397.88 9.29 426.88 18.12 456.18 25.77 C 501.05 36.90 546.44 45.76 591.92 53.90 C 635.82 61.57 679.73 69.19 723.94 74.82 C 775.39 81.47 827.15 85.88 879.00 87.43 C 904.33 87.97 929.67 87.97 955.00 87.43 L 955.00 99.34 C 906.96 100.75 858.88 99.14 811.00 95.11 C 716.38 87.01 621.99 74.78 529.07 54.94 C 472.73 43.00 416.93 28.40 362.06 10.88 C 353.63 8.08 345.43 4.63 336.95 1.96 C 333.12 0.63 328.41 1.22 325.56 4.27 C 325.03 13.88 324.94 23.86 327.84 33.15 C 329.31 38.48 334.97 40.53 339.59 42.37 C 488.08 94.15 643.95 124.95 801.05 132.60 C 843.64 134.91 886.31 134.99 928.94 134.39 C 937.63 134.32 946.30 133.61 955.00 133.55 L 955.00 144.60 C 943.68 145.50 932.32 145.52 920.98 145.74 C 901.65 146.40 882.30 146.46 862.97 145.94 C 764.35 144.47 665.94 133.51 569.14 114.76 C 523.04 105.63 477.03 95.62 432.03 81.99 C 402.46 73.14 373.15 63.45 343.62 54.49 C 339.17 53.23 334.81 51.05 330.09 51.23 C 326.26 51.64 324.99 55.92 324.03 59.04 C 320.39 72.68 316.45 86.24 312.98 99.93 C 312.26 102.71 312.00 105.85 313.65 108.37 C 315.80 112.47 320.48 114.01 324.57 115.42 C 334.84 118.61 345.39 120.77 355.85 123.22 C 412.20 136.10 468.42 149.53 524.81 162.21 C 644.23 188.53 766.58 202.71 888.94 200.73 C 910.98 200.61 932.99 199.33 955.00 198.17 L 955.00 208.55 C 936.36 210.16 917.65 210.65 898.96 211.37 C 847.26 212.48 795.49 211.35 743.97 206.66 C 649.23 198.52 555.51 181.11 463.00 159.35 C 416.45 148.38 370.15 136.39 323.67 125.10 C 317.34 123.63 310.89 121.32 304.31 122.40 C 299.39 123.34 296.34 127.67 293.17 131.13 C 279.18 147.05 259.51 157.43 238.79 161.37 C 222.40 164.60 205.53 164.54 188.96 162.95 C 168.99 160.74 149.15 155.78 128.93 157.07 C 85.67 158.25 42.38 162.52 0.00 171.45 L 0.00 160.50 C 13.88 157.28 27.99 155.07 42.08 152.99 C 58.72 150.48 75.58 149.57 92.11 146.29 C 89.74 143.46 87.13 140.57 83.45 139.53 C 56.37 130.54 28.39 124.09 0.00 121.08 L 0.00 101.17 C 23.93 109.62 47.95 117.85 71.96 126.05 C 96.28 133.11 120.58 140.37 145.38 145.60 C 164.98 149.87 184.87 153.59 204.99 153.59 C 226.38 153.70 248.23 149.55 267.03 139.04 C 282.46 130.45 294.63 116.27 300.67 99.67 C 305.54 86.13 309.52 72.24 312.06 58.07 C 315.48 38.90 314.89 19.25 312.50 0.00 Z" />
<path fill="#101010" opacity="0.30" d=" M 474.28 0.00 L 539.46 0.00 C 638.16 17.18 737.83 29.39 837.95 33.92 C 867.92 35.52 897.94 35.69 927.94 36.18 C 936.95 35.90 945.98 35.71 955.00 35.49 L 955.00 44.47 C 888.65 47.71 822.13 45.02 756.00 39.13 C 661.52 30.73 567.66 16.45 474.28 0.00 Z" />
<path fill="#101010" opacity="0.30" d=" M 164.29 190.20 C 227.87 185.56 292.96 189.81 353.70 210.28 C 399.53 226.04 446.52 239.58 494.89 244.51 C 600.60 255.07 706.26 266.01 812.03 275.85 C 859.57 280.00 907.20 285.93 955.00 283.73 L 955.00 294.35 C 932.01 295.03 908.98 295.02 886.04 293.40 C 865.65 291.98 845.36 289.55 825.03 287.55 C 770.07 281.92 715.09 276.48 660.06 271.52 C 613.68 267.25 567.15 264.30 520.98 258.00 C 454.67 249.26 388.92 235.22 325.61 213.46 C 296.74 203.80 266.12 201.76 235.96 199.88 C 192.59 197.67 149.14 200.44 106.02 205.10 C 70.39 208.79 34.54 212.60 0.00 222.48 L 0.00 211.03 C 30.08 203.06 60.99 198.40 92.01 196.01 C 116.11 194.16 140.16 191.73 164.29 190.20 Z" />
<path fill="#101010" opacity="0.30" d=" M 0.00 282.12 C 43.53 266.61 88.56 253.48 134.99 251.41 C 149.34 250.90 163.72 251.05 178.04 252.07 C 226.06 254.76 273.99 259.05 321.76 264.69 C 345.06 267.31 367.13 275.68 389.33 282.73 C 394.53 284.45 400.09 286.02 404.10 289.96 C 408.55 294.28 409.71 301.84 406.07 307.01 C 402.95 311.40 397.91 313.73 393.33 316.27 C 380.60 323.14 367.79 329.92 354.28 335.18 C 330.18 345.04 306.95 357.05 284.95 370.99 C 245.05 396.23 209.34 427.83 178.37 463.41 C 128.37 520.37 82.36 580.93 42.34 645.33 C 24.90 672.65 10.81 702.05 0.00 732.59 L 0.00 698.98 C 12.56 670.24 27.74 642.58 46.30 617.26 C 68.56 586.62 90.87 556.01 113.75 525.82 C 135.14 497.70 156.36 469.32 180.73 443.66 C 201.74 421.30 224.59 400.65 249.11 382.18 C 260.05 373.99 271.19 366.02 282.97 359.06 C 307.20 344.58 333.13 333.32 358.89 321.90 C 373.13 314.84 387.13 307.25 400.93 299.37 C 399.28 298.07 397.30 297.29 395.37 296.54 C 387.71 293.61 380.28 290.10 372.54 287.40 C 339.76 276.35 305.37 271.16 271.04 267.93 C 244.39 265.54 217.69 263.77 191.01 261.72 C 166.32 260.55 141.50 260.89 116.96 264.00 C 83.93 267.95 51.49 276.07 20.11 287.03 C 13.41 289.38 6.62 291.44 0.00 294.01 L 0.00 282.12 Z" />
<path fill="#101010" opacity="0.30" d=" M 518.66 301.66 C 561.00 289.58 605.02 283.75 649.01 283.10 C 659.96 282.42 670.92 283.17 681.88 283.38 C 732.98 284.58 783.39 293.68 833.97 300.15 C 874.23 305.43 914.55 310.28 955.00 313.85 L 955.00 324.70 C 912.21 321.51 869.64 315.97 827.10 310.43 C 782.13 304.73 737.24 298.10 691.99 294.99 C 613.00 289.16 532.72 302.09 459.59 332.56 C 400.62 356.96 346.25 391.63 297.15 432.22 C 245.52 475.06 200.65 525.91 164.10 582.14 C 124.24 643.24 94.13 710.34 71.57 779.61 C 51.04 841.71 36.72 905.67 25.24 970.00 L 14.12 970.00 C 16.62 955.66 18.99 941.29 21.83 927.01 C 37.63 845.29 61.30 764.94 94.63 688.61 C 121.24 627.94 155.03 570.25 196.70 518.66 C 236.76 468.91 284.07 425.08 336.35 388.42 C 391.73 349.61 453.56 319.98 518.66 301.66 Z" />
<path fill="#101010" opacity="0.30" d=" M 56.45 297.74 C 116.86 286.24 178.83 284.11 240.05 289.09 C 250.05 289.75 260.07 291.18 269.62 294.34 C 277.15 296.96 284.56 301.03 289.36 307.57 C 293.08 312.57 294.26 319.38 292.04 325.25 C 289.06 333.75 281.71 339.60 274.61 344.64 C 260.34 354.81 244.61 362.64 229.60 371.61 C 212.43 381.85 194.97 391.59 177.83 401.88 C 133.88 427.93 94.23 461.14 60.58 499.57 C 37.34 526.15 17.16 555.35 0.00 586.19 L 0.00 566.02 C 17.41 536.92 37.20 509.19 59.94 484.01 C 80.44 461.09 103.28 440.27 127.87 421.82 C 160.59 397.16 196.96 378.08 231.94 356.93 C 246.18 348.10 261.79 341.42 274.96 330.90 C 278.84 327.84 281.49 322.96 280.77 317.91 C 280.10 311.40 274.49 306.59 268.66 304.47 C 261.08 301.84 252.98 301.44 245.07 300.54 C 162.98 292.20 78.96 298.51 0.00 323.07 L 0.00 311.59 C 18.50 305.79 37.43 301.45 56.45 297.74 Z" />
<path fill="#101010" opacity="0.30" d=" M 152.95 319.84 C 159.15 318.90 165.83 318.51 171.64 321.31 C 182.20 326.35 187.94 339.52 184.68 350.72 C 183.35 355.43 180.50 359.58 177.02 362.97 C 170.70 369.14 163.63 374.58 155.90 378.88 C 132.12 392.33 107.04 403.41 83.81 417.84 C 52.68 436.96 23.97 460.30 0.00 487.94 L 0.00 469.46 C 32.43 436.03 72.12 410.63 113.22 389.21 C 126.91 381.89 141.20 375.69 154.42 367.53 C 161.85 362.82 168.76 356.59 172.47 348.48 C 175.05 343.07 173.39 335.95 168.08 332.88 C 161.04 328.24 152.31 329.99 144.55 331.29 C 94.98 337.75 46.14 350.39 0.00 369.67 L 0.00 357.55 C 24.67 347.71 50.23 340.19 76.00 333.85 C 101.39 327.84 127.25 324.18 152.95 319.84 Z" />
<path fill="#101010" opacity="0.30" d=" M 674.95 338.12 C 723.94 335.68 773.03 336.22 822.03 338.09 C 866.36 339.44 910.67 341.54 955.00 343.15 L 955.00 353.57 C 909.33 352.05 863.69 349.52 818.02 348.16 C 796.71 347.07 775.36 347.49 754.04 346.84 C 712.65 347.12 671.25 348.12 629.97 351.33 C 582.71 354.87 535.60 360.74 489.00 369.47 C 456.18 375.80 423.97 385.63 393.54 399.54 C 361.79 413.99 332.09 432.94 305.64 455.68 C 281.56 476.26 260.51 500.12 241.15 525.13 C 199.43 579.15 167.10 639.86 140.74 702.67 C 105.08 788.04 84.03 878.76 70.15 970.00 L 60.03 970.00 C 60.53 966.33 61.05 962.68 61.64 959.04 C 73.30 886.30 89.59 814.13 113.47 744.38 C 135.54 680.04 164.59 617.92 201.88 560.96 C 219.25 534.49 238.16 508.96 259.44 485.48 C 300.05 440.28 350.40 403.14 407.41 381.47 C 444.91 366.96 484.39 358.23 524.12 352.56 C 574.11 345.24 624.47 340.37 674.95 338.12 Z" />
<path fill="#101010" opacity="0.30" d=" M 573.96 365.14 C 619.21 361.33 664.72 362.75 709.96 365.99 C 757.42 369.43 804.69 375.05 852.06 379.52 C 886.31 382.72 920.63 385.13 955.00 386.56 L 955.00 396.13 C 868.54 390.99 782.41 381.47 696.00 375.60 C 651.74 372.86 607.19 371.97 563.04 376.84 C 524.94 381.05 487.11 389.27 451.39 403.37 C 422.62 414.68 395.30 429.84 370.87 448.81 C 346.33 467.78 324.84 490.61 307.02 515.98 C 287.91 543.60 270.37 572.40 255.80 602.70 C 242.33 631.21 231.25 660.79 220.32 690.36 C 205.72 730.37 192.55 770.89 179.39 811.39 C 162.47 863.72 147.49 916.67 134.04 970.00 L 122.29 970.00 C 139.49 902.74 158.53 835.95 179.76 769.85 C 190.74 736.11 201.66 702.33 214.12 669.10 C 226.87 635.37 241.40 602.26 258.71 570.60 C 274.27 542.17 291.90 514.74 312.94 490.03 C 332.34 467.04 354.64 446.46 379.35 429.29 C 404.93 411.50 433.12 397.53 462.63 387.56 C 498.61 375.44 536.17 368.39 573.96 365.14 Z" />
<path fill="#101010" opacity="0.30" d=" M 570.74 413.83 C 616.86 404.93 664.14 402.72 710.98 405.64 C 735.84 407.36 760.50 411.12 785.06 415.22 C 841.67 424.51 897.92 436.25 955.00 442.41 L 955.00 453.24 C 921.36 450.29 888.05 444.61 854.91 438.28 C 809.79 430.13 764.72 421.20 719.08 416.51 C 650.05 410.01 579.35 417.25 513.95 440.77 C 523.46 451.75 530.76 464.78 533.91 479.03 C 551.49 468.58 570.83 461.01 591.03 457.61 C 608.76 454.22 626.88 455.14 644.81 455.70 C 671.60 456.99 698.39 458.90 724.99 462.52 C 743.09 464.85 761.01 468.34 779.08 470.89 C 837.24 479.45 896.28 483.69 955.00 479.29 L 955.00 488.33 C 914.51 492.37 873.55 493.48 833.04 489.02 C 826.90 488.20 820.59 486.93 814.55 489.01 C 846.23 494.29 877.94 499.72 909.90 503.06 C 924.90 504.54 939.94 505.85 955.00 506.64 L 955.00 517.64 C 915.48 515.49 876.09 511.03 837.09 504.34 C 798.35 497.46 759.43 490.49 720.00 489.51 C 697.64 489.10 675.13 490.09 653.15 494.52 C 619.08 501.30 586.48 515.70 558.85 536.79 C 534.16 555.58 513.47 579.72 499.21 607.30 C 480.49 643.22 473.06 684.92 478.24 725.09 C 482.40 758.02 494.71 789.43 510.80 818.29 C 540.85 872.31 577.16 922.69 616.87 970.00 L 603.11 970.00 C 565.02 925.19 530.38 877.12 503.07 824.93 C 489.50 798.41 476.35 771.20 470.27 741.84 C 461.81 702.96 464.53 661.68 478.50 624.39 C 489.89 593.70 508.58 565.82 532.40 543.39 C 570.79 506.74 622.29 485.11 674.92 480.27 C 698.60 478.11 722.43 479.45 746.14 480.54 C 751.29 480.77 756.45 480.83 761.61 480.58 C 722.60 472.30 683.02 465.43 643.02 465.33 C 620.93 465.21 598.57 466.22 577.16 472.12 C 562.40 476.09 548.30 482.40 535.41 490.60 C 535.13 496.20 535.22 502.19 532.12 507.11 C 529.34 511.68 525.42 516.23 520.00 517.48 C 515.59 518.49 511.92 515.41 508.67 512.95 C 485.01 536.81 464.15 563.72 448.65 593.61 C 434.77 620.88 423.68 650.25 421.69 681.04 C 421.00 692.38 421.51 703.80 423.42 715.01 C 431.09 760.42 441.57 805.34 454.25 849.61 C 467.19 894.15 490.82 935.33 521.51 970.00 L 489.83 970.00 C 488.67 961.75 487.08 953.55 484.54 945.61 C 479.25 953.08 475.38 961.42 472.25 970.00 L 458.53 970.00 C 461.01 963.46 463.34 956.85 466.65 950.67 C 469.69 944.64 474.09 938.95 474.54 931.97 C 475.13 923.92 470.88 916.65 466.96 909.96 C 465.13 906.93 461.98 903.17 457.99 904.66 C 453.01 906.87 449.98 911.74 446.89 916.00 C 436.17 931.89 433.72 951.42 431.48 970.00 L 419.01 970.00 C 420.54 944.91 427.10 918.54 444.99 899.93 C 448.92 895.60 455.34 891.73 454.58 885.01 C 453.18 877.88 448.12 872.25 444.51 866.15 C 440.63 873.62 436.38 880.90 432.48 888.36 C 426.71 899.00 424.85 911.10 421.59 922.62 C 417.52 938.32 414.01 954.16 410.55 970.00 L 398.01 970.00 C 403.46 933.85 412.55 897.36 432.14 866.07 C 435.15 861.01 439.58 856.25 439.82 850.07 C 440.34 843.55 437.03 837.60 433.67 832.29 C 433.04 831.49 432.00 829.52 430.83 830.69 C 418.13 840.93 408.90 855.08 403.38 870.35 C 398.04 884.78 395.84 900.07 392.98 915.12 C 389.56 933.36 386.70 951.71 383.54 970.00 L 372.24 970.00 C 378.10 936.89 384.19 903.75 393.34 871.37 C 397.91 855.69 405.65 840.77 416.78 828.74 C 421.23 823.90 425.42 818.44 426.89 811.89 C 428.30 806.12 427.20 800.13 425.34 794.61 C 422.34 785.71 420.44 776.51 417.94 767.47 C 408.38 780.49 400.40 794.60 392.99 808.94 C 376.05 841.84 363.42 876.95 355.33 913.06 C 351.31 931.92 347.58 950.88 344.97 970.00 L 334.00 970.00 C 338.47 938.95 343.99 907.97 352.77 877.82 C 362.35 844.69 375.73 812.49 394.26 783.33 C 398.36 776.71 403.30 770.56 406.47 763.39 C 410.85 753.90 412.24 743.31 412.22 732.94 C 411.79 718.76 409.72 704.69 409.25 690.52 C 388.06 715.34 371.28 743.84 359.19 774.13 C 334.54 837.14 319.49 903.44 308.14 970.00 L 296.14 970.00 C 302.00 935.33 309.05 900.86 317.75 866.78 C 327.01 830.89 336.66 794.85 352.10 761.03 C 362.74 737.49 375.73 714.94 391.50 694.45 C 397.23 686.86 404.05 679.98 408.17 671.30 C 417.46 652.61 418.38 631.35 424.02 611.53 C 397.12 628.17 375.40 652.29 359.49 679.48 C 322.92 742.53 301.90 813.03 284.47 883.37 C 277.49 911.98 272.04 940.94 267.33 970.00 L 255.86 970.00 C 267.47 889.66 289.09 810.78 319.64 735.58 C 332.09 704.79 346.58 674.45 366.93 648.02 C 384.53 624.91 406.83 605.25 432.49 591.52 C 435.93 589.80 438.77 587.10 440.76 583.83 C 452.82 565.04 465.49 546.65 477.77 528.01 C 477.10 526.42 476.44 524.83 475.79 523.24 C 458.73 528.01 441.12 531.38 425.07 539.13 C 397.00 552.21 374.43 574.52 355.77 598.80 C 335.20 625.45 318.59 654.93 304.33 685.37 C 273.29 752.05 251.64 822.89 237.55 895.01 C 232.88 919.92 228.47 944.89 225.01 970.00 L 213.19 970.00 C 226.18 890.04 242.72 810.18 271.10 734.11 C 282.85 702.73 296.60 672.06 312.80 642.72 C 329.85 612.11 350.40 583.06 376.43 559.41 C 397.56 540.04 423.02 524.93 450.99 518.01 C 461.31 515.36 471.90 513.95 482.52 513.24 C 490.65 512.75 497.72 508.19 503.59 502.88 C 500.18 493.99 496.71 485.10 494.16 475.92 C 492.54 467.06 491.01 457.91 492.88 448.96 C 434.24 473.44 381.30 511.63 340.11 560.06 C 319.78 583.85 302.25 610.01 287.79 637.75 C 270.70 670.53 256.74 704.88 244.94 739.89 C 232.88 775.40 223.41 811.70 213.98 847.96 C 203.55 888.44 194.23 929.20 185.17 970.00 L 172.19 970.00 C 188.52 892.30 208.73 815.41 232.66 739.70 C 243.87 704.89 257.00 670.57 274.32 638.31 C 305.99 580.22 348.32 527.23 401.54 487.51 C 451.16 450.13 509.83 425.47 570.74 413.83 M 504.87 452.85 C 503.91 458.28 502.83 463.70 501.74 469.11 C 501.23 470.92 501.65 472.77 502.45 474.43 C 505.55 481.31 508.41 488.31 511.98 494.97 C 515.87 492.12 519.57 489.02 523.39 486.07 C 521.65 478.87 519.45 471.69 515.70 465.26 C 512.89 460.49 508.71 456.77 504.87 452.85 Z" />
<path fill="#101010" opacity="0.30" d=" M 617.63 557.68 C 670.05 539.58 725.32 527.95 781.00 529.36 C 839.07 530.56 897.06 533.98 955.00 537.87 L 955.00 547.95 C 923.33 545.75 891.75 542.48 860.07 540.42 C 814.43 537.37 768.45 537.67 723.04 543.60 C 690.73 547.88 658.70 554.98 627.98 565.98 C 609.34 572.80 591.34 581.29 573.96 590.85 C 559.72 598.72 547.27 610.37 539.82 624.96 C 536.04 632.20 533.93 640.17 532.30 648.14 C 528.20 668.18 530.54 689.06 536.51 708.47 C 540.37 720.89 545.18 732.99 549.87 745.12 C 574.36 806.72 607.04 865.10 647.05 917.97 C 660.60 935.95 675.06 953.24 690.08 970.00 L 676.06 970.00 C 634.07 921.76 597.43 868.72 568.41 811.68 C 552.83 781.18 538.61 749.78 529.24 716.77 C 525.35 702.76 522.03 688.52 520.41 674.05 C 518.28 654.71 521.62 634.46 531.59 617.59 C 539.64 603.74 551.61 592.52 565.05 583.97 C 581.63 573.49 599.04 564.10 617.63 557.68 Z" />
<path fill="#101010" opacity="0.30" d=" M 710.87 561.35 C 729.42 558.32 748.29 557.78 767.02 559.08 C 829.77 561.64 892.44 565.89 955.00 571.30 L 955.00 581.50 C 921.68 578.77 888.34 576.22 855.02 573.59 C 817.08 570.91 779.07 566.69 740.99 568.94 C 720.40 570.27 699.77 573.00 679.99 579.01 C 651.46 587.82 625.58 605.96 609.01 630.97 C 597.11 648.76 590.07 669.66 588.19 690.95 C 585.20 723.98 591.54 757.41 604.03 787.99 C 615.55 816.39 632.16 842.35 649.34 867.60 C 674.63 904.09 703.43 938.07 734.24 970.00 L 720.88 970.00 C 693.38 940.69 667.13 910.09 643.50 877.54 C 628.27 856.29 613.86 834.32 602.19 810.89 C 585.45 776.91 575.77 739.01 577.54 700.99 C 578.52 678.89 582.85 656.66 592.61 636.69 C 604.31 612.15 624.55 592.06 648.73 579.78 C 668.03 569.68 689.46 564.61 710.87 561.35 Z" />
<path fill="#101010" opacity="0.30" d=" M 750.09 594.51 C 785.23 590.57 820.66 591.83 855.93 592.59 C 889.01 593.70 922.04 595.84 955.00 598.75 L 955.00 608.95 C 928.01 607.17 901.04 605.02 874.00 604.25 C 855.03 603.15 836.02 603.45 817.04 602.83 C 796.84 602.91 776.60 602.95 756.47 604.76 C 735.08 606.79 713.76 610.95 693.70 618.78 C 666.82 628.74 642.33 647.63 629.88 673.93 C 620.61 692.99 617.91 714.86 620.65 735.77 C 623.25 755.48 628.83 774.98 638.60 792.37 C 644.04 802.25 651.26 810.95 658.10 819.86 C 674.43 840.70 691.64 860.90 710.45 879.56 C 741.96 911.16 774.98 941.25 809.10 970.00 L 792.59 970.00 C 777.50 956.95 762.49 943.79 747.75 930.34 C 719.25 903.81 692.39 875.60 666.02 846.98 C 659.35 839.64 652.43 832.50 646.35 824.65 C 634.05 808.86 624.49 790.98 617.95 772.07 C 611.97 754.69 607.91 736.43 608.21 717.96 C 607.91 684.87 623.26 651.86 649.42 631.42 C 662.98 620.58 678.76 612.86 695.03 607.00 C 712.77 600.54 731.36 596.65 750.09 594.51 Z" />
<path fill="#101010" opacity="0.30" d=" M 725.88 639.90 C 744.85 636.81 764.18 636.72 783.33 637.76 C 840.65 641.38 897.79 647.19 955.00 652.16 L 955.00 662.61 C 909.33 658.69 863.67 654.51 817.97 650.91 C 804.32 649.99 790.68 648.40 776.98 648.47 C 756.36 648.20 735.68 649.79 715.43 653.74 C 700.72 656.70 686.55 664.38 677.75 676.77 C 668.36 689.76 665.48 706.34 666.46 722.07 C 667.46 743.14 673.59 764.11 685.14 781.84 C 701.00 806.22 717.67 830.17 736.76 852.16 C 775.50 896.05 819.47 935.18 866.49 970.00 L 852.06 970.00 C 802.17 932.17 754.97 890.42 713.95 843.01 C 693.03 818.59 674.83 791.30 664.06 760.83 C 658.93 746.10 654.74 730.72 655.12 715.00 C 654.90 697.03 661.33 678.83 673.80 665.74 C 687.36 651.20 706.57 643.24 725.88 639.90 Z" />
<path fill="#101010" opacity="0.30" d=" M 781.93 692.51 C 814.15 689.84 846.75 689.03 878.86 693.57 C 904.32 696.76 929.66 700.81 955.00 704.83 L 955.00 715.57 C 927.68 711.07 900.27 707.12 872.89 703.04 C 831.34 696.22 787.67 697.05 747.84 711.77 C 740.03 714.84 731.80 719.27 728.16 727.25 C 724.78 734.87 727.16 743.48 730.34 750.74 C 735.30 761.62 741.98 771.59 748.17 781.78 C 752.99 789.36 757.53 797.10 762.19 804.77 C 789.90 849.34 826.31 888.46 868.77 919.30 C 884.29 930.75 900.89 940.61 917.17 950.90 C 927.35 957.24 937.46 963.69 947.65 970.00 L 927.25 970.00 C 909.81 958.65 892.04 947.80 874.78 936.17 C 844.82 915.84 816.64 892.52 793.00 864.98 C 782.39 852.76 773.20 839.43 763.69 826.36 C 758.40 819.18 753.90 811.48 749.04 804.02 C 739.94 789.80 730.76 775.63 721.74 761.36 C 716.91 753.55 712.22 745.27 710.94 736.04 C 709.96 729.49 712.22 722.61 716.87 717.89 C 723.91 710.50 733.57 706.46 742.92 702.82 C 755.52 698.11 768.48 693.89 781.93 692.51 Z" />
<path fill="#101010" opacity="0.30" d=" M 799.21 727.25 C 808.99 724.08 819.55 725.28 829.44 727.30 C 849.78 731.86 870.06 736.73 890.25 741.94 C 911.97 747.49 933.37 754.20 955.00 760.10 L 955.00 784.53 C 923.65 777.51 892.14 770.36 860.00 768.19 C 854.27 768.19 847.71 768.23 843.06 772.04 C 841.69 775.17 842.37 778.81 842.96 782.08 C 845.64 793.90 854.40 803.25 864.00 810.10 C 878.52 820.29 895.90 824.79 912.42 830.59 C 926.57 835.41 940.84 839.89 955.00 844.70 L 955.00 854.83 C 932.92 847.27 910.73 840.00 888.65 832.41 C 865.95 824.70 843.76 812.08 830.26 791.68 C 825.69 784.80 822.92 775.94 825.89 767.87 C 827.82 761.38 833.52 756.34 840.18 755.13 C 850.13 753.21 860.22 755.56 870.09 756.95 C 884.84 759.31 899.52 762.15 914.22 764.86 C 920.85 766.03 927.44 767.59 934.18 768.01 C 926.37 764.04 918.36 760.28 909.83 758.16 C 883.71 751.29 857.73 743.73 831.12 738.94 C 823.22 737.41 814.98 736.34 807.01 738.06 C 801.01 739.35 795.14 743.36 793.50 749.56 C 791.42 757.46 794.77 765.53 798.60 772.34 C 808.10 788.56 819.81 803.56 833.65 816.30 C 856.78 836.24 883.70 851.01 910.42 865.48 C 925.27 873.69 940.20 881.75 955.00 890.03 L 955.00 901.61 C 934.28 890.11 913.43 878.86 892.72 867.34 C 877.60 858.89 862.18 850.91 847.82 841.21 C 832.44 830.95 818.13 818.93 806.27 804.70 C 798.35 795.27 792.08 784.64 786.12 773.92 C 782.51 767.19 779.41 759.80 779.64 752.02 C 780.19 740.78 788.56 730.60 799.21 727.25 Z" />
</g>
<g id="#4d4d4d4d">
</g>
</svg>
